<mxfile host="Electron" agent="Mozilla/5.0 (Macintosh; Intel Mac OS X 10_15_7) AppleWebKit/537.36 (KHTML, like Gecko) draw.io/24.7.17 Chrome/128.0.6613.36 Electron/32.0.1 Safari/537.36" version="24.7.17">
  <diagram name="Page-1" id="cImSqw7X4Ue1kQXBPlzs">
    <mxGraphModel dx="1114" dy="739" grid="1" gridSize="10" guides="1" tooltips="1" connect="1" arrows="1" fold="1" page="1" pageScale="1" pageWidth="1169" pageHeight="827" math="0" shadow="0">
      <root>
        <mxCell id="0" />
        <mxCell id="1" parent="0" />
        <mxCell id="b2coUypREnV0myxRBnu6-1" value="" style="shape=image;imageAspect=0;aspect=fixed;verticalLabelPosition=bottom;verticalAlign=top;image=data:image/png,iVBORw0KGgoAAAANSUhEUgAAArcAAAHWCAYAAABt3aEVAAAAOXRFWHRTb2Z0d2FyZQBNYXRwbG90bGliIHZlcnNpb24zLjkuMCwgaHR0cHM6Ly9tYXRwbG90bGliLm9yZy80BEi2AAAACXBIWXMAAA9hAAAPYQGoP6dpAADNVElEQVR4nOydd5wkZbn9T3Xu6cl5c44s7MICSw66iOJFjBcxgKviFUQFDID8JJhAQfGqKIIiiIooV0UUEVxA0koOCyy7bI6Tc/dMx/r9UfW+9VZ1nukJO3O+n89+dqe7uvrt6t7pU6fO8zyarus6CCGEEEIImQS4xnsBhBBCCCGElAqKW0IIIYQQMmmguCWEEEIIIZMGiltCCCGEEDJpoLglhBBCCCGTBopbQgghhBAyaaC4JYQQQgghkwaKW0IIIYQQMmmguCWEEEIIIZMGiltCCCmST3ziE5g7d27B25aXl4/ugkhWHnvsMWiahnvvvTfvtsW8r4SQiQvFLSGkYO644w5omoZAIIB9+/al3X/KKadgxYoVttvmzp0LTdPkn1AohKOPPhq//vWvx2rZNs444wzU1NTAOXn8pZdegqZpmDNnTtpjHnnkEWiahltvvTXjPiORCK655ho89thjo7HkYfP000/jmmuuQU9PT8GPuf/++3HyySejsbERZWVlmD9/Pv77v/8bDz744OgttAT87ne/ww9/+MPxXgYhZAJAcUsIKZpoNIrrr7++4O1XrVqFu+66C3fddReuueYa9Pb24rzzzsNtt902iqvMzAknnICenh689tprttufeuopeDwe7N69G3v37k27TzwWAG677TZs3rxZ3h+JRHDttddOSHF77bXXFixub7zxRrznPe+Bpmm44oorcNNNN+EDH/gA3nrrLfz+978f3cWOkFKIW+f7Sgg5OPGM9wIIIQcfq1atwm233YYrrrgC06dPz7v9jBkz8LGPfUz+/IlPfALz58/HTTfdhPPPP380l5qGEKhPPvkkDj30UHn7U089hTPOOAOPPPIInnzySXz4wx+W9z355JOoq6vDsmXLAABer3dM1zwWJBIJfPOb38Rpp52Ghx56KO3+tra2cVjV2DIZ31dCpiJ0bgkhRfO1r30NyWSyKPdWpaGhAUuXLsW2bdvS7uvp6cEll1yCuXPnwu/3Y+bMmTj33HPR0dEx0mUDAI4++mj4fD7pxgqeeuopnHTSSTj66KNt96VSKfznP//BcccdB03TANizmTt37kRDQwMA4Nprr5Xxi2uuuca2/3379uG9730vysvL0dDQgC9/+ctIJpO2bcLhML70pS9h1qxZ8Pv9WLJkCW688UZbhGLnzp3QNA133HFH2mtTn/eaa67BV77yFQDAvHnz5Lp27tyZ8bh0dHSgr68Pxx9/fMb7Gxsb5b9FjvUPf/gDrr32WsyYMQMVFRX44Ac/iN7eXkSjUVx88cVobGxEeXk51q1bh2g0atufENMLFiyA3+/H3Llz8bWvfS1tOwD46U9/ikMOOQR+vx/Tp0/H5z73OZsbfcopp+Dvf/87du3aJV+nMzubSqXw7W9/GzNnzkQgEMDb3/52bN261baNM3MrjvWNN96IW2+9Va71qKOOwnPPPZe2zj/+8Y9Yvnw5AoEAVqxYgT//+c/M8RIyDtC5JYQUzbx583Duuefitttuw+WXX16Qe6uSSCSwd+9e1NTU2G4fGBjAiSeeiE2bNuGTn/wkjjjiCHR0dOCvf/0r9u7di/r6+hGvPRAIYPXq1XjyySflbXv27MGePXtw3HHHoaenB3//+9/lfRs3bkRfX590fJ00NDTgZz/7GS644AK8733vw/vf/34AwGGHHSa3SSaTOP3007FmzRrceOON+Ne//oXvf//7WLBgAS644AIAgK7reM973oNHH30Un/rUp7Bq1Sr885//xFe+8hXs27cPN910U1Gv8/3vfz+2bNmCu+++GzfddJM8dkKIO2lsbEQwGMT999+Pz3/+86itrc37HNdddx2CwSAuv/xybN26FT/+8Y/h9XrhcrnQ3d2Na665Bv/5z39wxx13YN68ebjqqqvkYz/96U/jzjvvxAc/+EF86UtfwjPPPIPrrrsOmzZtwp///Ge53TXXXINrr70Wa9euxQUXXIDNmzfjZz/7GZ577jk89dRT8Hq9uPLKK9Hb24u9e/fK4+Qs4rv++uvhcrnw5S9/Gb29vfje976Hj370o3jmmWfyvs7f/e536O/vx//8z/9A0zR873vfw/vf/35s375dur1///vfcfbZZ+PQQw/Fddddh+7ubnzqU5/CjBkz8u6fEFJidEIIKZBf/epXOgD9ueee07dt26Z7PB79C1/4grz/5JNP1g855BDbY+bMmaO/4x3v0Nvb2/X29nZ948aN+sc//nEdgP65z33Otu1VV12lA9D/9Kc/pT13KpUq2ev4yle+ogPQ9+7dq+u6rt999916IBDQo9Go/sADD+hut1vv6+vTdV3Xf/KTn+gA9Keeeko+/rzzztPnzJkjf25vb9cB6FdffXXac5133nk6AP0b3/iG7fbDDz9cX716tfz5L3/5iw5A/9a3vmXb7oMf/KCuaZq+detWXdd1fceOHToA/Ve/+lXacznXcMMNN+gA9B07dhRyWOTxD4VC+rve9S7929/+tv7CCy+kbffoo4/qAPQVK1bosVhM3n7OOefomqbp73rXu2zbH3vssbbj9fLLL+sA9E9/+tO27b785S/rAPRHHnlE13Vdb2tr030+n/6Od7xDTyaTcjvxntx+++3ytne/+92253CuddmyZXo0GpW3/+///q8OQN+4caO8zfm+imNdV1end3V1ydvvu+8+HYB+//33y9sOPfRQfebMmXp/f7+87bHHHtMBZFwXIWT0YCyBEDIs5s+fj49//OO49dZbceDAgZzbPvTQQ2hoaEBDQwMOPfRQ3HXXXVi3bh1uuOEG23b/93//h5UrV+J973tf2j5EJKAUCBf2iSeeAGBEElavXg2fz4djjz1WRhHEfYFAAEceeeSInvOzn/2s7ecTTzwR27dvlz8/8MADcLvd+MIXvmDb7ktf+hJ0Xcc//vGPET1/IVx77bX43e9+h8MPPxz//Oc/ceWVV2L16tU44ogjsGnTprTtzz33XFtOdc2aNdB1HZ/85Cdt261ZswZ79uxBIpEAYLxWALj00ktt233pS18CAOmc/+tf/0IsFsPFF18Ml8v6ujr//PNRWVlpc9jzsW7dOvh8PvnziSeeCAC29yAbZ599tu0qg/Ox+/fvx8aNG3HuuefaHOOTTz7ZlusmhIwNFLeEkGHz//7f/0MikcibvV2zZg0efvhhPPjgg7jxxhtRXV2N7u5um9gAgG3btqW1EiuErq4utLS0yD+9vb05tz/++OOhaZrM1j711FMya1pdXY3ly5fb7jvqqKPS1loMgUAgLQ5QU1OD7u5u+fOuXbswffp0VFRU2LYTRWy7du0a9vMXwznnnIMnnngC3d3deOihh/CRj3wEL730Es4880wMDQ3Ztp09e7bt56qqKgDArFmz0m5PpVLyfdm1axdcLhcWLlxo2665uRnV1dXytYq/lyxZYtvO5/Nh/vz5RR0T51qFWFXfg+E+VqzD+Xqy3UYIGV0obgkhw2b+/Pn42Mc+lte9ra+vx9q1a3H66afjS1/6En7zm9/gL3/5C/73f/+3JOt4//vfj2nTpsk/X/ziF3NuX1dXh6VLl+LJJ5/EwMAAXn31VRx33HHy/uOOOw5PPvkk9u7di927d2fN2xaK2+0e0eNVsjnYzuK0kVJZWYnTTjsNv/3tb3Heeedh27ZtafnUbK8r2+26o7dwKd34fBS6plI/lhAy9lDcEkJGhHBvv/vd7xb8mHe/+904+eST8Z3vfAfhcFjevmDBgrT+s4Xw/e9/Hw8//LD889WvfjXvY0444QRs3LgRDz30EJLJZJq4feaZZ2Tf2nzithQibc6cOdi/fz/6+/ttt7/55pvyfsByDZ29azO5mKUSjyKSkS9+Uihz5sxBKpXCW2+9Zbu9tbUVPT098rWKv529Z2OxGHbs2GEbuDGWQtmJWIez+0K22wghowvFLSFkRCxYsAAf+9jH8POf/xwtLS0FP+6yyy5DZ2enbZDDBz7wAbzyyiu2anlBLpds9erVWLt2rfyzfPnyvM9/wgknIJlM4sYbb8SiRYtssYHjjjsOAwMD+OlPfwqXy2UTvpkoKysDkC44i+GMM85AMpnET37yE9vtN910EzRNw7ve9S4AhqNaX1+Pxx9/3LbdT3/607R9hkKhgtcViUSwYcOGjPeJvK8zHjBczjjjDABIG7rwgx/8AIBx8gMAa9euhc/nw49+9CPb+//LX/4Svb29cjvAeK354iijxfTp07FixQr8+te/xsDAgLz93//+NzZu3DguayJkKsNWYISQEXPllVfirrvuwubNm3HIIYcU9Jh3vetdWLFiBX7wgx/gc5/7HLxeL77yla/g3nvvxYc+9CF88pOfxOrVq9HV1YW//vWvuOWWW7By5cqSrVm4sRs2bMAnPvEJ232LFy9GfX09NmzYgEMPPRTV1dU59xUMBrF8+XLcc889WLx4MWpra7FixYqi8sNnnnkmTj31VFx55ZXYuXMnVq5ciYceegj33XcfLr74YixYsEBu++lPfxrXX389Pv3pT+PII4/E448/ji1btqTtc/Xq1QCM9+fDH/4wvF4vzjzzTCl6VSKRCI477jgcc8wxeOc734lZs2ahp6cHf/nLX/DEE0/gve99Lw4//PCCX08uVq5cifPOOw+33norenp6cPLJJ+PZZ5/FnXfeife+97049dRTARhty6644gpce+21eOc734n3vOc92Lx5M37605/iqKOOsg0GWb16Ne655x5ceumlOOqoo1BeXo4zzzyzJOsthO985zs466yzcPzxx2PdunXo7u7GT37yE6xYscImeAkhow+dW0LIiFm4cKFNaBTKl7/8ZezZswe//e1vARi9SZ944glccMEFeOCBB/CFL3wBP/3pT7FkyRLMnDmzpGueP3++7M+byZkVtxWat/3FL36BGTNm4JJLLsE555yDe++9t6j1uFwu/PWvf8XFF1+Mv/3tb7j44ovxxhtv4IYbbpCOpuCqq67Cpz71Kdx777346le/imQymbGbwlFHHYVvfvObeOWVV/CJT3wC55xzDtrb2zM+f3V1NW677TY0NzfjV7/6FS688EJ8/etfx8DAAG644Qbcc889Rb2efPziF7/Atddei+eeew4XX3wxHnnkEVxxxRVpY36vueYa/OQnP8Hu3btxySWX4A9/+AM+85nP4KGHHrJ1arjwwgvxkY98BL/61a/wkY98BJ///OdLut58nHnmmbj77rsRi8Vw+eWX409/+hPuuOMOLFmyBIFAYEzXQshUR9OZiCeEEEJGhVWrVqGhoQEPP/zweC+FkCkDnVtCCCFkhMTjcdnHV/DYY4/hlVdewSmnnDI+iyJkikLnlhBCCBkhO3fuxNq1a/Gxj30M06dPx5tvvolbbrkFVVVVeO2111BXVzfeSyRkysCCMkIIIWSE1NTUYPXq1fjFL36B9vZ2hEIhvPvd78b1119PYUvIGEPnlhBCCCGETBqYuSWEEEIIIZMGiltCCCGEEDJpmHKZ21Qqhf3796OiomJcxzUSQgghhJDM6LqO/v5+TJ8+HS5XcV7slBO3+/fvx6xZs8Z7GYQQQgghJA979uwpeojPlBO3FRUVAIyDVVlZOc6rIYQQQgghTvr6+jBr1iyp24phyolbEUWorKykuCWEEEIImcAMJ0LKgjJCCCGEEDJpoLglhBBCCCGTBopbQgghhBAyaaC4JYQQQgghk4ZxF7c333wz5s6di0AggDVr1uDZZ5/NuX1PTw8+97nPYdq0afD7/Vi8eDEeeOCBMVotIYQQQgiZyIxrt4R77rkHl156KW655RasWbMGP/zhD3H66adj8+bNaGxsTNs+FovhtNNOQ2NjI+69917MmDEDu3btQnV19dgvnhBCCCGETDg0Xdf18XryNWvW4KijjsJPfvITAMb0sFmzZuHzn/88Lr/88rTtb7nlFtxwww1488034fV6h/WcfX19qKqqQm9vL1uBEUIIIYRMQEai18YtlhCLxfDCCy9g7dq11mJcLqxduxYbNmzI+Ji//vWvOPbYY/G5z30OTU1NWLFiBb7zne8gmUxmfZ5oNIq+vj7bH0IIIYQQMjkZN3Hb0dGBZDKJpqYm2+1NTU1oaWnJ+Jjt27fj3nvvRTKZxAMPPICvf/3r+P73v49vfetbWZ/nuuuuQ1VVlfzD0buEEEIIIZOXcS8oK4ZUKoXGxkbceuutWL16Nc4++2xceeWVuOWWW7I+5oorrkBvb6/8s2fPnjFcMSGEEEIIGUvGraCsvr4ebrcbra2ttttbW1vR3Nyc8THTpk2D1+uF2+2Wty1btgwtLS2IxWLw+Xxpj/H7/fD7/aVdPCGEEEIImZCMm3Pr8/mwevVqrF+/Xt6WSqWwfv16HHvssRkfc/zxx2Pr1q1IpVLyti1btmDatGkZhS0hhBBCCJlajGss4dJLL8Vtt92GO++8E5s2bcIFF1yAcDiMdevWAQDOPfdcXHHFFXL7Cy64AF1dXfjiF7+ILVu24O9//zu+853v4HOf+9x4vQRCCCGEEDKBGNc+t2effTba29tx1VVXoaWlBatWrcKDDz4oi8x2794Nl8vS37NmzcI///lPXHLJJTjssMMwY8YMfPGLX8Rll102Xi+BEEIIIYSMkL6hOC75/ct4z6rpOGvVjBHta1z73I4H7HNLCCGEEDKxePC1Fnz2Ny/gsJlV+OtFJ+CFt/bhyMUzD64+t4QQQgghhADAQDQBAOiOxAAA33lg07D3RXFLCCGEEELGlbApbnvCcQBA72B82PuiuCWEEEIIIeNKOGaI2/5oAvFkCt3h2LD3RXFLCCGEEELGFeHcAoZr2zOYyLF1bihuCSGEEELIuBKOJuW/9/cMIp5M5dg6NxS3hBBCCCFkXFGd2x0d4RHti+KWEEIIIYSMK5GY5dxS3BJCCCGEkIOaATq3hBBCCCFkshCJUdwSQgghhJBJglpQtqOd4pYQQgghhBzEhBXntj86/DZgAMUtIYQQQggZZ1TndqRQ3BJCCCGEkHElPEK3VoXilhBCCCGEjBvJlI7BOJ1bQgghhBAyCVA7JZQCiltCCCGEEDJuqAMcSgHFLSGEEEIIGTfEAAdNK83+KG4JIYQQQsi4ETE7JdSX+0uyP4pbQgghhBAybgjntiroRUXAAwDwuodv41LcEkIIIYSQcUMUlIV8blSXeQEA1UHvsPdHcUsIIYQQQsYN4dyG/B5UB30AgOoy37D35ynJqgghhBBCCBkGoltCmc8Dt8uII1SNwLmluCWEEEIIIeNGWDq3bgR9bgBATYjilhBCCCGEHISEzW4JIb8Hbk04t8OPJTBzSwghhBBCxg21oOzIuTVwacARs6uHvT86t4QQQgghZNxQC8rOWjUDpy1vQmIoMuz90bklhBBCCCHjhigoC/kMz7XMNzLvleKWEEIIIYSMG6pzWwoobgkhhBBCyLghM7d+d0n2R3FLCCGEEELGjYGoPZYwUihuCSGEEEJISYgnU3h6awcGzRxtIUTMWEIZnVtCCCGEEDKR+OPze/GRXzyDHz/yVsGPkUMc6NwSQgghhJCJxNa2AQDAtvaBgh8TjllDHEoBxS0hhBBCCCkJneGo8fdArKDtdV23jd8tBRS3hBBCCCGkJHQMmOI2XJi4jSVTSKR0AHRuCSGEEELIBKOj3xC1QuTm3d50eDUNKPPSuSWEEEIIIRMIIWr7hxKIJvJ3THhscxsAYOXManjcpZGlFLeEEEIIIWTEJJIpdEWsOEJXAdGEf73RCgA4bXlTydZBcUsIIYQQQkZMVyQGXbd+zldUFo4m8NS2TgAUt4QQQgghZILhFLPteXK3T7zVjlgihdm1ZVjUWF6ydVDcEkIIIYSQEeMsIsvn3D78hpG3PW15EzRNK9k6KG4JIYQQQsiISRe3uZ3b53d1AQBOWdJQ0nVQ3BJCCCGEkBEj2oAJ8vW67eg3xO+smrKSroPilhBCCCGEjBjh3Lo0+8+ZGIon5djd2nJfSddBcUsIIYQQQkaMGMgwrz4EIHfmVri6PrcLFSWaTCaguCWEEEIIISNGOLVLmisAAJ3h7M6tyOPWlftKWkwGUNwSQgghhJASIMVtU6Xxc38O59Z0dWtDpY0kABS3hBBCCCGkBGRybnV1qoOCiCXUlftLvg6KW0IIIYQQkpdUSscjb7airX8o433CjRXiNp7U0TeUQCSWwFk/eRJf+eMrcnsZS6BzSwghhBBCxoMN2zvxyTuex9f/8lrafb2DcSRShks7vTqAcrNIrHMgiud3duOVvb344wt7pajtEs4txS0hhBBCCBkPDvQaju2uzkjafaJ4rDLggd/jRr3Z3qszHMPr+/vkdk9v6wRgdVZgLIEQQgghhIwLQ3GjL21XhuEM7WbxWL0pVoVo7eiP4vX9vXK7p7Z2ALDEMJ1bQgghhBAyLghx2x2JpRWKdUfs3Q9m1QQBAK/v78MbinP7xFsd0HXdiiWUeIADQHFLCCGEEEIKQIjbeFLHQDRhu0+I2xpT3J60uAEA8MDGA9jRGQYAuF0a9vUMYndXhK3ACCGEEELI+DIUT8l/d4fjtvu6TSe2pswLwBC3mgZs7whD14GmSj9Wz6kBYLi3IpZQz8wtIYQQQggZD4RzCwBdEXvutssUu8K5rS/347CZ1fL+FdOrcMLCegDAw2+0SqHMWAIhhBBCCBkXBhVx2+0oKusRmdsyS6yeuqRB/vuQ6ZU43hS3T5pFZQGvC2U+T8nXSXFLCCGEEELyosYSnB0ThJNbYxO3jfLfy6dXYeXMKpT7PUia/XDrQqWPJAAUt4QQQgghpACGEopz64glyMytUiB26IwqzKkrQ9DrxhGzq+Fxu3DM/Dp5/2hEEgCg9F4wIYQQQgiZdETVzK3Due2OGJnb2pBX3uZyafjD/xyLcDSBxsoAAOCEhXX416ZWAKPT4xaguCWEEEIIIQVg65aQxbmtLrML1iZT1ApOWFQv/z0a08kAxhIIIYQQQkgBDGZxbmOJFPrNvre1Zbnd2AUN5WiqNKeYjZJzS3FLCCGEEELyMmTrlmD1ue0ZNISuSwMqg960x6lomoa3L2sCAMxvCI3CKieIuL355psxd+5cBAIBrFmzBs8++2zWbe+44w5ommb7EwgEsm5PCCGEEEIKpyucPl4XyN7nVgjd6jIf3C4t7/6vPGMZbvnYEfjAETNLsNp0xl3c3nPPPbj00ktx9dVX48UXX8TKlStx+umno62tLetjKisrceDAAfln165dY7hiQgghhJDJyZNvdWD1tx7GDx7eknaffUJZDLs6w3hg4wEZUaguy+3aCkJ+D965Yho87tGRoeMubn/wgx/g/PPPx7p167B8+XLccsstKCsrw+233571MZqmobm5Wf5pamrKum00GkVfX5/tDyGEEEIISeeNA73QdeCRN9NNxqijFdhFv3sJF/72Rfzt1f0A8udtx4pxFbexWAwvvPAC1q5dK29zuVxYu3YtNmzYkPVxAwMDmDNnDmbNmoWzzjoLr7/+etZtr7vuOlRVVck/s2bNKulrIIQQQgiZLISjhoDd0tpvE7MAMBizfk7pwMZ9vQAgW3vVjFKBWLGMq7jt6OhAMplMc16bmprQ0tKS8TFLlizB7bffjvvuuw+/+c1vkEqlcNxxx2Hv3r0Zt7/iiivQ29sr/+zZs6fkr4MQQgghZDIQiRldD+JJHZtb+m33DSVSmR6C1r4oAKCmwFjCaHPQ9bk99thjceyxx8qfjzvuOCxbtgw///nP8c1vfjNte7/fD79/dPqoEUIIIYRMJsKKO7txXy8Om1kNAIgnU3JsblXQi97BeNpj6dwCqK+vh9vtRmtrq+321tZWNDc3F7QPr9eLww8/HFu3bh2NJRJCCCGETBkiZr9aAHjNjB0A9k4J06oyd6li5haAz+fD6tWrsX79enlbKpXC+vXrbe5sLpLJJDZu3Ihp06aN1jIJIYQQQqYEqnP72j6rCF8McNA0oNkUt163humK0K2ZIOJ23GMJl156Kc477zwceeSROProo/HDH/4Q4XAY69atAwCce+65mDFjBq677joAwDe+8Q0cc8wxWLhwIXp6enDDDTdg165d+PSnPz2eL4MQQggh5KBHZG4BYHNLP2KJFHweF6JmGzC/xyUd2sNn1aCpKoD9rxjdEiZKLGHcxe3ZZ5+N9vZ2XHXVVWhpacGqVavw4IMPyiKz3bt3w+WyDObu7m6cf/75aGlpQU1NDVavXo2nn34ay5cvH6+XQAghhBAyKRDdEgAglkxhS2s/VsyokrGEgNeNBY3lAIDTljchpeu43xS3tSEWlEkuuugiXHTRRRnve+yxx2w/33TTTbjpppvGYFWEEEIIIVML4dz6PS5EEym8vr/XFLeGcxv0uvGZk+bjmPl1WDmzCs/s6JKPrZ4gsYRxH+JACCGEEEImBsK5nV1bBgDojhhdEYYSlnPrdbuwek4NPG4XDpleCc2cuFsfmhjdqSaEc0sIIYQQQsafsOnc1pf78VbbACJmgZkY4OD32H3R6jIfvnnWCkQTKVSxzy0hhBBCCJlIREzntq7ciBiIrK2auXXysWPmjNHqCoOxBEIIIYQQglgihVjSyNbWlxsRA5HBFdPJAt6JLx0n/goJIYQQQsioM6j0uK03ndvBmCFqhXMbzODcTjQobgkhhBBCiMzb+twuVAaN/Oxg3LgtmiOWMNGguCWEEEIImWQ8+VYHzvzxk7YRuvkQEYSQ3y1FrHBzByluCSGEEELIePGXl/dh475ePPxGa8GPEW3AynweGT8Q3RJEn1tmbgkhhBBCyJjTO2j2p40n82xpEVac2zKf2/Z48bffQ+eWEEIIIYSMMULcDhYhbiMFOLdBH8UtIYQQQggZY/pG6NwKESvEsczc0rklhBBCCCFjjeXcpgp+jC1z67MXlFndEia+dJz4KySEEEIIIUUxnMyt7Jbgc6PMawyxFY7tUILdEgghhBBCyDgQT6aUrGwRsQTh3Po9CPgMiTgYT0LXdXZLIIQQQggh44NwbYEROLc+w7nVdSCaSMn90LklhBBCCCFjiipui+mWIArKynweBDyWRByMJTnEgRBCCCGEjA9257bwgjLRCizkd8PjdsHnNmRiJJ5UYgkUt4QQQgghZAyxObex4Tm3AGwdE2S3BM/El44Tf4WEEEIIIaRg+hRxG00Uk7m1nFsAcpDDYCzJzC0hhBBCCBkfhu3cRu3ObZkyyGEowVgCIYQQQggZB3oi9oIyXdcLepx0bk1xG5AjeBNSJAcpbgkhhBBCyFiiOrcpHYgnCxO3MnNrxhLKlMytNcRh4kvHib9CQgghhBBSMKq4BQpvByaGOIQcBWV9Q3EI89dP55YQQgghhIwlTnEbLVjcisytvaCsK2ztj84tIYQQQggZU4bj3CaSKUTNorGQ3+7cdkdiAABNg+x9O5GZ+CskhBBCCCEF0+cQt4UMcogoAtjp3O7rHgQA1JT5oGlaqZY5alDcEkIIIYRMIobj3IrpZB6XBr85qEE4t7u6wgCAxgp/KZc5alDcEkIIIYRMIoS49boNl3WoAHFrTSdzS3dWOLe7OiMAgAaKW0IIIYQQMpbEkynZr7axIgCgMOe2rS8KAKgMeuVtIp7QP2QIX4pbQgghhBAypqiRhMZKQ4wOxpL42C+ewbm3P5t1oMPzO7sAACtnVcvbnNPIhFie6HjGewGEEEIIIaQ0CHFb4feg3Ox6sL9nEE9u7QAAdEfiqA350h73zA5D3B4zr1beJsbwCpi5JYQQQgghY4oQt5VBr3ReD/QOyfvb+ofSHhNPpvDCrm4AwNHz6uTtQZ9dJgoneKJDcUsIIYQQMkkQ4rZKEbctqrg1s7UqG/f1YjCeRE2ZF4say+XtQa/TuT04YgkUt4QQQgghk4Q+RdwGzWliB3oH5f1t/eni9lkzknDU3Fq4XFYfW9EKTMCCMkIIIYQQMqaITgkhvyezc5shlvDM9k4AwJr5dbbbg2kFZRS3hBBCCCFkDBHiNuhzS3Haqri1mWIJL+7uAQAcPbfWdnuZ4tyGfG45lneiQ3FLCCGEEDJJEAMbyrxu+E1xm0xZ7b/aB6Jp24uc7pz6Mtt9aiuwxsqDI28LUNwSQgghhEwaBjM4tyrtDue2J2IIW49LQ4XDmVWd24MlbwtQ3BJCCCGETBrENLKA142AN13mOTO33ZEYAKC6zCvH7gpUcUxxSwghhBBCxhwhboPezM6ts1tCd1iI2/TBDmq3hIOlmAyguCWEEEIIOSgJRxN4dkcXUkqmVsQSynzutPG5gFFwNhBNyJ+7zVhCbQZx6/e4IMzcg6XHLUBxSwghhBByUPKtv2/Cf/98A/75eou8TYjbQBZxCwBtfVY0QY0lONE0DWXmPujcEkIIIYSQUeWl3cbI3Nf298rb1FiCM3PrdRs2bLsSTegxxW1NBucWsKIJzNwSQgghhJBRI5XSsaMjDADY3WVNIMuVuZ1fb4zWVXO3XWEjllAdSnduAWDZtEr4PS4snVZRusWPMgdHN15CCCGEECLZ1zOIaCIFANjdFZG3Z8vcahqwsLEcm1v7beI2n3P7y/OOwkA0gdpQ5vsnIhS3hBBCCCEHGdvaB+S/d3eG5b/VVmBqt4PKgBdN5iAGtR2YyNxmKigDAJ/HhVrPwSNsAcYSCCGEEEIOOra1W4K2OxJH35ARL1CHOAQ8lritKfPK3Kw6yEF0S8hUUHawQnFLCCGEEHKQoTq3ALC704gmDKkFZT5L5lWV+WTHg5f29OD+V/YjlkhJ57bmIIod5IPilhBCCCFkHBmIJqQ4LZRtbXZxu8fM3UayZG5ryryY3xACAOzoCOPzd7+Enzy6VQ5xqKFzSwghhBBCSsFnfv08Tr7xUSlQM/Hom2247oFN+NH6t7C9fUDGEubXG4J1d1cEuq7bM7eKuK0OerFqVjXu/OTROG15EwDghV1d6BsyBjpkKyg7GGFBGSGEEELIOPLq3l7oOrC1fQCzasvS7k+mdFz42xelcL3t8e3oN6eMnbykAds7wtjVFZHdEwAjc+t1u+B2aUimdFSX+aBpGk5e3ICQz42H32jFS7t75PZVQTq3hBBCCCFkhPQNxeU43L7BeMZtegfjUtguaiyXwrap0o/l0yoBGLEEUUwGQLq24m+1YGxRk9GzVkQYKgMeeNyTRxJOnldCCCGEEHKQcaDHasvVE8ksbrvMXGxlwINbzz1SCtYFDeWYbTq9u7siUgD7PIZjC0BOKatWnNmqoBdNldbEsclUTAZQ3BJCCCGEjBv7e6zpYtnErexFG/JhXn0I33zvCrhdGk5d0ojZdYa43dc9iH4zP6tmbUVRmVPALm6yJo5NprwtwMwtIYQQQsiIePiNVjz8Rgu+cdYKW4eCQtjfq4jbwVjGbToHLHELAB9cPRPvWtGMkN+DVEqHz+NCLJGS7cFUcRvyGVKv2iFgFzVW4Im3OgBMrk4JAJ1bQgghhJAR8aP1b+EPz+/F09s6in6s6tz2Zsncqs6tIOQ3RKvLpcmIgei2oE4m+5+T5+Pdh03Dmnm1tn0ubiqX/6ZzSwghhBBCJGI6WDZxmgs1c9ubJ3ObTYTWlPmwp2tQCmXVuX3/ETPx/iNmpj1mkRJLcLq6Bzt0bgkhhBBCRsCAmXUVfxfDPjVzm825Dac7typC9O4zhbLq3GZjkeLc1oYYSyCEEEIIISailZdo0VUMB3rVbgmZM7ddeUbkCtGbybnNRmXAi2lVAQB0bgkhhBBCiEk8mZLDE4p1blMpHQd61cxt5sd35XFuRQ9bUZxWiHMLAEfONXK4CxrK82x5cMHMLSGEEELIMAkrbm1/keK2IxxFPKnLn3sHY9B1HZqm2baTsYQsDqu4XbQSK8S5BYDvvG8FPn3CPBw2s6qodU906NwSQgghhAyTAUXcDhQZSxDFZJUBw2uMJ3U5NUwlXyyh2nF7oeK2IuDFylnVaWL6YGdCiNubb74Zc+fORSAQwJo1a/Dss88W9Ljf//730DQN733ve0d3gYQQQgghGQhHLTFarHMrMrILGsvhM8ffZioq6w4bt2WLJTgd3UJjCZOVcRe399xzDy699FJcffXVePHFF7Fy5UqcfvrpaGtry/m4nTt34stf/jJOPPHEMVopIYQQQogdu3NbXCuw/WYx2fTqICrN8bjOdmDRRFI+R9ZuCY5uBxS348wPfvADnH/++Vi3bh2WL1+OW265BWVlZbj99tuzPiaZTOKjH/0orr32WsyfP38MV0sIIYQQYjEwgsytcG6nVwVkUZhzSplwbd0uTcYXnDj73xYaS5isjKu4jcVieOGFF7B27Vp5m8vlwtq1a7Fhw4asj/vGN76BxsZGfOpTn8r7HNFoFH19fbY/hBBCCCGlIDyCzG1bfxQA0FQZQHUW51Yd4JAtG+t0dClux5GOjg4kk0k0NTXZbm9qakJLS0vGxzz55JP45S9/idtuu62g57juuutQVVUl/8yaNWvE6yaEEEIIARyxhCKdW9EFoa7cpzi3dnFrjd7NPmhBPFYQYCzh4KG/vx8f//jHcdttt6G+vr6gx1xxxRXo7e2Vf/bs2TPKqySEEELIVEEVtMUOcVBdWZm5Hczu3GbD73EjpAjasinu3I5rn9v6+nq43W60trbabm9tbUVzc3Pa9tu2bcPOnTtx5plnyttSKaNxssfjwebNm7FgwQLbY/x+P/x+/yisnhBCCCFTka5wDBff8zL++8iZtlhCLJFCNJGE31OYuFSHM1QH7b1qndvUleeeIlYT8iEcK26Iw2RlXJ1bn8+H1atXY/369fK2VCqF9evX49hjj03bfunSpdi4cSNefvll+ec973kPTj31VLz88suMHBBCCCFk1Hlyawce39KO25/cgYGY3a0tNJqg67rsX1sbsmIJvY6CskKcW+f9Uz1zO+4Tyi699FKcd955OPLII3H00Ufjhz/8IcLhMNatWwcAOPfcczFjxgxcd911CAQCWLFihe3x1dXVAJB2OyGEEELIaDBoCtqOgZjNuQWMDG5def4rxpFYEjFzbK8qbp3ObXck9+hdgTrgIUBxO76cffbZaG9vx1VXXYWWlhasWrUKDz74oCwy2717N1yugyoaTAghhJBJzFDcEKWdA9E0p7bQdmDCkfV7XAh63agaQebWuN8qKiub4rGEcRe3AHDRRRfhoosuynjfY489lvOxd9xxR+kXRAghhBCShaG4MZUsHEuiY8AeIyhU3KqOrKZpUtxmy9zmdW7VWMIUF7e0RAkhhBBCimAwbo3c3dUVtt1XaK9bpyNbbf7tdG7bzV64DRW5ow6q+J3qmVuKW0IIIYSQIhCxBADY1z1ou6/QEbzOLG21dG7tTnBrnzGit6kyt7hVYwlTPXNLcUsIIYQQUgRDinOb0o2/60yRWmgsoXPALm7rK/xwaUbUYWtbPwBgMJZEn7m/xspAzv2pBWVTPXNLcUsIIYQQUgTRRDLttuYqQ3wOJ3MLAOV+D96+zCimv/PpXQCAtn7DtQ163ajw5y6TUjO3dG4JIYQQQkjBqLEEwTRT3BaeuTXiC6ooXXfcXADA/724F31DcbT2GXnbpko/NE3LuT+xH5/HBbcr97aTHYpbQgghhEx67n9lP778x1dskYLhkmkfTWZsoNAhDt2yC4KVlT12QR0WN5UjEkvij8/vlXnbfJEEAJhXH8L0qgCOnltb0PNPZihuCSGEEDKp0XUdn7/7Jdz7wl489EbriPc3mEHcTpOxhMwFZY9tbsPvntktfxbTydSsrKZpOPfYuQCAv76yXykmyy9ugz43/v3VU/HrTx5d2IuYxEyIPreEEEIIIaPFni6ro4G3BJfsnc6t26XJqWTZYgmX3PMyuiNxHD2vBgsbKyzn1jGc4Zj5hvP6Vms/WvtqAABNedqACbxuepYAnVtCCCGETHKe29kl/50nuloQzsxtud+DioDhF2YqKAtHE+g2hzO8vr8PgDKcodwubufUheBxaYjEknh5Tw+AwpxbYkFxSwghhJBJzfO7uuW/Y0l9xPtzOrflfg/KzW4GmZzbNnMQAwBsOtCPVEq3uiU4nFuv24V59SEAwEu7ewAAjXl63BI7FLeEEEIImdQ8rzi3sUR6p4NiiTr2EfK7UREwCsMyObciOwsAmw70oW8oLvvjVpelj9Vd1FQOAEiYG9G5LQ6KW0IIIYRMWrrDMbzVNiB/jidHLm4HY+nOrYgl5HNu32zpk5GECr8HPk+6FFvYWGH7meK2OChuCSGEEDJpeUGJJADFO7eplI693RHbbUOOIQ4hNZaQwbltU5zb1r4otrWHAdg7Jagsaiy3/Zxv9C6xQ3FLCCGEkEnLC7tHJm5v+tcWnPDdR/EvpYWYyNyGzDG3qnMbS6bSMrmqcwsAG7Z1AsghbpsscVsR8KDMx+ZWxUBxSwghhJBJS2vvkO3nWJGxhC2t/QAgOxfoui67JcysKQNgOLchnwc+sxVXu0PMqs4tAPzjtQMAgPos4nZefQiiYxkjCcVDcUsIIYSQSUu/mYEVI2mLdW4jZr72gCmS1WKymTVBAIZz63JpmGH+vMcRYxBjdEUXBLGvD6yemfE5/R435tYZ2zKSUDwUt4QQQgiZtIiJYbWmS1psQZmIGBzoNQZBRJUet0unGYVfYjqZELt7laERANDWb4jZkxbVy9v+67BpOOPQaVmfd6GZu22qoHNbLBS3hBBCCJm0iNZcdaa4HalzK0bvelwaPnvyAvzkI4fj48fOAQDMrjViCk7nts10bk8/pBk+jwtNlX5886wVOZ/38NnGdLJFTRU5tyPpDCuhfN1116GpqQmf/OQnbbfffvvtaG9vx2WXXVaSxRFCCCGEjAQpbs1JYMVmbgcV59bI2xo/B7xGb9v/Omy63HaWELddlriNxBIyGnHozCo8+MUTURX0Zi0mE3zyhLlYOasKq+fUFLVeMkzn9uc//zmWLl2advshhxyCW265ZcSLIoQQQggpBaLvbG3IyK4WG0sQPW2H4in0ROKyDVjAmy6hZtUI59aKJQjXNuh1o9zvwfyGctSV58/R+j1uHLegHn6Pu6j1kmE6ty0tLZg2LT0n0tDQgAMHDox4UYQQQgghI0XXdZm5FbEE53SxfAwqbb0O9A5J5zeT6JxVaxaUKc6taAPWVOmHpmlFPTcZHsNybmfNmoWnnnoq7fannnoK06dPz/AIQgghhJCxJZpIIZ40RthaBWV6UfuIxFRxO6jEErI7t239UbmdGL3byMKwMWNYzu3555+Piy++GPF4HG9729sAAOvXr8dXv/pVfOlLXyrpAgkhhBBChoPI22oaUFPmBQDEHNPFcpFM6bYCtP29Q5hldkQIeNOd2+oyL8r9HgxEE9jbPYiFjeXSuW1kS68xY1ji9itf+Qo6Oztx4YUXIhYz5iMHAgFcdtlluPzyy0u6QEIIIYSQ4SAiCeU+D/ymGC2mW8KgY9JYS+8gGszCtGAGcatpGmbWBPFmSz/2dEdMcUvndqwZlrjVNA3f/e538fWvfx2bNm1CMBjEokWL4PfzrIQQQgghEwPh3FYErOlhxcQSBmN2cXugZwiLGo3WXJmcW8DomPBmSz/2mrlbUVDGYQxjx4j63JaXl+Ooo47CihUrpLC99957S7IwQgghhJCRIMRtecADn8eQPEU5tw5xuz9P5hZI75ggM7cUt2NG0eI2kUjgtddew5YtW2y333fffVi5ciU++tGPlmxxhBBCCCHDZSBqxBIqAl7p3BbT5zY9ljAkxa0/q3NrZHJ3d0bkYwBgWlWwiJWTkVCUuH3ttdewcOFCrFy5EsuWLcP73/9+tLa24uSTT8YnP/lJvOtd78K2bdtGa62EEEIIIQXTp8QSvBmc24FoArc+vg0dA9GMj4/EjMe7XUYLrwO9Qxg0x+8GsvSftZzbCHRdl5PNxIheMvoUJW4vu+wyLFy4EPfddx8+/OEP4y9/+QtOOeUUnHnmmdi7dy+uv/56zJw5c7TWSgghhBCCaCKJz/z6edzx1I6c21mZ28zO7Y8feQvfeeBN/PzfmY054dzONDskRBMpHOg14gZZYwnKlLK+wYTcR1Mlxe1YUVRB2XPPPYeHHnoIq1atwoknnoi7774bX/va1/Dxj398tNZHCCGEEGLjpd09eOiNVry+vw+fOH5e1u0GRObW74HPY7iv6oSyx7d0AAB2K0MXVETmtiroRX25Hx0DUezoCAPI3C0BsIRw31ACm1v7ARhtyLIVoJHSU5Rz29HRIYc0VFVVIRQK4ZhjjhmVhRFCCCGEZKIrbLQh7R2M59xOtAKrDHjgc9tbgXWFY9h0oA+ANUXMiXBdg163jBUIcZtNrIb8HjkN7bmdXQCAZuZtx5SinFtN09Df349AIABd16FpGgYHB9HX12fbrrKysqSLJIQQQggRCHE7EE0gkUzB487s1dlagXlEKzBD3G7Y1im3a88mbk3nNuhzoyroxcZ9vdjXkzuWAAAza8vQGY7h2R2GuGXedmwpStzquo7Fixfbfj788MNtP2uahmSy8OkfhBBCCCHF0G2KW8AQuNVlvozb9ZvdEsr9HnjdRiwhajq3T2/rkNu19UelhlERzm2Zzy2HMOhmm9xcMYNZNUG8sqcHL+7qBgA0U9yOKUWJ20cffXS01kEIIYQQUhBdEUvc9g3mELdqQZmjW8LTinMbS6TQN5hAlTmiVyCc24DXnSZQs7UCA4DZZlFZf9R4/mksJhtTihK3J5988mitgxBCCCGkIFTntm8oe+4284SyFPb3DGJHRxguDfB73BiMJ9HWP5QmbiMxy7l1RgsCnuyxBNExQUDndmwpqqDM5XLB7Xbn/OPxDGuiLyGEEEJIQXRFLEHbl6OoTBSUqRPKUjrwxn6jVmhxU4XsbpCpqGzIVlBmLwoL+nLFEuzilgMcxpailOif//znrPdt2LABP/rRj5BKFT75gxBCCCFTgz1dETz+Vjs+uHom/FkGIBSK6tzm6pgwYMYCKpVYAgB0m7GGyqAXHpeGt9oGMhaVRWRBmSeDc5tD3NbaxSyd27GlKHF71llnpd22efNmXH755bj//vvx0Y9+FN/4xjdKtjhCCCGETA6uf/BN/P3VA6gp8+GMQ6eNaF/dkeJjCV6lo4IQxCGzCwIAtPUPpT1ebQXWVBmAphVWUDa9OgiXZrjEAMXtWFNULEFl//79OP/883HooYcikUjg5Zdfxp133ok5c+aUcn2EEEIImQQIZ7Qzy6jbYrBlbgcTGbdJJFPSeS33e+BxaRDNEIQ4LvN50GgWe7X1pa9rUMnc+jwu1Jf75X25WoF53S4ZRagIeFDuZ2RzLCla3Pb29soxvK+//jrWr1+P+++/HytWrBiN9RFCCCFkEiCE4lB8ZPHFoXgS4ZjVcjSbcysiCYDRLUHTNOne9piZXaPFlyFYM2VuVecWsPerzTdxTGR52eN27ClK3H7ve9/D/Pnz8be//Q133303nn76aZx44omjtTZCCCGETBLCMUNsCsE4XHoidjGbraBMRBL8HpfM2/qFuB20xG2DFLfpsYSIuWZRPFaMuBUdEzidbOwpyie//PLLEQwGsXDhQtx555248847M273pz/9qSSLI4QQQsjkQDi3wxW329oH8J/tnVg5s9p2e99Q5liCmrcV+DwuIAr0CufW75HiNlNB2aDpMlvOrSVUc8USAGB+QwgAMLuW4nasKUrcnnvuuWnTOwghhBBC8iHyr4Ox4Ynba/76Op54qwOfOG6u7fZs3RJEG7CKgNW7VsYSBs3MrdeaPJYxlmA6t2XDcG4/erRRg/TeVTNybkdKT1Hi9o477hilZRBCCCFkMmNlbocnblv7jNjAo5vbbLdniyWIzG2acwslc+v3oLHScG77hxL4+C+fQf9QAn/4n2Ph87ikyxwQ4rZadW5zi9uqMi8uPGVhYS+OlJRhd0sghBBCCCmERDKFWNK4xD/cWIKIGezqjAAAKk3Rmq2gTGyvdirwuo2rz71KQVmF3wO/KXqfeKsDL+/pwbb2AWOtSrcEwOHc5phQRsYXvjOEEEIIGVUiiqAdbiyh35GtnVtvZFqztQLrMtuF1ZT55G0+c/BCf9SKG2iaJt1bwYHeQdtaReZ2tlkkVu73wOOmhJqosPEaIYQQQkaVSFQRt8NwbpMp3dbaCwDm1oXw6t7erM6tELe1IVXc2gVpmc+QQU0VAezpGpS37+8Zgq7rUpSLbglNlQHc8MHDbIKZTDwobgkhhBAyqoiWWsDwMrdOYQsAc+vKzH0nEU+mbBPIAKAzk7h124viQ6Zo/cxJ81H34l6kdODhN1pxoHcQ0URKTiMLKvnaDx05q+j1k7GFnjohhBBCRpWIEkUYzhCH/gzurOgjC2QuKusKG90P6sqzO7fCkX3HIc34+cePxOGzqwEAB3qGbPGJYJ7iMTKxoLglhBBCpiBX3/carr3/9TF5LjWKMJxYQqZcbUOFXxaLZep1mymW4HR3Q46xuNPNPrb7ewflOn1uF/O1Bxl8twghhJApRu9gHHdu2IVfPbXTFhkYLVTndjgFZZmc29qQz+qYkMG5zRxLcDi3DkdWdEM40Dsk1yzcXXLwQHFLCCGETDFUsTjc7gXFMDjCzK3olDBdacVVU+ZDZdAY0JCpqEw4t3UhqxNCekGZXbhON/vYHugdSuuUQA4eWFBGCCGETDHUAq3h9p0tBptzOxxxGzXE6/yGchw+pwZdAzFMrw6i0pw+5owtJJIpOaghl3PrjCU0VwWgaUAskcK+HqOfrlMAk4kPxS0hhBAyxRgYUp3U4gu8iiXsELe6rkPTtByPsCOc24qABzd/5Ah5e2XQkDHOEbzdEevnmjJr/K7q3Goa5PAGgdftQkO5H239UWxrDwPIP4mMTDwYSyCEEEKmGKpzO9xxuMWgxhJ0HYgmihPUqrhVkc6tI5YgIgnVZV5bMZhaUBbyeTIKbDFid1ubMaWMzu3BB8UtIYQQMsUYz1gCULygFgVjFQGv7XaRud3S2o9H32xDMmU0pu0024CpkQTA7txmKxQTud5tHeGc25GJC8UtIYQQMsVQYwljU1Bmf45iBXVfNufWFLd/enEf1t3xHP7fXzZC13WlmCy7uA1lEa3TzHZg203nlgVlBx/M3BJCCCFTjPF3bouNJRjObaXDuV3cVA4AcLs0pHQddz+7BzNryqQIdjq3aiwh6MssgaZXG85tv3mMljZXFLVWMv5Q3BJCCCFTjLHO3DrFbbFucbbM7RkrpuHPFwYxs6YM/3jtAK6673Xc8M/NeN/hMwAAtUobMMBeQJbPuQWAefUhfPaUBUWtlYw/jCUQQgghUwx7t4SxELf2Vl3FusXCuXVmbl0uDYfPrkFDhR/nHjsXR8+tBQA8/EYrgPRYgtdtFZBly9LOqjXErUsDvv/fK1GWxeElExe+Y4QQQsgUIxwb28xtsQVl3/77Gyj3e/HFtYsAWM5tZSC3bDlqXg2e3dklnem0gjJHt4RMHDqjCpeethgLG8txxOyanM9HJiYUt4QQQsgUo18tKBulPrdb2/px/q9fwOmHNKcXlOUQ1Pt7BnHbEzsAAJ89ZT78Hrds9eV0bp0cOacWwDb5c125s6DMcmuztfjSNA1fePuinM9DJjYTIpZw8803Y+7cuQgEAlizZg2effbZrNv+6U9/wpFHHonq6mqEQiGsWrUKd9111xiulhBCyFSkNxLHdx98E1ta+8d7KSNmtAvK+obi+MyvX8COjjDue3kfIvHCYwl7uwflv8WUMencBnN7ck6nNb2gzIollPnZBWGyMu7i9p577sGll16Kq6++Gi+++CJWrlyJ008/HW1tbRm3r62txZVXXokNGzbg1Vdfxbp167Bu3Tr885//HOOVE0IImUr8beN+/OyxbfjZY9vybzzBGe3M7eX/9yq2m31i2/qj8vmEW5pL3O7vscRtdySGRDIlYw35nNuqMq/soADk7nPLLO3kZdzF7Q9+8AOcf/75WLduHZYvX45bbrkFZWVluP322zNuf8opp+B973sfli1bhgULFuCLX/wiDjvsMDz55JNjvHJCCCFTCeEi9jlGvR6M2JzbEmduB6IJPLCxBYBRlJVM6dhnClYhNlVBreu67fH7FHHbFY7Z1urslpCJ1XNq5b/rHN0S1MwtJ49NXsZV3MZiMbzwwgtYu3atvM3lcmHt2rXYsGFD3sfruo7169dj8+bNOOmkkzJuE41G0dfXZ/tDCCGEFEvYFFlj0Rd2tBnNVmAtvUMADCEq2mrFk4aAFd0LhKB+q7Ufq7/1L/z0sa3y8c5YgogkBLwuW5/abBw5x4om1ITsTq/duaW4nayMq7jt6OhAMplEU1OT7fampia0tLRkfVxvby/Ky8vh8/nw7ne/Gz/+8Y9x2mmnZdz2uuuuQ1VVlfwza9askr4GQgghUwNxaXwsWmeNNqOZuW3tM8RtU2UAzeYoW4Hl3BpFbA+90YqucAzfe3AztrYZWWZnLKHQYjLBMQvq4HZpmFYVgN9jF7CMJUwNxj2WMBwqKirw8ssv47nnnsO3v/1tXHrppXjssccybnvFFVegt7dX/tmzZ8/YLpYQQsikwHJuR6e7wFih67p8LUDpxboQt80Zxa0RExCCWo0JXHv/G9B13RZL6A7H0DeYeYBDNmZUB/H7zxyDOz95dNp9XsYSpgTjetpSX18Pt9uN1tZW2+2tra1obm7O+jiXy4WFCxcCAFatWoVNmzbhuuuuwymnnJK2rd/vh9/vT7udEEIIKQbh3EYPcuc2mkjJmABQeue2RXFua8rsbqtozSUEtfrcT7zVgX9vace+btW5jWcdvZuLo+bWZrydzu3UYFydW5/Ph9WrV2P9+vXytlQqhfXr1+PYY48teD+pVArRaHQ0lkgIIYQAsAYfHOyxBDWSAJS+oKy1V4hbv825dbs0OYRBPKdTWN/97G7bbd2RWNbRu8OBBWVTg3GPJVx66aW47bbbcOedd2LTpk244IILEA6HsW7dOgDAueeeiyuuuEJuf9111+Hhhx/G9u3bsWnTJnz/+9/HXXfdhY997GPj9RIIIYRMAQ7WgrK93RG8+0dP4J7ndgOALZIAlD5m0dpnmE3NVQFZUAYAZV43gqZbKo6hOFFYNq0SAPDIm/Y2oD3DdG6zwYKyqcG4e/Jnn3022tvbcdVVV6GlpQWrVq3Cgw8+KIvMdu/eDZfL+jCGw2FceOGF2Lt3L4LBIJYuXYrf/OY3OPvss8frJRBCCJkChKNCkB1cmdunt3bi9f19+OWTO3D2UbNt08mA0scsRCyhsSKAhgorFhj0uRH02vvcCnF70qJ6bGntt8UlAKMV2Og5t+MugcgoMSHe2YsuuggXXXRRxvuchWLf+ta38K1vfWsMVkUIIYRYRGKWc6vrOjRNy/OIiYGIU2xpHUDvYDw9ljBaBWVVATRVWuI25Pcg4DXEpczcmvGE+nI/Vsyowit7egAADRV+tPdH0ROJoSsSAwBUBUfu3Hrp3E4Jxj2WQAghhBwMhJVsajRx8Li3EWXdL+3ultPCQgVMCyuWVEpHW78ZS6gMoKHcD5d5DhD0Ks5tzO6CB3xuHDu/Tu5nxXQjptAdiWN3ZwQAMKu2bMTrszm3HL87aaG4JYQQQgogojie0TGKJmzc24vNLf0j2odwnAHgxV3d0skVkYFSFpR1hKNIpnS4NKC+3AeP24XGCqOorMznRsAhqMXfQa8bx8y3OhwcMr0KANA3FMe29gEAwLz60IjXx24JUwOKW0IIISQPqZRuc27HoqgsHE3gQz9/Gh++dQNSKR3JlI7X9vUikSxOWIusMAC8sLtbZliFuI0mUkil7FnXG/75Jr74+5fSRuPmo80sJqsv98NjuqSiY4KauXW2Agt4XThqbi08ps17iOnc6jqw03Ru55ZA3FYGPPivw6bhfYfPQLmf4nayQnFLCCGE5MEpZseiHVjHQBRD8RS6I3FE4kn8esNO/NePn8SvntpZ1H5UZ/bl3T3oHTS6D9SXW3nYoYS1ja7ruPXx7bjv5f1SWBZKS6/V41Ywrcpybi1xawj0qOLchvwevGfVdNSFfDh6Xq2tgMzncWFapX0gxHDQNA0/+cgRuOnsVSPeF5m48LSFEEIIyUM4NrpFWJlQuxoMDCWwvT0MAHhpT3dR+1HXHo4l8eIu4/E2cRtPocyYr4B4UpddC7rCsaLiAOoAB0GzFLceBHPEEgDg+x9aCcAQoTVlPnkM5tSWweU6OAr4yPhD55YQQgjJQyQ69s5tn9nfFTAGL4guBzs6inNTI45M7SObjV6ylUEP/GYGtaV3CLc/uQPt/VGb09tjdioolDbZKcESzofPrgEALGoqz1pQ5jdv1zRNdqFQp5uVIpJApg50bgkhhJA8jLtzG03In3d2hItqRSYKylbOqsYre3ogYrRGay43ookUbntiO/780j609Udx3nFz5GO7I/FMu8yKdG4rLOf2zMOm4YjZ1ZhRHUTHgCGWRTs1p3OrUhPyyX/PrRt5pwQydaBzSwghhOQh7HBux6JbgjOWMBA1hOZgPCmngBWCcG4/fswcWyusCr9HispNB/oAGDlf1bntDhfn3Ip1NSljdzVNw8yaMmiaJmMJgFHINmQ+VzBDz9maMkXc0rklRUBxSwghhOTB6dyORSyhP0ssAQB2dIQL3o8QtzOqg3jnimZ5e8hvZWB3mYVjg7GkLcbQnSOWkEzpaZ0bMhWUqQSUVlyDsaQsZBPDHVSqlVjCvDqKW1I4FLeEEEJIHpyZ2/GIJQwoP+/sLELcmqI45HfjI2tmy9tdmoaAYxxuOJawCfdssYSheBKn3vgYzrr5KYTN/eu6jn09gwAMIZ0Jj9sl3eP+oYQsXMsYS6BzS4YJxS0hhBCSh3TndixiCYpzO2Qfm7uzCOdW9Oct83mwZl4tRFR32bRKBB2OaSTqcG6zxBJ2doaxuyuC1/f34Zq/vg4A6Bu03OVs4hawXNouxRUO5Mjc+j0uNJegDRiZOrCgjBBCCMmDOp0MGHvnNhxL2n7eXoS4HZTi1g1N0/Ds19Zid1cES5or0rKukXiioFjCATN+AAB/fGEvTlnSKFuG1YV8GTO0goqAF31DCbT3W7lhvyfda6s1nds5dWwDRoqDzi0hhBCSh3Bs7FuBqWK2KxxDNGG5xYU6t/FkCjEzFxsyx802VPixeo7RnssZB4hEk45YQmZx22qKW6E5f/nkdhlJmJ7DtQUghzO09Q/JNWTq/HDConqcvLgBnz15Qc79EeKEzi0hhBCSh7DDuY2OcZ9b0WJLsKsrglRKz+toqi5sJjfV7xC34ZjTuc2cuRXrOXx2DV7Y1Y23Wgewr9soSssVSQCAyoBRKCac20zFZABQFfTizk8enXNfhGSCzi0hhJAJTTKlj/cS0gYhjHUsQTilfo8LXreGWCKF/b2Defchetx63Rp8GS79pzm3saR8DGAMcdD19OMvuiIcO78ObpeG/mgCL+zuAQDMqCnUuY1mXAMhI4XilhBCyITlij9txJrvrC+632qpEc6tEIhjXVAmMq5VQS9m1xoDDXYWMKksohSTZSKTuFX73MaTuq2QTSCc21m1QTlg4fEt7QAKcG6DhnPbZvbEDeTI5xIyHChuCSGETFieeKsdHQNRvNnSP67rECKxzqzgH3Pn1hST5QEPZpnidl9PAeI2ahWTZcIZVUimdPQO2qMIPRmiCcK5ba4KYnFTBQDIxxWauW03M7cBD8UtKS0Ut4QQQiYsorgplkx3Su9+djfee/NT6BgofFrXcBGtwGpNcTvWBWUJM5pR4fdgmjn9S+1YkA2x7mziNlMLLufxzFRUJpzb5soAFjWW2+6bWWwsgc4tKTEUt4QQQkpGJJbANX99Hc9s7yzJ/sQl8lgiXdze89wevLynB89s7yrJc+VCxBLqyv0ARj+WEE+mMrrD5QEPmisN8djal1/cDhYZSwCATkcEpMvx81A8Kd3c5soAFpnOrSBfLKGiwIIyQoYLuyUQQggpGY9tbscdT+/E1rYBrJlfN6J96bqOIVPUZhK3ovApEkvPhJaasHl5v36MnFt1GplKud+D5ipDYJfCuXUOcQCAjgG7mHXGEkQkIeh1ozLowaImy7kNet22sbmZEN0ShBvNgjJSani6RAghpGSI3GV/hiKkYoknddkpIZZMF5MiBzsWEQEhoOvKx0bc9mcVt140VxnOaEsB4lYco5A/s5elxhLEWNx8sQQZSagKQNM0zKsPwW22JJtRE8zYs1ZFxBIyrYGQUkBxSwghpGQIMVWKPrDqZflMzq245D4WxV1iiENtyD8mzyl63ArBKagIFJe5FZPVsuVaxe0uzcrKihiCEKHOThWymMwciev3uDHH7JiQL5Kg7ldAcUtKDcUtIYSQkiHEVCYxWixDecStENKDsdFvyyVeV90YxRKEc9tkRhAERizBEJW9g3Fb265MCFEeylNQVl/uR4XZoku45dNNh9g5yEF1bgWLG43cbb4et4DVCkzAWAIpNRS3hBBCSkYkXrqogCrcog5xm0rp0j0dbRc1ldKlSLRiCaMrqEWP29qQ3+belgc8qPB7ZIbWObnMSb6CMuHWLmmuSBPA06sN8drljCWYzm1TpSVu37a0ES4NOG5B/px1pcO5ZbcEUmoobgkhhJQM4XA6xahge/tAxqEAmRhKKM6toxWYKmhH20VVn8vqljA2zm1lwINyRQxWBDzQNE26pgfyTCnLV1B2yPQq/OnC4/DDs1elbSNc2J4s4naa4tz+91Gz8Pq178R/HTY972sT3RIEgQyT0wgZCfxEEUIIKRnC4cwkbnd0hPG27/8bF/zmhYL2pTq3zliCOg4336X5kSIEoqYB1eYl9VKL2/6hOK57YBNe398rfwaMzgLlSjGY+LcQlvmKygbzFJQBwBGza1BX7k9zd6eJWEI4cyxBdW6Bwh3YtMwtnVtSYihuCSGElIzBHB0MtrUNAAC2t4cL21eOzK0qaEc7liCmfIV8VhxgMJ6Erut5H7ultV8K1lzc/8oB/Pzx7fjx+q0ALOe2IuCxCVMhDEWv23yxBHGyUUiu1enciklou7si6FVyt6I/bVOlPQ9cKEGvGx6XZvuZkFJCcUsIIQcpfUNx/PH5PWnjUscT4XImUjoSjiiBWGfBsYQc4jYSt/Yx2uJWvbTvN4VYSjdaleUimkjiAz97Gh+6ZUNep3dXlyH4na3UKsyMraDcbzjHotdtfufW2E/IX4i4tTuqq+fUYFFjOQaiCdz0ry3ydtHJwVkYViiaptncW3ZLIKWG4pYQQg5Sfv30Tnzl3lfx66d3DuvxQ/EkntvZlSZCR4JwOYH0nKwqbgtxPdUuCM59qbGE0c6/igEOIb/H5jKqmeBMbGsLo38ogUgsmXGErcr+HkOkioI8EUuoCHhtmVsRSxC9bkU7sEgsgbs27EybWibWHsxSUKbiFMDlfg+uPvMQAMBd/9mFLa390HVdTmsrzxF1yIeau6VzS0oNxe0UJpnS8cKurjFpgE4IKT3ikrRzXGqh/OyxbfjQLRvwxxf2lmxNqqPq7CggxG0ypRfUbSCncxsd+8xtmc8Nr1uDuKI+lOd5t7T2W/vI41bv644AsJzWvjyxhGmV9szt757Zja/f9zp++K+3bPsVwyeytQJTcWZmg143TlhUj9MPaUIypeOXT+zAUDwFs1NYzhxvPiqDqnNLKUJKCz9RU5j7Xt6HD/xsA256eEv+jQkhEw4h8JyuZqFs7zAuhe/sKCwDW8yaAOOyvIoan+iP5o9S5MrcqiN3xyxz6zc6FYjL6PkEuipuB6K51yicW+G0WpnbzAVloluCOMF5cXc3AGCvKZLl2vO0AlMJKdt4XBp8ZheDty9rAgC09g/ZIiVlI3BcK/yWc8tYAik1FLdTmJf39AAwKpgJIQcfwlGMD3NgghCbfVlGvY5kTUC6+BNZTQAYKOA5Vec2mqMVWDHitq1/CKlU/kiEStjhforL6Pme1yZuc7zeeDKF1v4h2z6tWIIH5UpcIOQQtx0DUcQSKby61yhaE8VeAkvcFufcqv8WfWkHhhLSgQ753HC5co/ZzYWauWUsgZQaitspjBC16hcOIeTgQbh88WE6t7J4qYS/AyKx7M5tn+LcFlJUVmgrsHzxAMELu7px9LfX4xt/e6Og7eVzmWstM4Wl5dzanzfpEM2bbc5t9tfb0jsEEUEWjrTaLUEUkfk9Lumm1pb5UO73QNeBp7Z1YG+30e+2Y8ApbgsvKFOdW1UMi+fvH0rI1zGSSAJgz9zSuSWlhuJ2CiPa8fQNls61IaQUxJOpvBlFoji3ear2s9FXZPeCfOi6bhe3WTK3QGHOreqMOgV8ZBitwN440AcABbXmUnGOsBUZUfV5d3aEserah3D1fa+Z60tgT5c1YCHX53lfj7XdUDyFZEqXx6dSKShTBaHLpeHERfUAgB+tt3K2XeGYTWTLVmAFxBLKFAGsuqnCZR2IWuK2PDAycatmbjmhjJQaitspylA8KX+h0rklE42P3vYMTvjuIyUTXROBWCJlEzGlQGRBs00Dy4fl3JbmOEcTKZuwcjqbqrjNFIX4z/ZObGsfUB6vdEtIKygrPnMrHOpiT+iFMBW51UzO7dPbOtEfTeDODbvwz9db8FbrgH0f5olIpkjEfsfnYjCetC7/+61YgnP4walLGwEAL+3ukbeldKAzbLi3iWRKHrdCCsrUDK0qhoWQ7RuKl6RTAsBuCWR0obidouzstHK2fROoR2ap+cUT23HqjY/l7QVJJhav7utBdySOPV2R/BsfJFzyh5dx/PWP2HKYI0WI/+HEEnRdL3kswdm1wCm6e3PEElp6h3DObf/B+Xc+b+0vZ59btRVYqqAcrRDxxZ7QC5e4PC2WkFK2sV7PlX/eiGd2dKY999NbO3DYtQ/h/xzdKfZ128VtJJrAgBInELEAZ7Tg1CWNGdfb0W90z1CPUSHuqBo1UGMJmZzbUAFOcC4qFaHuZ7cEUmL4iZqi7FAmBPVHE0UXWBwsPLDxAHZ0hPH8rq7xXgopkJTSJkoVDAc7W00nz+nojYRIbPjiNhxLSpe1VM5t2PF+5RS3DoF5oHcQug7s7R6UPXBtrcCcBWV5hHQmLOe2OHErnVu/vaBMXZ+6z46BGK77x5tp+3hqWwcGogk8tqXddt/+Xru47QzHZAa3wu/FUXNrsKAhhLNWzrBt11Dhx8qZVfJnUd8lcrfC2fe4NPjc+b/ubQVlaizBFNe6DrT1Gfseaea2ks4tGUUobqco25UOCboO6RJMNkQWsZCemmRioDbGD+dpn3QwIVzIUsaARJ5yOOLW1parROI24hCctm4HiaTt/6HTuQ0rbc2EUM1dUGZ/fCHRBJFjDceSRQ2uiMjMrXBuja9O9fWJ47l2WROaKwNSnNaX+4znjCbkNp2Ooq+9Due2zex44NKM52qsDGD9l07B+SfNT1vb25Yabbo0DVg1qxqA1THhTy8ZDvG06gA0LX9nA9WNVYVuwOuS43LF0IjyAgrUcsEJZWQ0obidojhnu0/WaIL40uegioMHVdBMpqIyZ4unkRJX8pRO4VcIvRF7RMBZ6T8cnOJWdVOdOdd+x3uril3x+yh3n1v7cxUiblURX4ygV4c4AFYe1bZmc39Hz6vB/Z8/AccvrEO534PTD2k2t02iJyLErX3ohjNz22b2rhV9dXNxxqHN8LldOGpuLebWhQAYzu3e7ogsNLtk7eKCXqdaUKbGEjRNk7nbVmVtI0Fkbj0uDd4CXGVCimFkn05y0LKjw35ptG8wAdSM02JGEYrbgw9VpIRHefLUWCLaVZWqO4l9zG3xwrTXcUI7EE2gKujNsnWha7K/tkzOpny+IadzaxeKjZVO5zd3LKGQKWWqoO0biqMm5Mv7GHVtQtA1VvgBwDbqVry+qqAXDRV+/PbTxyCeTOH3z+0BAAxE41KQi4IvwMg+iwEOQa8bg/Ek2k1nt6IAAbmoqQIPXXISqsu8+Olj2wAYzu23/74JQ/EUjp5Xi/cdPiPPXgzUgjJnX9yKgAc9kTgOmBGKkXZLEM4tIwlkNODp0hRF9LgVGa3J2jFBxBKGW01Oxh5VpEymzG2pYwlqvnWksQSgNI6y82RE/X+XSUxn+1kco1yZW2e+t5ATWPXYF3OSISITQvDNqA4CsLfwUsWtwOt2ycv34WhSbqO26+qOxOVnY36D4bwWm2udWx9CdZkPDeWG6N7fO4h/bWoFAFx95vKCIgkA4HFbfXSdUQFR1CaKc8tHWFA2tz6ECr8Hy6ZVjmg/hGSC4nYK0h2Oodu8PLaosQLA5I0lJOjcIp5M4ZJ7XsY9z+0e76UUhOrcjnYrsFRKx2Ob29AVjuXfeATEkykkSly8FRmxuLW/5lKsy3kyog5xcP6OcTq3xcYS0pzbImMJxZxkiNcluiXMqBHiNt25rXS430IUDkQTMpaQ0oHuiHH8hVisC/lQXWZsKzKzxbqj9RWGE/30tk7EkzpqyrxYXqR4FAI+k3MLAK39pSkoqwp68eTlb8NvPr1mRPshJBMUt1OQ3WZ7paZKP5rMEY6lHL85kYgl06uupxqv7u3Fn1/ah588unW8l1IQNud2lAvK/v1WOz7xq+fwjftfH9XnGcxSVT8SBpRjM5zxu+nObSnErbOgTMncOsSkM3PrjCUARWZuC4olqM5t4e+DcKRFn1vp3Hbndm4Bq33XgFJQBli5WyFy68p9cv9t/aJoqzgB2VBu/D4XIvrQmdUFu7ZyveYayhzOrIhICMd5pH1uAeNYCaeYkFLCT9UUpMf8BVsb8stfxJPVubUyt1M3liBEw8HSeSBiy9yO7kmXcM2c1eqlRh0PWzLnVhGDzkv2hTAqsYRodudWPJ8YJpArcyvWMhhThjhkmVDmNrNV+ZxbXddt7nAh74O48hORmVt7LKFjICpPnLOJWyEC+4fiNoEvOiaIqwY1ZT7plgrntthessK5FRw2oyrLltkpk1PYMju3gpE6t4SMJhS3UxDxxVER8MhG2pM1cztesQRd19E9ype6C0V86Y9XfnUonsT3H9qMl/f0FLb9GHZLEJ+L0Y4/2JzbkmVus7uahTAazm1a71nlpFJ0ZxCX9Pujzgyu6m4nzMdbtyVTuq2jgzimNWWGoMv3fzwcS0JtCJHvffjBQ5ux8tqHsLmlP825rS7zShG4v2cQQ/GkfA+csQQhAtv7o7I9GAB0hO3ObW0oXdwWG0sQmVvBoTOHL26dsQTnWkZaUEbIaEJxOwURXxyVAY/8RVyqCu6JhuxzO8YFZd99cDMO/+bDeHprx5g+bybEl36uKU67OsM45YZHcdd/dtlu13VdNtQfLo9vacePH9mK7z+0uaDtx7Jbgih4GktxW7KBCcqa48PqluBozTUqBWXpzq1wPXN3S0jP3AJ2ES+2F31kI7Ek7vrPLryQZWCL8/Xlu1q1/s02hGNJPPGWNXBBOLeapsnXsb9nSL42l5ZeaCUu5zv/66U5tyEfgl5jW3Eci730X1Pmk042ABw2DHFbbZ4sVDtEujou11gbuxyQiQvF7RTEcm69ckrMZHRudV1HPDX2zm0imcIt/zZa8jjF4nigumnqgASVZ7Z3YWdnBP/YeEDelkrpeP/PnsZ//3zDiASuEI49kcI+Y6qgcbaWKjXCWRxth1h9D0oVASpVtwTRnN+Zu2/vj+LGf27G3u7CRyCLqwNiyIHNuR20O7cD0YTtc6W+nv6huK0ITyDEbTKlyxOTWrOd13M7uvD1v7yGy/5vY8a1OU8q8tUZiMjKrk7j9WuavW3VdNkxISLf08qgFy6XPeOa7fK9zNya4ra2zJc2XrdYcetyaagzj0d9uR/NlYGiHg8AX37HEnzhbQtx6lL7aF/nWhhLIBMZitspiPglXxHwoDJoxhImYeY2mdLlZcCxFLfP7rCco3n1oTF73mxEbK21Mh8HIXrV49QRjuKl3T14bmf3iBzUhOkqFpqftQ9xGN33Tbzu0X4eWweIWGnGXavFdomUXvQ+hdicVm0IIKf4u2vDTvzk0a24/cmdha/JfO9qTffPNsTBPIEWojCe1G3327slJDJmaKNJ4zb1PiFuN7f2AwBae4fSHgcU59wOxZPoNEWnKMAN+ewDFWTHhO7BrHlbwLi8n6mmS/S67TJP+mpCPttUMGB4ArLejCasnFlVdDEZYEQZLn3HkrTMbaUzczvCVmCEjCYUt1MQe+Z2Yjm3vZE4TvzeI/j6X14b8b7US7XRMSwo+5vifk6E/rqqEMhWUS5E7aBynNT2WIVUomcjJotyCtuHTdyOck5YfC6Mka+jJ3DVkwZdT+8UMBycx6bYojIh7mZWlwFIF3/bzF7Y6sCBfAjnVgxHyDTEQVzOB+yC1hlLENlrlwZZUS+cW/E8mmZlbnea6+2PJjJmkJ1Oba7feepwBiFunRlU8Tr29uQWt5qmZRSC7f0O5zbktQ1RAIZ36b/BHDAxnLxtLtJjCRS3ZOJCcTsFsZxb74TL3L6wuwt7ugZx13924Y39fSPal4gkANkvx5eaRDKFB19rkT9PhCEEqsDI6tzG0+MbqrgdifMtivoKdm4LWG+pUD8Xo+neqlX/wOh0Jig2miAE2UxR4OUQf3tMUVdUyyzzGAo31T7Ewdh/dZkvY8eEAcdoXPGZDHrd8Lvt4lacAAW9bik61asLPZH0Ys60WEKO33n7lf61IpbhdFGtzG1ucQvYhaCIgUjn1tYtYeRFWx9cPRPLp1XirFWFTSUrFMYSyMEExe0UpE+NJUywbgnqZbSfmbnV4aL2/hyrWMJ/tnfZROFoi7NCUJ3QbO2SpHOrbNsdtj4ThTTIz4bITUZiyYKyu/mGODz42gFce//rtsr54aI6+s4Cp1LiPH6lOJl0RkWKKSrTdV0Rt4Zz6zzWwrF0dlXIhfj8ZOpg0KcIQCHa1Od0DnEQxyzoc1vOrThRUiaGOS+fA0BXRnEbl48Bcv/Oa+mzWsOJ45rm3NZYU8qyDXAQqFnaOXXG8Xb2ua0N+VDmcGqHc+n/zJXT8cAXTyx5JEptBebzuNiflkxo+Omcgohf8pU253ZiiFtVkP791f3yUuOw9qV82Rfa5zYcTeA7D2wquG2VE5H7s/ZntZoazcveuYjYnNDMokocn0Gbc2tdji5FLEEtAsqFfYhD+nq/9+Bm/OqpnXhpd/ew1yRQndvR7JjgFLelcG6dx6YY5zYcS8qTA8u5tdbUOxiXBYDiZLiQzhnCnc/s3CriVvZ+tfativW+IUvcBrzutFjCYNx4XJnPk5ZTBZBx4px4LuG45vqddyBDbtcpNMV+DvQMyYmPlYH8zu2ChnIAufvcZnrceKO6yBNpXYRkguJ2CmIrKDN/GfdHS1PkMlJUQZrSgbtHMDJW/bIv1Ll9+I1W3Pr4dvxo/VvDes4h+YVs/NeKxBIYiidxyg2P4r03Pz2sfY4UtW9s1sxtIr1Qp6tUzq3ynhbiZNtiCfFk2udSOF2Fdl/Ihercjma+d8jxuksxEXDAEaMoptetEJpet4bGSiOjqV62F5EEwBKBn77zebzjpsdznqRFHM6t2DaRTMmTh8qAR+Y3xW3RRMrmxPcNJmzRg/TMreXcBjM4t+pVB4EQ78JxzfUeHOjJIG4drmpTZQBul4ZESsfWNuOkNlssQb2Ev6DRELfhWBJd4Zg8AVBbgQkmUi9ZVbg7jwUhEw2K2ymIaJ5eEfDKS026blRxjzdO96m9r/Billz7KlTcigrp4TrZ4nlEtXgklsSB3iF0DMSw6UDfsFo2jZRCMqxi3TFFZHQrl3ZHIm7V11xIyy1VgOu6/bl1XZcizDkEoFB0XZciSRVqYxlLKIlzO4KCMpFJrQp6pdDMKm6H4kgkU1j/ZhveahvA7s7srcEi0rk19imuCKhC0nhOEUuIm3/bX8tgPClvC3jd8Lkzi9tgFnHbFYlhKJ7E6/t7pdvsdG4HogmZB3eSybktc7iVbpfV6/bFXT3ytWVCdTpnVAelWN/aNgAA8LldCPncac7tRMq1qq+BnRLIRIfidgoifslXBjwIeN3wm79oJ0I0wfkFPZJuA2qPzEKHOIhjMFwxJ0RindmOJxJL2ITMaAqobBTSLUF1MMVrsBWUjSCWEB+BcwvYHdWhuNX7dLjDEM7/9Qs47vpH0D8Ut2duxzCWUIr/a+mZ2+Kd20pFaKoZ1N2KuB2Kp9Dab51kZrrkLxAdMWpCdudWiOmKgAcet0sKpVf29OLWx7fJ+/1KjrOt3xCYqnMbTdoLysp8bgQyxBK6wzF854FNePePnsQjb7YBUMRtTeZuDSoHetPHMYcyPM/hs6sBAC1md4VCxG11mRf15vHZYsaYakJeo6uCwxGtmEjilrEEchBBcTvFUJ0v4dhMpI4Jzi/okRSCqZdpY4ns07lUsk1GKhTxOJE5DEeTNkE7HoV7kSIKytRtbK3ASuXcFnB1wCnA1RZi6onCcMXtf7Z3omMgih0dYbtzO5riNuZ0bjM/1xNvteMPz+0paJ9p3RIShceK1OKuCqW4S/wfUcUtAOxSsu/ZxK2RmzWdW0efW5FJrS4zftcIcXTH0zvxnQfexB+e3wvA+F0k7ms1r9oEfOmxBPE8Qa8ns3MbjuHVvb0AgB2iRZj52akp88nHiN95e7oitmEVYoCDcIwBpHUyAIAj59bafi4kllAd9MmTX+HcihhH0PEcE8m59bpdMm41kdZFSCYobqcYg3GrkER8qU2kjglxh8M6khZeTqFciAssvuyG61SKy7BC3A7Gk7aepuNxAlFQKzDlOGdybkeWubWOeyG9bp3PZauiH+GJgpr9jMSStkLD0ZxS5jxJy7b2S//wCr76f69iX0+6c+jEWVAWSxb+HqnFXSJLqeuWaHSK251KFKEzi7iNJlJyxKyzz23voPGY6qBxu1McbTSFaLnfI38vtUvn1pUWSxAnCyF/lsxtJCaPofjM2LrEBK3feQPRBN7zkyfxvp8+jVgiZRvgsGxahdxnppzp0cMQt1VBr+xF++reHgDW7wu1z62mpXdoGG+EITKRssCEZILidoohxJXbpclfnBOpY4K4hC2+sEYyfME5urMQF1iIjshIYwnSuU3YXLrxOIGwtQLL4pzaRvSar8GWuc0h9qOJ3C2+4sr7UJBz6zj2qiAfqXOrCuXBWHLsnFvzNQnnMttJjrg8353j0r9AxBLEtNdYEc6tcFJrynzwe1zwuo2diGOaLm4t5zbb2tT3Se2WoOu6LP4Trz/l+LyILiMhv1uKbenc5iso86V/jR3oHUK7GaUQV07Eayv3K8NrBuN4bkcXuiNxtPdH0do3JAc4BLwuWfxlrC1d0C1qLLdN7sombtU2WtVlXhxmDlh4yezKIk4G1M4P5Y6JaBMBEZMoZ+aWTHAobqcYQhyU+61fnOIXfTH9LEcLMXhBfBmMyLkdhgssM7fDdm7NWEK59eWuHtfxOIEorKDMOlaDMUOQdBYwxGFPVwTHX/8oLvzti1mfX30fChlqIY69+F5XBbEqaIcjbtXHOJ3bYvPQvZF4wR0KxGtqqjBH3WYohosnU/LkrpBssjiWQlBly9z+5aV9eOcPH8e29gF5myo2NU2zteZKJFPY1224njWmGN2hxBKyObdCFFYGrPZcum7k6K1YgvH/4qxV09FY4cdJixsAWFcJQj7LVRX7Cyp1ASKTLy7nh3weW5/bRtMR3aQMgBG/86zJjEoLxKE4ntraIbc90Dski8mmVQXRYMYHxHM5cbk0WzRBrN2JmtetDHpxlPkYofFFjMPvccFtnq1MxEv/4vfyRFwbISoUt5OUvqE4Pn3nc/jrK/sdt1uX5gQVGRqqjxciNyguexXanzYTzuK0QvYljk+0wIyuExlLML+sAKswxtj/+Dq32RxpVfgPxpOIxJI24ZYtlvCZu15Ax0AU/1CmsjlRHfRCpoANZnC/BXZxW/yxVE80IjF77+FiWoF1DkRxzHXr8a7/fRwdA+kdPX74ry347TO75M/iNYm2W5mcW/UEIt9aoomkFMIir5lN3N797G682dKPR83CKsByiMVjrY4JcRzoHUIipcPndmFRk3FZfldn/szt5hbDfV3SXGErDIsmUuiNiFiC8Tyr59Ti2SvX4vNvW2jbhxFLMLZp68/s3D6+pV3+Xjt9RbMtlrBsWqXxOjIMh1ALaWUUazCBp7d1ym0P9A7KYrLmygDqyq3/x9kiAkcp4jZfLMGlGe7nqlnVUsQClnOraZqMJkzES/9iTcMZC0zIWEJxe5CRTOkFXV7/z7ZO/GtTG25/coftdtW9EAjXZjQzh4UivqDF+kYy+CCRLD6WoAqm4eRMxXNUBb3yy6tNaWc2Hplb9XVkyxKr8Y/BeDJNwGRyEl/b14tNByyHLFs0QT3JKMa5rQuZHSdKWFDW53h/1ROeXPtzTkPb0jqAwXgS29rD+MSvnrWtq7VvCD/811u4+r7X5edXfC4ahXObQZgX0tVCoB6TqrLczq2IFLQrHQ+cMQHxO2AgmsAes7BqZk1QOre7lMxtd4bpXwDwpiJufW6XdN6j8RR6Bu3PJxCttATlivAU6w36rFZg3ZEYLv+/VwEA5x07B0fNrbVdyhfiVqV/KAFd16XIVZ3bHZ1hvKF8hm3ObXUA9apzm8WtPGpujfx3RZ4hDlVBL1wuDSG/B4dMt9ZaqxwX8Xomojta4TfWORHXRogKxe1Bxsd+8QyOv/6RvEJUfFE6BV1/BudW/KLqn0DitrIEzu1wOi+osYHhiFs5Vcnnlg6MuLwKlKa/qZPucCyrI6zrelF9bgFDWDkFTKZjd8M/N9t+zlawl7D1uc19TFPKFDPhmmWPJRR/LJ2xBJtzm+Xz/8ibrVhx9T/x55f2yts6leltr+3rw00PW0M/xGcokdKxp8twAdOc2wxCeihWeHGbOCZ+j8vKp2c4/uFoQmZX2xRxK97f6jJ71nMonpLHqLrMKjZT9y3GxjrZ3GKIxCXNldA0Tbq3Q/GkFNNOZ7OpMgCP4mCG/J60EbZqK7BH32zD/t4hTK8K4LJ3LZX3C9QCMEF/NJFWSDunzhhN+4snttu2PdAziF0dQtyX2cRtNud25axqnLioHh9cPdPmxqoI0VutXNE5co7l+ArnVn2eieiOnrVqOpY2V+DUpY3jvRRCcjIhxO3NN9+MuXPnIhAIYM2aNXj22WezbnvbbbfhxBNPRE1NDWpqarB27dqc2082Xtzdjc5wLK3gw4lw4rKJ28oJ6twKl0+sKZcg3do2gG///Q15WXj9plZbfi6eVlCWWyinUrpN4A8ndysnlHncck68Km5LMZnK+Xxv/8G/ccb/PpGxIb1R0GP9nDWWoLq7SrW4wHksdF3H09s6bLdli7XYJ5QVdlIGQAoLeyxhhM6tI/+sfkSyCe/1m9owGE/iHxut6IVwtoWWEVXvgL3/rBgfbWVuxTSwPM5tnhMrsdaQ3wOv6WrGk+nOuZqVVeMxPbKgzPg9IATiUDwpPwtBnztNaAL5YwlLmw2B6fdYorvbEYMQuF0amqsC8me1W4JAHXqw18wCHzqzSrbmUjO3CxvLZXGcoH8oLj8ropD2/BPnYV59SB4z8fvmQO+QPGYLGkK2WEK23q5etwt3fWoNbvzQyoz3A8CRc2vwjuVN+J+T5svbVMe31iZuxaX/ieeOvuvQaXjw4pOwuCn9JIKQicS4i9t77rkHl156Ka6++mq8+OKLWLlyJU4//XS0tbVl3P6xxx7DOeecg0cffRQbNmzArFmz8I53vAP79u0b45WPPYlkSjoo+YSocKScbo74Uq3M0JC7kDzkaGPFEow15Wrf9dNHt+K2J3bgzy/uQ99QHP9z1wv4zK+fl1nZYgvKBmIJmxAcTo9dIaADXpcsQLHHEkrr3Lb0DqErHMPe7kG8rhTRWOuxv4Zs3RKGHPlaZ0W8U2zFlOInQbaCrJitz23uY6o+j+wVrDymr4QFZd2O8b3ZrlyIS/Kioh+w3MtDphtV7+rJptqiSwgl8blorDSEXKZ4ivra8/1fFM5tyO9WxG36/xW1y4EtluBozSUE4mA8qYy99dhOggVdkVhaBKU3Esd+83K+ED6iJ2o0kZRZZ2csAbBHE0I+e9/a4xbU4axV0+FzG7eJky7VUfV7XKgN+eDzuDCzpixNQA8MJeTzVwSMQtqKgBc/+9gRco3/ddg0AMYwhu0dRrHa/PpyW0FZpj63hRLwunHruUfiw0fPlretVsStuuayCRxLIORgYdzF7Q9+8AOcf/75WLduHZYvX45bbrkFZWVluP322zNu/9vf/hYXXnghVq1ahaVLl+IXv/gFUqkU1q9fP8YrH3tU1y1f8ddQHuc2YyxhHKZnOZEFZWa2K9fwhR3mF3d3JIaugRgSKR3hWFKKhLQ+t3nEqlN4FlKx7kR1vcSlXluf2xLHEtTL4//Z3pl2v/M1ZHpN8WTKlikdjFmZW5GbHHS43mrmUwiNgpzbfHEaKazc8jMayVJQNhBNpGVh86Eef6eAz3bCKATi7q6IdJ7F8RETqtr6o3LtqhgXn1HxmWwyYwmxZCrNxbZHQ3IfJ3H8Qz6PvPyfSdzuaFedW+Ozout62lAF8VmNKP9/DOc2XWDFEqm0kxQh/GdUB2X0QDi3Q/FUWsZXRZ0YFvK7Mau2TP7843MOh8ftks6tQBW3mqbhd+evwT2fOQZVQa/NBQWMz4x4v9T7ljZX4q5PrcGVZyzDR9fMAQBsaxtAh3niMq8hhNqQT/4fKHXP2caKAE5cVI9pVQHMbwjJ24MylkBxS8hwGVdxG4vF8MILL2Dt2rXyNpfLhbVr12LDhg0F7SMSiSAej6O2tjbj/dFoFH19fbY/ByuqoMjn7FiFLJmdW7XwQTQnnwixBPEFrVYKZ3NvRZ6xfyhh718qxG2RsQSnmzaSgrKAx52xdVCpC8rU/OOGDOLW+RoyvaY0d1cpKBPOlbMQTRzvgNeFqmDuk6P4MJzboM8tnbKBLAVl6joKRT3+zlxxpn1FE0nsN4cB6LpRSAZY4nZefUheBRGFWKpodcYSGsoDUuA+9Hqr7bkKyUZbazWOgxFLMNRXprZkOxTnticSRzRhFNGJbYXYLFNiCRF5guHKWv3f5cjdWnlb63K16tyKY10VtAtPAJipOLflfg/euaIZ337fCjx1+dvkJK80cVvht/28tLkSh882nFCnczsYT8rokvO+o+bW4vyT5mN6teGoi89nU6Uf5X5jVPDZR87CcQvqbKK7VPz6k0fj8a+eanOFyyhuCRkx4ypuOzo6kEwm0dTUZLu9qakJLS3ZWwupXHbZZZg+fbpNIKtcd911qKqqkn9mzZo14nWPF2phTT4hKoScs8F+JudW/LuYVkijhRCklTZxm/5FH4kl5BfWgGNQghASabGEfM6tQzgNS9wmRCzBytzmeo6RomZjn9vRlebeObOymXLETtE/FLfEyHRTeGQbrBDyeVBunihl+0yqJxl5M7eKcytOuiJZCsqMn4s7nur2hYjbvd2DtlyuEHHCMa8r92N2nSF6dpvxBfXEc0dH2FbUF/S5pUv4q6d3Gusw30P1BCLfSUBX2BrCIGIJztZ34vlVOgZi8nV7XFZ/W+EWDsaUzK3XnRZLEGK3y3Hs1E4JAuHcRqJJ+b7VZHBup6uxBL8Hfo9xjNS4gt8hbtW4gBPhzqrZWxEbcYpb9TGqgJ5Xbzmp13/gMPzu/GOyFouNBE3T5PsnEMc824kFISQ/4x5LGAnXX389fv/73+PPf/4zAoFAxm2uuOIK9Pb2yj979hQ2t30iojq3+RwrIQhTur3QxOpzqzi30iEbvrjNNaGqGOKKOBRV1JkcV1FYAoiCkfQuB8V2S3DGEootKFMv7we97oyXMUudue1UeqyGY0ls3Ndru9/5mjM5gum5XMu5FZeMneLWynx65NSi7LGEwrslqCJQfC5VoeccflBslMYWSzAvlfuVHqpO93OnQxwKEScc87qQD7NNR29XV7pze6B3SF6SF6/rI2tmw+d24ZU9Pfj4L5/B4d98GL98coejFVju1yUEam3IC6+IJWSYUOYUt219Q7ZOCWKQS8bMrc/eucDncWFWrfF56Arbe/s6i8kA67iqXRoyCTY1lpCtt6vPIQAbKjKLVON1Gc8xs6ZMrmGP+d7UhjILRk3TME0pbJvfUJ5xu7Fg3fHz8OGjZuG9h88YtzUQcrAzruK2vr4ebrcbra32y3Otra1obm7O+dgbb7wR119/PR566CEcdthhWbfz+/2orKy0/TlYiRTh3KqX8lXn04olpGdui53QJLj50a044psP2yYgDRchSH1ul62VkJM9SgGPM5YgBJxz/G6u4jSxH5Vixa0qTvxeV8YClFLnmp1dDZy5W3EshKjI9JqczrhRUGZ8ToR75nycONEq87mt6VbZnNsi+twOKq6hdG6zZG4z/ZwPNZYgBhnUKTlM5/+rnaYbK060hIhTM5yzaw2Xb48Ut/ZjJQQxAAQ8LtSX+3HmyukAgCfeMjpObNzbYy8oy+vcmt0HQj4p/JzHuSsck8J6iVnk1dYfRW+G/GtQFbeqc6tkbmvLfKg1ew8724FtNf/vL2pUYwn2biEV5mV+JzMcsYRM5MrcOhHO7cyaoDyJl85tKLsotolbxbkda5ZPr8T1HzgMTZWZDRtCSH7GVdz6fD6sXr3aVgwmisOOPfbYrI/73ve+h29+85t48MEHceSRR47FUicE6pfmQB6RYG/tZH3p5ZpQNtzM7YOvtaA7EscLu7qH9XgVcWnV69Hkl2MmUeoUt5liCU4XLm/mdoSxBHHMNc1wrUIZnNv+YRRB5UKIjJmm+/XM9i7b/c5pX7FkKq1lmPO4DMaT8rL7dPML33mCIU4mQn5P3pMjtaAsr3NriyWkO8LifRZ5zqJjCYrzK65oGJfCXWnPBViTuY6ZXwfAEKqplC7dT9W5FQLKGe8Rgy58bpcUd585aT5CPuvqxEA0aTuByHdiJaIMdcrldCFu2/qHcNS3/oV33PRvAMakLRGdaO+PSse6xjY4wDyRjKnOrT1zWxPyyWEDaqSjdzAuRfScOiuXKo6pELdVGSIJgCOWkKUjQTHiVkQjDptZJX+35YslAMa4XcGCcXRuCSEjZ9xjCZdeeiluu+023Hnnndi0aRMuuOAChMNhrFu3DgBw7rnn4oorrpDbf/e738XXv/513H777Zg7dy5aWlrQ0tKCgYGRu4YTnWIyt6ogVIVJ5oIy6/LvcEbOii+vUriS4gvam8e53d1lxRIGos6CMuPfiVRxrcCcxV7FtgITvYX9Hhc0TUMwyxf1cB3yZErHo2+2SccRsLKfQnyJ0aEC8RrUKnGnaHe+zmg8JQVQ9syt8RrKfG5lfHNmoVnMhDIhrAJKQZk4qdN1XX5+p5tCZCTOrcDvdWUdQS2c27XLGqFphmO6tX1A5nBr1FiCKYQjDgEvxK0Q5IAhwJ6+4u244UPGVadwNGF7H/IdJ+HYG5lbQyCL//ObDvQjHEtaVf/1ITSaBVht/VGrDZgi9LI6t8rvibqQ5dy+tLsH597+LB7f0i5PNOvLfbb2VX7z9baYvx+yCcuA142VM6tQ4fdgZm0w4zZqLEE98cnEuw+dhocuOQkXr10s39f9PcYaanOKW8spnTeOzi0hZOSMeznm2Wefjfb2dlx11VVoaWnBqlWr8OCDD8ois927d8Plsn6x/exnP0MsFsMHP/hB236uvvpqXHPNNWO59DFH/dJ0foE6UcepqkJXna8uUC8FhmOJrCMkM5FIpmRhVymmbwk3zeNySec2Yyyh23JuB6IJm+sqxJCzD2uxBWXFtgJTRQEAm3NbEfAgnkxhKJ5C31A8q4uVi4ffaMFnf/Mi/vvImfjeB42G8cK5XdhoOE2i0EiuyXwN1WVeaJpR8T8YS9reY6dzOxBNSAGtZm51XZcZTXHZvNzvsUa3FuLcFtgtoUyJJQjBGU1YvXWnVwexvSM8ooIyQcBjiKWOgVjaSaMQrEunVWJuXQg7OsJyUEhV0Auv2yXF7Z7uQaRSujwJLfd7MBBNYJNZhBZ0OPlVQWsCWDiWKKpbgpW59WGf2c1BnBgKV9fj0pBI6Thqbg1cpkPc3j8kTxqrFVdWzdwKgj4PynxuuF0akikdNSGfHGrwj9eMgt9USsdH1xi9W53dBAIeEUswfj9kagMmuOd/jkU0nsrYVxewO7cNFdldW8DIz4peu+KzKa6WFBJL8Lo1eSWEEHJwMu7iFgAuuugiXHTRRRnve+yxx2w/79y5c/QXNEFRndu8fW4Vl1KIOud8dYHf45JfYOFosihx2zEQky5WKZ1bn0eDv+BYQrw0sQRnQdkwYwlCKJQpJw0Vfg8SKR1D8Sh6B+MYTs+OHeZY0BZlKIRw8BaZ4rbHbLAvRGhEKQ4q87oRjiXThJNT9Lf2Dcn3VDikum68D+K1iRxsmc8ji4AKydzGEinEk6m0CnHnWoI+t3TZeiIxY3qc+R5rGmQesZiJb7quZ9ze73VZAl15DfFkShYuzq0LYWlzBXZ0hPGkmZMVUY/p1QG4XRpiiRTa+qPyxHP59Eo8u6MLW1qMq0rqcAKBGr0YjKkOd+GZW+cQB/GZeOeKZlz2zqWYUR3E758zCmnb+qLy0r8q9NRuCfI2rxuapqEy4EF3JI7aMm+a+7qltV9e8p/tELfCuZWxhBzV/wGv2zZpzIkqbuvLswtUJ85pZ9kKygCjAA0wXNtM2WBCyMED/wcfRKhfePnadmVybmNqNb/iImmalvHLPRv9Q3F8/JfP4HfP7LaNli2FcysEaa5Ygq7rNnEbT+q2vptClIpYgnBQ8w5xGLIX2hRbUGZNJzPFrXKMywNW5flw24EJNzUmOmGkdClyREYw4RwhrDihQcdlfrluR1xDOIEVAfsoVPV9CMvMrTuvc+vsWpFLuIn7Al63FF8pHegZtDpilPs8UigVc0IViSUz5p39nvR8767OMH7zn11IpnQEvC40VvhxyHSjGFX0ExZRD4/bJYuidnWG5f9NMV5VxDIyiTf12A0WEUsQ7mxtmU8Z4mC8NtHJoC7kw6zaMrhcmowltA9E0WOexKliUx2/a3WscNm2qw350wYktPVH8arZocMpbkWsRHxGczm3+bCL29zOrYoYBiOozhFLOH5hPc4/cR6+/l/Li18gIWRCMeXF7a7OsKwenuiol0wH8sQSVMEiRJ3qXKr5PwBFidvndnbhibc6cMu/t8k8HVD6zK3VBN4ujroj8bTL22rW1Opza047MwVaoZnbpoqAbT/5SKV0xJMpKQoyilu/R0ZBhjvIQYgEcTx6B+NSrE2vDkqB0qNEE1QnVKxHZJKtbYz9ieIm8T7WhXzGdCjTxcpUzV/m82TskzwUT6LN/Gw4u1bkEm5qtMPrdklB1DkQtfVoFs9ZzAlVts9nQHFuw9EEIrEE/utHT+La+98AYIxhdbk0HDKjylx/eo5ZbQcm7j9kepVskwakxxIA2J53qMBYwlA8KY9/bbnS59b8XMgeuMr6xKX8tr6oPElSXVjp3CqtwMTnuFKKW6+MJRj3G8/7+OZ2AOmxhLcva7T9XJ1hgEOh+BUn1TnAIRdpzm0OcevzuHDlu5fjxEUNxS+QEDKhmNLidm93BGt/8G+ce/szJevTOprYnNt8BWWKkBWiTohcTUvvG1nMlDIhrPd2Rxz9Zq3HJpIprN/UWvSJgxBChrjNnLkVrm1jhV+KBzHXHlAzt8YxEDGLQrslNJoTpJyxhNa+IZz98w2446kdttvPue0/OPXGx+T8evGlr1Z+VwS8ch3DdbhFzlK8t+Lyc2XAA5/HJcWW2mBfFSqyaCjmjGuIXK79i1+II/F6VLEfkbnSzM7tJ371LI7/7iNo6x9Kc25zdUwYlKLZWKu49N8xEFPErVeKlmJiCeL9dfYf9nuUdmZDCby8uwf90QQq/B68//AZ+MZZhwCAdG4FqtATec32/qj8P1Tu92CFKYiB3LEEIy5id9yzFXeKzgQel4YKvydtiIPq3ArEZ7pjIGpFGvK0AhPOqxDu8+rLsWJ6FZZPq8SHVs/EcQvqjWNmvt5ZNXZxe+z8Olvf2/FwblVx69Jg69tLCJm8TGlxu6W1H/Gkjlf29qY1v9d1HT//9zbc9/K+cVpdOqrwzN8tQXVujS89Ie5Elk6lGOdWNJhP6cZULIEq2u57eT8+defz+M4Dm/LuT0UMcbD1uXU4t6KYbFZtmXRlO5RhBs7xu+ILrtCCMpHndIrb7z24Gc/s6MIvFXE7EE3gmR1d2Ns9iK2tRj9TUUiTPZYwPOdWdDAQ760Y4CC+7KsztGmKKE6ocOeczqk4Ls7pUcLlUl09QThqCaBMfW5f39+HeNKIj4jL5eKEKqdzKzPCprg1X1tnOGrr0Vw5jBMFkamuL/dDHTYVUMbMtvQO4bmdRku7U5c24gdnr8KRc43R3o0VAVsxk+rcihOB7nDMmt7md+OwmbnFrVrM2aX0LNb19CsN9zy3G5+/+yV5laIm5DMnXBkvxiooi5vrs9ZaZ/47kdLlYIcqWyuwzBPKAOBb712B3316DY5fWIegz40HvngibvjQSlm0JZhdZxe3mqbhUyfMkz/nigTko5iCMhX1+FaX+UZlyhghZOIxpcVtR7/1ZfKnF+0i9s2Wflz3jzfxtT9tnDCubkQRF3kLyjI4t87L5ioh5fJoPlTn7T87OuW/VXEjThZe2mP1vi3kOMZMIWTrc+sQmaJDgJj/buzbut85fldsk0/cCmewSTi3ilP5xv4+/OmlvQCAfd2D8hKwmv09YLrHQig4C8qsWMIwnVtHLKFTGSSg/t2tiKQhKRZdSizB0frL3J+zWEgItmAGB92WuQ3YndtYIiWPpRqfEWLK6dw+vbUD+82cr/MzKoqHOm3OrRpLKPxEQXYKCXpsAzb8HjeOmmcI2Me2tOP5XcYJ25FmZlZFdW/rFPFonVjElTZpHhw2s1puE8gQSwh4XVJodzgGIzijCT/811u4/5X9+NurBwBYJx/OPreiPVyNUjzl87ikKLT63GZoBaYUHIrbqst8OG5hfdoJ8eImqxes162hOcPQgfesmi7fw2JEqRObuC2qoMw6BiNxjgkhBxdTW9wqIyT/+sp+2+XTl/f0ADAuFw7XaSuUPV0RXPfAJrQol9YzEXE4t7nEom1CmXRuTeHgSX/bi3FuVedNHS2qCg0xrWxbexjRRBKX3fsqTr7hsbxOmy1z68ncLWFAuezrzNQZ67MXlFnObfZYgq7rUnQ6ndtUSsd3HtgkBXRKt9zj3Yq4FfljK5bgyNyOsKBMxhIc4lZcHhfOWLfynljFQR4pbrN1S3B++dfJWEJ6nCGsCDjnZ0ftw6ueLAl3VP38vLavFx/5xTP4wt0v2dfrFbEEMRErKo/bcCMe4vGVAa8t/+r3unDy4gZ4XBq2tg3IQRhHzqlN24dN3CoiS+3sIMR7yOfJ69xqmiZPLNv77SNtI9Ek2vqHZKZbfL6eMU8ohXiVE8oSoqBMDHiwi8n/PnKm7eeM4laJJQR8ub8eVOd2Zk1ZRlfU73Hjlo+txiVrF+OEhfU595cLNUZVVEGZ8vshV96WEDK5mNLiVh0h2RWO4d9mYQQAvGKKW8DoDTma/HrDTvz88e343bO7c26nFlGl9NxiLZqhFZizVZVKpmlQ2chW7KIKje3txqXPZErHxr29uOf5PdjdFcHzO3NPMbON3/Vm7pYgRHS534vyDG3LxPbCBZbObY6CsnAsKdtfSXFrDrW4/E+v4smtHTZ3aqd5aTeTcytEedDW59bqaTqcgrJkSpdV7sLJFrEEceleTo8Kp3eOCCrdEpyFclYsIYtzm8HxVS+9i+MruhGomV81hyv6qqqf41f3Gg6/GN8q1i6EsBCQHeHCnFt10IOTPtnj2WuLjPg9blQFvTjadG9jyRQq/B456UplxXRLrKqxBHFi0RGOWZlVvxsza4Iy7pFJ3AKQuXHn/731b7bi6G+vx3X/ME58xcnVG/uNvrlCvIrMbdTshiI+J87OBhecstBWSKqezAhXOaVbV0EyjY9WWdhYLl1nZzGZypFza/HFtYtGFAkoReY2V49bQsjkYoqLW0MciC+69W+2yvteVsRtW5/dURHEkyl8/S+v4eE3WjPeXyiiull1vDLhzCrmEqL2grKU7W9/juxfIbGEbOJ2KG70MI3EErKdFACbaPdncI1VhLj1uLOP35UFO4Fszq1xv4glCJcvmuNkQBSDed2aFGFD8SRueGgz/vD8Xrg04MYPrcTqOcalapFbVJ3bA+ZrFsdXLSgzMreiCKp457ZvMC5Fh3RuB6wRrIDq3KYXlAW9bpRlaNRvvM6U+fgsmdsMj5OxBKXPLWB8JtW2bGpURTjX6mdsuylqeyJxDMWT0p1srjIEjMzc2roleLOK2yv/8hoO/8bDciqYinDmK4Mem9AUgm/tsiZ52+FzajKKsUOyiFshYA8on/uQzwNN03CoGU3I1C0BQNZpW09tNRzaZ3Z0ydgGAGU6mvGcXhFLSKTMPsfG/c73s9zvwZdOWyJ/Vk9yMwnvTFd4bPd73ZhbZ0zymp1lslipsInbYrol+OncEjIVmbLi9rV9PfKyrnBoxCX2SCyBt9qscb6tWZzb9ZvacNd/duH8Xz9fkCjMhhBj+VxT51SybM+ZSum2kafOWELQmyOWUEAEI9dr7R9KSNdWIDKCQG73VNd1WXyUq8+tFUtw2768BM4+t4UUlAkndnp10Db29f5X9gMAvvXeQ3HWqhmYYxbN7OxMF7dhR1axzK84t36rCGo4redUNzSaSEHXdeXysyNzG8ng3PpceQvKKoPGFDNBWubW1q1DOLce+D1uedl4IJrI6Ny6XVrGEygRXwGMYi5xIinc8/qQlbkVJyAVSnHeQDSBhPJZ/8/2TiRSOv6V4YRTjTU4nVvALm6PnJOetwWAWbVBzKgOIuB1yab/gHXs28xogaapotloibVsWroTDKSLW/EebO8wjs2OjrDtZFE+pynW1IKyLsX5zjQo45MnzMPFaxfhprNX2m73ul2yFRxgXDkpZJDBsmlGTGNefXmeLUdGfciPo+bWYO2yJlvcJx/qiVd1jgEOhJDJxYSYUDYebNzXKzNus2rK8NLuHulIvr6/z9bsPZtzqwrIP7+0Dx87Zs6w1iLEWj6B7BzckG2Qg9PpFIKysFhC/t6uTudWdfb6h+I2wQLYJ4XlilKo43JztQKzxRIyiVsxocwZS3A4j6qoEE7fsuZKKQLDUaux/ilLjN6Xc82Z8zvNaWG7Oy1xKxCixue2Jr+VBzzycmq2k6VcqFEDwDhWHY5YghCjatW95dx6FHHrHOJgDRkIet1pfVwDGUSxlbk17isPeNAVNsbXqs8/ELXaVol2c+rzb++wToTebOmT/6cazV7DVreEGJKmJTm7tgw1ZuV7MqWjYyCG5qoAdF3HgR7j2D6/Kz3+0m+LJagFZcb7NbuuDIfNrMKre3tx4qLM+VBN0/DnC49DOJa0DUFwdgIQri0AfPyYOXj3odPka3Hi/AxXB73ojsTlZ6t/KIHX96c70eL99isFZc4THidul4aL1y7OeF/Q65ZOu7MPdjYuOW0R5taX4YNHzMy/8QhwuTT88bPHFf04taCMzi0hU4cp69zu6xmSzq2YIy6EgJq3BazZ6E5UsfTrDTuH3VUhLMVtbmEpnFtxuTTb9lGHO5pWUJYplhAoJpZg36a5KmC7TLzNdG6XZsgs5hqMIJxWwN4KLHcsId2NiTi6JQjHVIi4x7e049Br/onbHt8uH/Nmi9HGa9k0S9z2RxNIpHS4lQlP80xxu6MjjGRKt/X5FYjjq2maFH8VAY/M6x7oHSr4s9LeH8X29gFbkRhgvMdOISMujfdkLChTYglZMrcBr8t2ebo25IwlGMdP13Ulc2u872qfWLu4Nd4rr9slBaUQxtFE0pZZfsXM39aX++VlaJm57Y9ia6tx0rS4qQJul4YGUyyKKEPvYFy+3hd3d6f1iRWOeUXAY4sIqP8fbv34kfjjZ4/F4bMzO7cA0FgZkJ8DgTMCoDrDmqZlFbaA1WNaILZVh188tbUj7XHi/VGHOKhjeYtF7eaQLULhZGFjBb5y+lJbW7GJhHriwMwtIVOHqStuuyPyi0A0KY+Yk5tE3lY4bW1ZnDZVJGxpHcCGbZ0Zt8uHEKm5Ygm6rktRIMRMNiGa3bkVDl2mWII77xrkeh3iqLHCrzTVj8sc5btWTIOje1DOWIKo9gaMS61+xbn995Z2/O6Z3bY1VvjteU9BtlhC0qw6f2FXN1K6NUYVsJzbpdMq0vKHTRV+eYlWZAz39w5id1fE5t4L1McLYV0V9MpG+rFEyiZAdV3PKnY/fOsGvPN/n8AWs4euIJpI2UQ+YBWEqeJS7VnaZA4aeGl3j+35rC4abpvQy5a5jSasMc5OcTsQTdhcZuGWet2W0Bfxhl2dEaj6U5xUirwtYFyOBowTjf5oAm6XJoWleD1iBPT+Hvu0PDValErpeG6n0QVhYWO5I5Zg/X9orgrgqLnpXRLy4XW7bPnvbDnaTDhHxDoLwQDr5EvNAaeJ26RVzJdpH/lQj0m+YrKDBZu4pXNLyJRhyorbTQf65Re0yM4JN0r0aD1tuZGVa+vP7Nw6L+8+8NqBjNvlo5BYQjSRkkJAiKTX9vXi5Bsexe8dXRacl/HTuiV4MsQSfMW3AhNupuHcitZMlnO7YkYl5tXZHa5csQQhFDXN+BIPyMxtCpfc8zK+9ueN2NMVkWsMOVqBiX/LPrcilqBsMxRPykyqaL2WSKbwlukKLmuuTJtgNb3aKpapL/eh3O+BrgNPZnDTAPvJw5dPX4xzj52DQ6ZXIeB1yxMT0VlB13V89BfP4IO3bLBFYQDD2dzWHkYskcK/t7Q77kultc0SzlRPJC7Fq9qz9PRDmhHwurC5tR8vKVcnonEllmC+drdLkwVw4jbx+VE/p+K51V63nRmcW48SMxFr2qaITwDYaDq3ar/UyqDHlgWdW1cmXd1m8/+BELfqCGYAsl8tALy2vxdt/VGEfG6smV9re48zXckYDqp4cn6GclHucG7rc/RxXa04yjVldnEbT6ZkMV+2WEIu7EV2pTkm443bpcmMbi0zt4RMGaasuBWXk6uCXvklLkSRqEI/fJbxRdLWl825Nb64xZfCrgz5y0IQjqwqGlIpHTc/uhX/Md1FVUiLy7H3PL8Huzoj+O0zdnHrdG7Fz1b/ysK6JWQb/ynWctpyowDnyDk1Ulj2DlrO7YKGclufTyB3UZfa41bTrG4JvYNx6Ua29UeVzK3HVlAmxLacUJa0hjgIB3kwlpSX+IUo2tERRiyZQshntG5ydnRQxa2maZhbb5wMPW4KTqeQULtRvO/wmfjGWSuk4yYKpcRz9w0m8PS2Trywqxv7HBEHNev98u4e231RtR+p+XzCaY0lUwjHktiwrVO+VxUBD6qCXpxx6DQAwD3P7pH7Em66GkuoKfPJzGjAEWdQBbN4XVY7q7itoE0UlPnc1hAJMYxEzdsCVmeFJkXcGpf0reOr9lYVIlicpOx39Il+QWk7JwrMTlrcAL/HjaA3PXM7UtTL3qEinE/V5XW7NFuW18kpSxvkv2szZG47RxJLsHVPmDxfDStmVCHkc2NBw+gWvRFCJg6T5zfYMKkr99ma26uX/+c1GK5jW38042Vj8SW/1KyCLkbc/uH5PbKFWCRDLOG5nV244Z+bcfV9rwOwRGfQ65YuqRDom1v6bUVbzpZXUencmg5dBufWmbnd0tqPld94CDc/ujVtW7Hec46ejZevOg0fP3auvPy+uaUf0UQKPrcLM2uCuOxdS3Htew7BOUfPMteQX9yKynvxpa1WihtN8q1+p6orK4qQBuNJs/OCJZblJftITF427wzHEE0kscm85Lt0WiVcLg2aptlcrGnV9slLIpogYihOAZ+tnykATKuycreAvbOB2nkBsAQwgLT4w2A8aY1T9ll9dcUx23SgDxf97kUAwAeOmCnFzoePmg0AuP/V/fLzpmaxxdpVl8sZSxD/P9SsaMiWubUiF5Zza8USBh3OrTOb7Zx0pQ4jWKSIWxFLEJlb0YZrrtnRQi0q+9emNgBWR4TRcW6tY1bmL3yfqrgNeu3C28nJiy1xm8m5FZ+nkTq3hWZuDwbu+tQaPH3F20c0/pcQcnAx5cVtfbnfam5vumFCxwoRE4klM16uFw7U0majHc6+nkFbW6JstPdH8dV7X8XFv38JsURKCpcBZerYHlO4iv6WatN8Z54vlkzhrTYrk+nMtQrnVi0cciLFifk6n93Rhf6hRMYevmqlvPjCEM6tyE3OrS+Dx+3CtKogzjturhTkhYhbj9vuGKqTmzoHrCb5RizBEhRibK6ui567xrH0eVzyy75zIGbLpLb1Ra28rSKyVPEzo9rew1O4h+IzoY5YVdedCacgyyVuW7JcMQDsgyAyFYFd/PuX0RmOYfm0SnzrvSvk/UfNrcH8hhAisaR0M9UstnD17dOrjM+LFLdKGzCBjCVEE+hSJv9ZmVuX/H8mYi3bTOf22AV1ttcmjpHA7txa7luzwwUXJwzCnd7dFUFPJIZ9PYN440AfXBpw6lIjahTMkrkdCcOPJVjHMeB1204a1EK1+nIfljVX4vRDmvDB1TPla7BagenyqtNwMrfqMcklsA82fB5XTjecEDL5oLgt98kq8lgiJb+MNc1wP8Tl1ky5W+FAza0rg9/jQjKl24pasiHEVTiWtBWrqVPHWsz8YH80gcFYUgrKoM+dltEDgNf3Wa2CnM7tkCwEytEtQYkl6LouB0q0OgSWruvydatFJ0LcvrbfyE06LwFabb1yZG4TVo/bbOvcqzbJV6ZjAfbZ9YPxpCWWXZosDuwYiNqGZbT0DeFNWUxmjVZVn3talV3cfuL4ufjEcXOlqDxpcb2tyXyuNkrT5KV043WohWVp4jbHOObeQes1qGsVJxv7egahacBPPnK4TbRomiZ7uIpOBeLzYVyut3cpACzR84+NB/DOHz6Of77eAsDx/it9krszObcuTRkiYfTp3W46t8ctsLfdcjq36kSqTLEE0c1EnAguaa6QYqa9PyrjI0fMrpGib/Qzt8OLJaj9iAHYitumVwfhcmn4+cePxI0fsvrUepXPnvj/OpxYwmR1bgkhU4/Jc3o+TAzn1vpFLlzCMq8bLpeGhko/+tsTaOuLpgk24UCV+T2YVVuGrW0D2NUVxmzzsmhXOIaA15X2RaeOB3WK4YFoAkGfW7pQYk0RZV59pkrs1/b3Yv7OEF7b12trLg9YgjJ3twRjn0Jgi0vLbf1RJM12WIDhEosWRbYhBdKZNZ4jXdxmHsigki2WoLK32xBkPo8Lfo8blUosoSrohc/jQixhTElTYwmypdRAzDZkoKV3yGoDpji36mdiuiOWUBnw4pr3HIJL1i5GR9j4XNSUeaXIyiWWmnPEEvY4xG22QkbAEsU+j8tRQW85VG9b0oj5GXKGIr7RbvbJzRRLUIWaeD0p3ajaF9PZ1Gb64vPT0jdki1CICInh3IpYQgKRWFJeJThidrVtfc1O59YUah6XJq+mAEZLLgBo7bU7t9OqgqgL+dA7GEdnOCY/M4dMt05esnVLGAlqLKGoQQOOWIKa151XH8L0qgD29w5helXmKWA+ZdiCcPuHE0uYrJlbQsjUY8r/BqsL+eH3uGTBkfjCFwKyyRQCmdqBiahAmdeNOWY7MZG7bekdwknfexSfuuP5tMepI0n3OyYPCTGgunZt/UO2KECmYpVntndh3R3P4Zr735AtjwTCsVVHsTop87nlMeiPxqW7aTTJt0SWOiWtzKuKW/ua5jfYuySInK9z9KuKaN3ldcQSVPZ2GcdLOIXltm4J1uSpoXjSFksQ7t/e7ojNPd7c0i9F0RJV3CrPnU1UVJV5pYi3X8bPL25bZSzBOtHZ053fuRX77jGndTmfS13Hx4/NPFREONziRM4a4uCSn3u1L6vzfRAxlzJ/unMvuk4IxImQ163ZhkiIz7lLMy6hq5eNm5yZW3Mtc+tDNodcHMv+aAID0YQ8XtOqAvJkpnMgZo0pVl5TUB3iUCIhV60IyrKiWoE5MreKMG6qDGCOKeinV2f+HKqTyMSVp+G0vQr6rP3k+gwTQshEh+K23KgKF0Kto98ubkXbrUxTyqzL827MMsWtcN+e2tqBgWgCG7Z32i6DA9YXEIC0sZriMm6acyuLeOzOrciJbm7tl/sVo2GFAJTOrSly/Rm+uDRNk6I5HE3aHEVVZAmR7ffYx3M6hymUJpaQ3bkVx0Ct2C/3e+SXcjialK21PC5NOllbHe2nHttiFBrNqg3aXoMs0vK60xr0Z0LdJmcswenchu2Z255IDN95YBN2d0akC6cKPyHoevOI27l1ZThpUQMyoYrbZEqXxYgBrxvnHD0b7z5sGj5wxAy5/aLGcmia1Q9aoMZjDptVDcD4HGbCo3RLMGI21pUITdNkxKDMZ3fjxfMD9jZYxvN7pDB8Y78x3UzTjGMk4gdd4ag8OVPjDeqJWaYCy+GgTsAqxrlVM7Z+r9vmKk+rCuBw09leMaPS+VAARocF1b33urW0E4RCsMcSpvxFPULIQcyUF7fiC0/8Mu8wXR7xBSPaSwmnrSsck0VTsiWSz405dXbn9mWlj+hLjjZO9lhCFue2T3Vuo7KIp8xnLzh5x/KmtOIVIZwqTVEULWD8LmCJqJ5IzOYoqmtRBb1KPudWuELq9LQN2zpxxv8+gVf39gCwtwIDjAyoE7EWIWo0TZP/VidP9SnH2Otxod58H53O4mv7RDGZXTiIL/pp1QHZEisXqlOWad2CZtMF7h9KIBxN2E4ieiJxfOeBTbj18e34/sObZQs6dRSsKJoTsQRnNvLERUb+95LTFsPlyrxuKW4Horb3I+B1Y8WMKtz8kSOkWwgA8xvK8dRlb8O/Lj1ZTvMD7LnSw2ZUpYlSFZ/bhTKvKCiznFsRbREnkc2V6cf7bUsb8X8XHIerzlyetl9xPF7abXRGaCj3w+t2oTZkje3tkM5t5oKvUjm3tm4JRYjDXLGE5qoALl67GH/7/Al476oZmR4OwLraARhTw3zDiFqogpbOLSHkYIbittxeYNLucG6FAyLyj1+4+yWcdfNT2NzSLy+xl/k8lrg1nduX9lhtiF7cbZ9zrzq3aeI2lsBQPGmv6O8fkqIy5PPYvgwXN1dg+TS7MHOK27TMbZYvvnrF0evJ6tymF5MBdnHbVOlPc3KFO6Zmbn/w8Ga8caAP9728H4Aibj3ZnVvReleNI5QrEQXxPqrdBHxuq1tCtg4EyxztqMSXu7NTQjbUNkO5inFUt7Glb8hWUAYAfzGPxUu7e+RaRfunkM8tp1mJgjKnCHnHIc148xvvxFk5hJDok9zWF7U56dk+F4BxSdzncWHFdKvtmepOetwuHL/QEuGq2DLut2IJg/Gk/D8g/p8J5zaT4+hyaVg9pyZj1rxZmboGANPM96tOOrexjM6tvVtCiQrK1D63I2kF5nBufR4XVsyoynqyAtijCcumpY+9LgS7czvlvxoIIQcxU/43mMjhCVEkvgjFF7dwuUTmVlzW3tERtgrKfG55yXZPVwSDsSQ2HbAuzzrF7YBN3DoLypJpHQra+6NW5tbRCmxRYwXWmsMUhFsqXkNVUMQSCnNuhehpH4hmdW4jcjqYfR+VipjN1CzdGUvY1zOI58wm+0LIWwVlxpd4LtGhCvyPHjMbR8+txapZ1fILWly2B8xYgiJsgHRRuNRxgiA+D9nytk5qbLGE3MJGCLKW3iGbcwtARgR2d1nZ4HeuaMapSxqw7vh50mXM5twCyCmCAOszPRhPotP8rHhcmi1mkg310rgzV3qiEoNwilSPy94FoNNsFybeR3FMplUVdzldPI84mZxuPl7EEjrDVua23ubcGs/rddsv6Y+E4XZLUE/Ugkqm3qVZ/yfzoRbFOU92C0UtIqNzSwg5mJmy4nbptArMqA7KSvhgFudWNJDvCseg67oUYn1DcVssQXQoGIgm8O8t7UimdDk29OXdPbbRqmoswZm5DUcTtrwtYLjGkQzOrUsz+sn+z0nz8fJVp+FDq41BCaJPb5WMJRitl4S4zeYsikvDLb1DNnHYqqwnUoBzm0nc+h29Uv/2yn55n5iqFEuKjGz2bgkCVdxeeMpC/OGzx6LM55GXVkUsQYzydY40XeJwapc5BIEQR3Pr7fGKbNgyt3kuCauTtcRJRLZcb3WZFxUBL3617mh8+fQl8phIcTsMERLye+TJ21vmyZozVpKNQ2ZYzm15mri1nFvnSYHPYx+MIbPt5vv13sNn4JQlDfjoMbMLfRkA0tuBiU4lIoKwtysiP3PqCU5Tpd8cNGLPEY8E9T0syrlV/i8FvG7MqDFc8mXTKgs64QCczu0wxa3a55aZW0LIQcyU/Q32+/OPQaiiQrqDwqkTjpL4whFfkl3hGAaiCdnmqG8wbsufBrxuNFcG0NI3hPte3gcAOGVJA/6zvQsD0QS2tPbLLx01luAcDhFWqr5dmnEZvq0vKi+PB80xkvPqQzh0RpVcf3WZL212ulqIFE2kck4oAyyXyFl0dSBDQVl65lZ1btMFYVA6t8Yx+6sibkXT/3jCHktwuTTZ2stJeRYxJgqF+kxx7nUZo3zrHQ7Y0uYKvLK3B7purM1ZLPWZk+djRk0QH1g9M+PzOKmW06LyO6BWO7BBGf84dEYVnnirAwBsr9nZ81W83+LkY7g9Whsq/Ah3RuR450wtwzKhxhKcn4FZtWWYVx/Cjo5w2lQ3j8toWeb3uBBNpNK6kixoKMcd644u+nWoDnFDhR/nHjsXgHVSusXMWAe8LluMorrMh7994YSCRX0hBMxisEgsWZRz63YZwn8wnkTQ60ZtyIfHvnxK1s94JtT/I8MVt/ZWYHRuCSEHL1PWufW4XbbL3mIijyg+sZxbNbtnXULuDMesfq/mYxeaVd3/eM1ocr96Ti1WzjLEgBpN6M8w7UwwoDi3ixoNd7F9wO7cBn1uPPKlk/Gjcw63PdbZ/idN3MohDpnfduHcOive1ZhENudWdfEWNOaOJWxrH8Dr+62hE10DmWMJgOXeelwa1Dqjigz5SwBpBWUi+2mcgFivu6HCLwXv4uaKtEvTjRUBrDt+ni1ukQtx7AupvBdFWbu7IvJKwEplytlHjrbcy8Y0cSucWzNzO8xm+yKaIMTtwgLFbUOFXxZxZWpJd87Rs6BpxomdinAWndn2TANJikFk3cv9Htyx7ih5Eiicd+nahvxphWqLmyrSBnSMFPHeNlYUFicQyO4fZtZ1enWw4M8eYF39AIY3nQxg5pYQMnngbzATIRKE2BCXFUWRSEoHtrdbjqZ6qV489iunL7FlL1fNqsYRZvui53cq4nbIXkSkYji3RlTh0JmGMO4ciMrHiOryTBX8zqlE5X4vhGaLxpMFZ25FxwcRq2jpG5JjgcNZMrdGL1kf3C4NS5rSC1rEc0bjSWzca0wxE/nIDjPyEU/ZW4Gpj6sv99u+7DMVFwGKuDULyoQLrGmadPMAQ4wKV9RZTDYcxPueqc2aE+GSvnGgT/aMPc4cQbuosRzvO9wqBmuutIskEe8Iy57Fw/svLMStcDYXNBYWvwAgC8ecHTEA4PwT52PzN9+F4x1Tx6yTDON9c8Z/hsuJixpw7XsOwR8/eywOUVzlOkcMpb5IsTlcfnzOEbjlY6sLdsIFQuSP1DH1jCA/rJ4olWpqGyGEjAcUtyZljl/mVsGJNZd8i9JGSrirHvPSOQCsnFWNv150AlbNqsbipnIcPrtajhZ9bHMbEqYzqcYSrOcznn8gmpT7XjG9UkYTntluDGbI1sgdSHduA16X/JIajCdlLCFb6yMheEQ+WGRn1WlSmUbvCn71iaNx57qj09xGsRaxDuGqLjJFcCyRQjiWtGIJNnFr/Lu+wmfLNDrzngJnQZnI7wL2gqLakE9GEdQc6XBZMaMKR8yuxoeOzB9jmG/meEXRocel4dgFdbj9E0fitnOPxLJplXLqlLMwy1lkN1wx5CxUWpjBbc/Gd953KB750sk4UhkNK9A04/+DU+Q7exeLWEK297FQ3C4N5x03N+1SvPP/Qv0w3cxiWdJcgXeuaC76cSKCMFJRWcz76ET9LBUTqyCEkIkGf4OZOC/vqpdL68qNUZ5vtVmX68WleufjZtWW4S+fOx66rkPTNBw1twY1ZV50R+J4dmcXjltQn5azBQwRs6MjbExaMvc9o6YMtSE/Ogai6I8mEPS6cez8uqyvwXk50u9xwe9xIRJL2lpjZRNETlHaXGVkiHsH42jpHUJlwKu0Akvfh3CaMyGeM5GyivKaKv0IeF3GuN+BWFqfW+M1WM6t2+WSrnLWzK0jlqBGHNTcbXWZF196x2IcMqMSHzyisFxtLgJeN/504fEFbTvPFLfiJKK6zBgk8ralTXKb5dMr8fKenrRRtM4iu8AIYwmCTEWA2Qh43XmdSec6PQ7ntqPfHv8pNT6PC5UBD/rME0mnkzvREBGP4cZMBGccOm3Yj2XmlhAyWaBza+IUa6pzIXK36gAAIUAziTzAig143C68fZkhWh56vRVAZudWZPTUbgnTqgK27N5Ji+tzOjtVQa8tl+r3uuX2aveDbPtwdhSoKfPaKvsBWJPSivwSVp9TXJKuCnplVKAzHLUytx5NeZzxEW0o96M6WIBzK2MJZuZWEVl1Dud2fkM5Ljxl4YgFRbGE/B5boVhNhk4JF69dhDMObcbph9hdQKdoHLZzq3yufJ7Sdg0A0tcpTljEse4YKE0sIRdqdwRnQeFEQ+TU59YVHg9R+dvnT8BXTl+CC09ZMOw1qL/LKG4JIQczFLcmTpGqfukKAaZ2EchWWJUJIVAefqMVuq5nzNyKy8/dEavpfFNlQBZ5AcBpy3Nf7nS7NFsRWcDrsgqQzKb/bpdmc0ZV/B77qNnqMp/Vk7VPiFvzdRcpSlSxIwZiVAS8ypjUmGwFZoslCOe2wm8TgfliCcKxUzOIqthxXrYea+YpLcYyreWUJY346UdXp4ky5+X+4YqQxgpLXM+vD5Ws16tA0zTbe64W9gGQxZgjLSjLhXolw9nneKJx9ZnL8dAlJ8nsdbGsmFGFz526sODWYZmwZW5ZUEYIOYjhbzATZ19HtWCqttxeeW17XAHi4sRF9Qh63djXM4gXd3cjntTTthEi8o39fdB1o+9ofblPOrcuzRhDmo9axxhYp3Obrwdrg0MAiozvY5vbAAzfuVXFjhgrWxnwWM32lViCmpMV+eD6cr9tCljeWIJwbt1q5lZ5bWOUwcyGWoyVrcdtJvwO8TLSbglA5u4WpUB168V7muskstSo4tZ5VWKi4fe4sbipoqBRz6MFM7eEkMkCxa1Jri/dXMUo2WIJKgGvGyeYDe5FNAGAbf67ELGien6J+UUnRMiRc2oLavGjija/Utgjmv7nK1hRneKakBfnHD0LbpeGBza24O+vHkA4KgZBFP/lJ4SYcG4rg14Z+egMx5Q+t9YX/NJmo1DosJlVNlc6Wysw2ZUhISIO6QVlPreraHFeatTMajGtm5zFgCPpcysoJm9bDKpzK94H0XJPMKqxBJu4ndjO7USgMuDFihmVWDmretz/fxBCyEiguDVJE7eKeMslPgp1zhY1Wu2fAOOyunqZ3VnMJToJvO/wGTh8djUuPm1RQc+jXuIOeN1pfVHziSGnc3vYzGqZ4/t/f9koJ6oN58tPRAzalViCNSRDydwq7uSVZyzDs1e+HUfNrbUdr2yiyNkb1BZLMOMl1WXecXXIAKtjAgCbI52PUmVua0M+mc8eSYV9LuzOrfFkzv6pI+2WkAs1Yz3RC8omAi6Xhr9+7gT8+YLjxv3/ByGEjASKWxOnSFDFbq68XiHOLWB0UQCs9k8VAY/NiWxyVK8vaTIEx8LGCvz5wuNlS7F8qALQ73GlxxLy9EVttBU6GYLg829bhEWN5eiOxGXuuNjMrfrcIm9pxBJEQVksY59bl0uT+dBCYgnO3qvqvlbNrsayaZUFTx0bTdR1Ziooy0apWoF53S45IrcUfX4zoQpxjxzi4HBuR/Hyd23o4Ckomyi4XBpcJc5fE0LIWMNglUl6K7D0bgmZKDSbJiYXiWKxNHHrcG4XD1NwqC6z3bktLJbQ4GiXBRiXlN9/xEx898E35X3Dcm4dz63GErrCMfnc2Qre1GxqNlE0q6ZMthdz7qvc78E/vnhi0eseDWbWlMHr1hBP6kUVt6U5tyO4fPy/H16FXZ0ReZWg1Kjvt2jJ5hTjo+rcmp8tlzb+BYSEEELGDjq3JmmtwPzZndtKxTUsVFzMcrRaKvfbxW2jYxLV4mEKDmfmNt25LSZza+3rHYc02bYbjqjKJG7VbglWn9vMzpFwbkM+d9bqfpdLk2OLc+1rvHG7NNkxoZhL5qXK3ALAkXNrR9XFzuzcOrPto98toTbkK3k3CEIIIRMXilsTtdDF69Zsl39V8eHzuGxTwpyTzbIxrTpg60FbEfCiKmjsN+B1Ieh1y1xiXcg37Muoad0S0pzbYrolWOJ7QUM5FiiX0odzOdn53BUBj+xEYXRLMGIJviwdHRY0hFAb8uGIOTU5n0c9McjmAk8ErnjXMnx0zWw5zrYQShVLGAtU4e3NKm5Hz7k9dEYV6st9OGVJ/i4jhBBCJg+MJZioX7rOqEFNmVF8o+uG8KxUHNdCM7d+jxvNlQE5oEGNJZT7PdA0DSG/B72D8WG7toD90n3A65JOn+hzm08MicytENwqpy1vxrZ/bwNgd7YLRRU7mgaU+zxKt4QoYhkmlKlUBLx4+vK35RWsS5qtAqmJLG5PXdqIUwto76ZSyljCaJOpz62zyMz5ekpJTciHZ762lq4tIYRMMSbuN/8Yo4pUZw7Q7dJkZq825LNV5BfTEkvkbgHh3Br7Ee6VeN7FTcOvXq8NOZ1beysw5xAAJwsaQvjEcXNx2TuXplVMn7KkQf57OH0wA4rrWOH3wOXSZORjKJ6S0QlPDjES8GaPJAgWNU38WMJwOfidW+tzEzJP6kYTCltCCJl60Lk1Cdqc23TBUBvyoSscM8Rt0JNz22zMqinDczu7AQjn1mPuw/hb5A+HW0wGODK3XhdmmIJa9H0NeHKvV9M0XPOeQzLed/TcWrz/iBkIeN3DKgRSj3GFeYIQ8rnh87gQS6TQag53yBZLKJQlo1QgNRFwZm4nsri1ZW5d9gllwOgWk/3/9u48rqoy/wP451zgsggXZJFFAUFcAxExCRvTlFEcyjInTZ3BLW2BMaUFtZ9LNRPOWOa0jJWJ2pRDq9Ur0woEJ5VUSFJ0QmBQzFgSBxBQ2Z7fH8TpHrhwQbkbft6vFy/hnOec8+Xx8Zyvz32e5xAR0c2LT5dftO1RasutjxoFv/ypPRGsOx8LK3puba3lRNTplwlqYwNccf7SFfymG2Mw2+rnZAu1VctwBLWVCsH9nRX79Y257YxKJWHTrFHXfbz2tVuHdkiSBLc+apRUXUXpL0M2bnQogbfzrytPnP/flRs6l7lp+zG+Ob8m1VZHz632vxdDTiYjIqKbF5PbX1ipJLkHUddDt3VSmWsfWzkZBbrXczvA9dcVE5zsrDFxaD9MC/bCfaNbZqw/d08w/i9mxA3NgHeys8Hbi8fC1loFlUrCcG+NPF4YuLHZ9TdK+yN17RUn3BxbktvW3uUbTW61P+ouulh7Q+cyN9q92ipJ+cILc6Mcc9t+QpkhJ5MREdHNi08XLfY2VqhvbNY5njTol1eUDurXR15DFehmcqvVc+v4y5jbLX8Il7dJktQjyedtgW6/XsfWGgHuffDfn1uSPFN+jK39uzlpjVsOcHdE7oVq+eeeHCfr1MHLHiyVdjJrb2Nl1m+SUkwe07HOLYclEBGRIZhvt48JtCaquh66j94ZhPeW3obZY3yVwxJsuv6A1l7r1phJ1y0+vw5NuJFhCTdKO7HRHrc8pM3rX3uiN/Kz+NtxW6ArXn4g7IbPZU6srVRar7I174/1dfXcKoYlGPDtZEREdPNicqul9cGrqzfWzsYKEYFusLZSKT5S707PrbeznTx725jJbbCPRv7elMMSFGNutXpu274hy6YHlocaOcAFKUsjEerrcsPnMjetSaMp/y67QrlaQuuEss7HthMREd0oJrdaOuu51XY969wCLb1ug3/ppRzg4qCndM/RnlSmbykwQ9JOdrT/g9B26TNzXpvWHLT+HZrzSglA29USdI25Ne/4iYjIMrHrRIuDjXJpro5c72oJALA1dgx+qrwCPzfjJbe3aPfcGnDRfH10rZYAAP5ufeTJfEDvW5u2p7UmjeY+LEH7PzNq65a/U1trlTzBkT23RERkCOwi09KaLOjrUdJOzLo7btDX1QERWhO+jMHFQY3+v7wy2LTDErR7bn+tQyuVhEEelvFWMXNgKcMSdPXcSpIk9zhzQhkRERkCswgtvq72v/zZea9qXwcb2Fi1LB1mKb1PcyP84OfqgHD/viaLwa6DCWWAcmgCk9vOtS6pZu7DEhRjbrUS3dahCX3MvOeZiIgsk2VkZkayctpw3DXSB2MHunZazkFtjX/MC29ZZ9SEH/N3R9ydQYi7M8ikMXS0FBgADOnFr8ztaa1vKTP35FaxWoLWa3B//YSEtx8iIup5fLpocbS1VqwR25nfjvA0cDS9j/Z4X00nya05v5jAHFjimFvt3vjWse0clkBERIbALIKMRjsZazssIUhrrVsrFXtuO6O2lDG3WhMIrbV640MGOMPGSsIwb42uw4iIiG4Iu07IaDobluDn6oBAjz4QomUCHHXMYsbcWuvuuf3bzJFYc9cIxaojREREPYXJLRmNdrLT9iUWVioJXy2/A01CsOdWj1+HJZj3By/aPbfaya1KJTGxJSIig2FyS0bTT2MLL40dPDW2OldEsLZSsUF2gZzcWkjPrSRxqAkRERkPcwkyGjsbK2Q8ORHWTHRuyO1B7kj7oRxjA4y7XnJ3uTup4WhrDXdHDjMhIiLjkYQQwtRBGFN1dTWcnZ1RVVUFjYYTWsgyNTcLqCzgPwmlVVdhZ6PiOGoiIuqWG8nX2HNLZIEsIbEFAC9nO1OHQERENxnznpFCRERERNQNTG6JiIiIqNdgcktEREREvQaTWyIiIiLqNUye3L722msYOHAg7OzsEBERgaNHj3ZY9tSpU5g5cyYGDhwISZKwefNm4wVKRERERGbPpMnte++9h4SEBKxbtw7fffcdQkNDMXXqVJSXl+ssX1dXh8DAQGzYsAFeXl5GjpaIiIiIzJ1Jk9tNmzZhyZIlWLhwIUaMGIHXX38dDg4OSE5O1ln+1ltvxcaNG/HAAw/A1tbWyNESERERkbkzWXJbX1+P7OxsREVF/RqMSoWoqChkZmb22HWuXbuG6upqxRcRERER9U4mS24vXryIpqYmeHp6KrZ7enqitLS0x66TlJQEZ2dn+cvX17fHzk1ERERE5sXkE8oMbdWqVaiqqpK/zp8/b+qQiIiIiMhATPb6XXd3d1hZWaGsrEyxvaysrEcni9na2nJ8LhEREdFNwmQ9t2q1GuHh4UhLS5O3NTc3Iy0tDZGRkaYKi4iIiIgsmMl6bgEgISEB8+fPx5gxYzB27Fhs3rwZtbW1WLhwIQAgNjYW/fv3R1JSEoCWSWinT5+Wv79w4QJycnLg6OiIoKAgk/0eRERERGQeTJrczp49Gz///DPWrl2L0tJSjBo1Cvv27ZMnmRUXF0Ol+rVz+aeffkJYWJj88wsvvIAXXngBEyZMQEZGhrHDJyIiIiIzIwkhhKmDMKaqqiq4uLjg/Pnz0Gg0pg6HiIiIiNqorq6Gr68vKisr4ezs3K1jTdpzawoVFRUAwCXBiIiIiMxcRUUFk1t9XF1dAbQMeehuZZlK6/9eLKW3mfEalqXFC1hezIzX8CwtZsZrWJYWL2B5MVtavFVVVfDz85Pztu646ZLb1jG8zs7OFvGXq02j0VhUzIzXsCwtXsDyYma8hmdpMTNew7K0eAHLi9nS4tWee9XlYwwQBxERERGRSTC5JSIiIqJe46ZLbm1tbbFu3TqLemuZpcXMeA3L0uIFLC9mxmt4lhYz4zUsS4sXsLyYb6Z4b7qlwIiIiIio97rpem6JiIiIqPdicktEREREvQaTWyIiIiLqNZjcEhEREVGv0SuS2y1btmDkyJHywsSRkZHYu3evvH/ixImQJEnx9fDDDyvOUVxcjJiYGDg4OKBfv3548skn0djYaJKYL126hD/96U8YOnQo7O3t4efnh2XLlqGqqkpxjra/kyRJSElJMXq8AHD16lXExcXBzc0Njo6OmDlzJsrKyhTnMGYdJyUl4dZbb4WTkxP69euHe++9F3l5efL+s2fP6qw/SZLwwQcfyOWMVcf64gXMrx3ri9nc2nFX6tjc2vG///1v3H333fDx8YEkSfjkk08U+ztqwxs3bpTLDBw4sN3+DRs2mCTeBQsWtIslOjpaUebSpUuYN28eNBoNXFxcsHjxYtTU1Bg93oaGBiQmJiIkJAR9+vSBj48PYmNj8dNPPynOYcz61RczAAghsHbtWnh7e8Pe3h5RUVHIz89XlDFmHbelq74kSUJcXByArt3njGn9+vXt4hk2bJi8vyv3DGPqqWeJOXjttdcwcOBA2NnZISIiAkePHu36waIX+Oyzz8SePXvEmTNnRF5enli9erWwsbERubm5QgghJkyYIJYsWSJKSkrkr6qqKvn4xsZGERwcLKKiosTx48fFF198Idzd3cWqVatMEvPJkyfFfffdJz777DNRUFAg0tLSxODBg8XMmTMV5wAgtm/frvi9rly5YvR4hRDi4YcfFr6+viItLU1kZWWJ2267TYwbN04+3th1PHXqVLF9+3aRm5srcnJyxO9+9zvh5+cnampq5Hi0662kpEQ888wzwtHRUVy+fFk+j7HqWF+8QphfO9YXs7m1467Usbm14y+++EI8/fTT4uOPPxYAxO7duxX727bh5ORkIUmSKCwslMv4+/uLZ599VlFO+3c2Zrzz588X0dHRilguXbqkKBMdHS1CQ0PFt99+K7755hsRFBQk5syZY/R4KysrRVRUlHjvvffEDz/8IDIzM8XYsWNFeHi44hzGrF99MQshxIYNG4Szs7P45JNPxPfffy+mT58uAgICFP+mjFnHbZWXlyvq6uuvvxYARHp6uhBC/33O2NatWyduueUWRTw///yzvF/fPcPYeuJZYg5SUlKEWq0WycnJ4tSpU2LJkiXCxcVFlJWVden4XpHc6tK3b1/x1ltvCSFa/iIfe+yxDst+8cUXQqVSidLSUnnbli1bhEajEdeuXTN0qDLtmNt6//33hVqtFg0NDfI2XTc2Y2qNt7KyUtjY2IgPPvhA3vef//xHABCZmZlCCNPXcXl5uQAgDhw40GGZUaNGiUWLFim2maqOdcVr7u24K3VsTu24bbzm3o67Uk/33HOPmDRpkmKbv7+/eOmllwwXWAc6Sm7vueeeDo85ffq0ACCOHTsmb9u7d6+QJElcuHDBQJG26Er9Hj16VAAQ586dk7eZqn6FaB9zc3Oz8PLyEhs3bpS3VVZWCltbW/Gvf/1LCGHaOtblscceE4MGDRLNzc1CCP33OWNbt26dCA0N1bmvK/cMU7ueZ4k5GDt2rIiLi5N/bmpqEj4+PiIpKalLx/eKYQnampqakJKSgtraWkRGRsrb3333Xbi7uyM4OBirVq1CXV2dvC8zMxMhISHw9PSUt02dOhXV1dU4deqUyWLWVlVVBY1GA2tra8X2uLg4uLu7Y+zYsUhOToYwwrLFbePNzs5GQ0MDoqKi5DLDhg2Dn58fMjMzAZi+jls/Cnd1ddW5Pzs7Gzk5OVi8eHG7faao447iNed2rK+OW8uYSztuG68ltOPOlJWVYc+ePTrb8IYNG+Dm5oawsDBs3LjRoEOu9MnIyEC/fv0wdOhQPPLII6ioqJD3ZWZmwsXFBWPGjJG3RUVFQaVS4ciRI6YIV6GqqgqSJMHFxUWx3Vzqt6ioCKWlpYo27OzsjIiICEUbNpc6rq+vxzvvvINFixZBkiR5e2f3OVPIz8+Hj48PAgMDMW/ePBQXFwPo2j3D1K7nWWJq9fX1yM7OVtSrSqVCVFRUl+vVWn8Ry3Dy5ElERkbi6tWrcHR0xO7duzFixAgAwNy5c+Hv7w8fHx+cOHECiYmJyMvLw8cffwwAKC0tVTysAMg/l5aWmiRmbRcvXsRzzz2HpUuXKrY/++yzmDRpEhwcHPDVV1/h0UcfRU1NDZYtW2bUeHNycqBWq9vd8D09PeX6M1UdA0BzczOWL1+O22+/HcHBwTrLbNu2DcOHD8e4ceMU241dx53Fa67tuLOYtZlLO+4o3tLSUrNux/rs3LkTTk5OuO+++xTbly1bhtGjR8PV1RWHDx/GqlWrUFJSgk2bNhk9xujoaNx3330ICAhAYWEhVq9ejWnTpiEzMxNWVlYoLS1Fv379FMdYW1vD1dXV5PV79epVJCYmYs6cOdBoNPJ2c6rf1jrS1Ua127C51PEnn3yCyspKLFiwQN6m7z5nbBEREdixYweGDh2KkpISPPPMMxg/fjxyc3O7dM8wpet9lpjaxYsX0dTUpLMd//DDD106R69JbocOHYqcnBxUVVXhww8/xPz583HgwAGMGDFC8TANCQmBt7c3Jk+ejMLCQgwaNMgsY25VXV2NmJgYjBgxAuvXr1ccv2bNGvn7sLAw1NbWYuPGjQZLCjqK19zFxcUhNzcXBw8e1Ln/ypUr2LVrl6I+Wxm7jjuL11zbMaC/js2pHXclXkuUnJyMefPmwc7OTrE9ISFB/n7kyJFQq9V46KGHkJSUZPTXcD7wwAPy9yEhIRg5ciQGDRqEjIwMTJ482aixdEdDQwNmzZoFIQS2bNmi2GdO9Wtptm3bhmnTpsHHx0feZm73uWnTpsnfjxw5EhEREfD398f7778Pe3t7o8fTHZb4LOkpvWZYglqtRlBQEMLDw5GUlITQ0FD8/e9/11k2IiICAFBQUAAA8PLyaje7sfVnLy8vk8V8+fJlREdHw8nJCbt374aNjU2n54uIiMCPP/6Ia9euGTVeLy8v1NfXo7KyUlG+rKxMrj9T1XF8fDw+//xzpKenY8CAATrLfPjhh6irq0NsbKze8xm6jrsSr3YsgOnbsb6Yza0ddxSvObdjfb755hvk5eXhwQcf1Fs2IiICjY2NOHv2rOED0yMwMBDu7u6KNlxeXq4o09jYiEuXLpmsflsT23PnzuHrr79W9NrqYsr6ba0jXW1Uuw2bQx2fO3cOqampetts2/ucqbm4uGDIkCEoKCjo0j3DVG7kWWJq7u7usLKy6rQd69Nrktu2mpubO3w45uTkAAC8vb0BAJGRkTh58qTiH3zrTUzXMAFD0Y65uroaU6ZMgVqtxmeffdauN0aXnJwc9O3b12i9Ba3xhoeHw8bGBmlpafK+vLw8FBcXy2OIjV3HQgjEx8dj9+7d2L9/PwICAjosu23bNkyfPh0eHh56z2uoOu5OvNqxAKZrx12J2Zzasb54zbEdd9W2bdsQHh6O0NBQvWVzcnKgUqnafTRtCj/++CMqKioUbbiyshLZ2dlymf3796O5uVl+ABtTa2Kbn5+P1NRUuLm56T3GlPUbEBAALy8vRRuurq7GkSNHFG3YHOp4+/bt6NevH2JiYjot1/Y+Z2o1NTUoLCyEt7d3l+4ZxtYTzxJTU6vVCA8PV9Rrc3Mz0tLSul6vPTzBzSRWrlwpDhw4IIqKisSJEyfEypUrhSRJ4quvvhIFBQXi2WefFVlZWaKoqEh8+umnIjAwUNxxxx3y8a3L+0yZMkXk5OSIffv2CQ8PD4MuBdZZzFVVVSIiIkKEhISIgoICxXIdjY2NQoiWpbm2bt0qTp48KfLz88U//vEP4eDgINauXWv0eIVoWQ7Fz89P7N+/X2RlZYnIyEgRGRkpH2/sOn7kkUeEs7OzyMjIUNRfXV2dolx+fr6QJEns3bu33TmMWcf64jXHdqwvZnNrx11pE+bWji9fviyOHz8ujh8/LgCITZs2iePHjytm61dVVQkHBwexZcuWdscfPnxYvPTSSyInJ0cUFhaKd955R3h4eIjY2Fijx3v58mXxxBNPiMzMTFFUVCRSU1PF6NGjxeDBg8XVq1flc0RHR4uwsDBx5MgRcfDgQTF48GCDLVPVWbz19fVi+vTpYsCAASInJ0fRZlpXxjB2/eqLWYiWpcBcXFzEp59+Kk6cOCHuuecenUuBGauOdWlqahJ+fn4iMTFRsb0r9zlje/zxx0VGRoYoKioShw4dElFRUcLd3V2Ul5cLIfTfM4ytJ54l5iAlJUXY2tqKHTt2iNOnT4ulS5cKFxcXxUo1nekVye2iRYuEv7+/UKvVwsPDQ0yePFlOuoqLi8Udd9whXF1dha2trQgKChJPPvlkuzXdzp49K6ZNmybs7e2Fu7u7ePzxxxXLFRkz5vT0dAFA51dRUZEQomXpllGjRglHR0fRp08fERoaKl5//XXR1NRk9HiFEOLKlSvi0UcfFX379hUODg5ixowZoqSkRHEOY9ZxR/W3fft2RblVq1YJX19fnfVmzDrWF685tmN9MZtbO+5KmzC3dtxRHc6fP18u88Ybbwh7e3tRWVnZ7vjs7GwREREhnJ2dhZ2dnRg+fLh4/vnnFcmkseKtq6sTU6ZMER4eHsLGxkb4+/uLJUuWtHtYVVRUiDlz5ghHR0eh0WjEwoULFWtPGyveoqKiDttM65qsxq5ffTEL0bIc2Jo1a4Snp6ewtbUVkydPFnl5eYpzGLOOdfnyyy8FgHZxdfU+Z0yzZ88W3t7eQq1Wi/79+4vZs2eLgoICeX9X7hnG1FPPEnPwyiuvCD8/P6FWq8XYsWPFt99+2+VjJSGMsOYOEREREZER9Noxt0RERER082FyS0RERES9BpNbIiIiIuo1mNwSERERUa/B5JaIiIiIeg0mt0RERETUazC5JSIiIqJeg8ktEREREfUaTG6JiK7T2bNnIUmS/G72rli/fj1GjRplsJjMwZtvvglfX1+oVCps3ry5S8dMnDgRy5cv71JZXfV+6NAhhISEwMbGBvfee2+3Yyai3oPJLRGZtQULFkCSJEiSBBsbGwQEBOCpp57C1atXTR0afH19UVJSguDg4C4f88QTTyAtLc2AUbVYsGCBziQvIyMDkiShsrLSINetrq5GfHw8EhMTceHCBSxduvS6ztNZsqur3hMSEjBq1CgUFRVhx44d13VNIuodrE0dABGRPtHR0di+fTsaGhqQnZ2N+fPnQ5Ik/PWvfzVpXFZWVvDy8urWMY6OjnB0dDRQRKZXXFyMhoYGxMTEwNvb2yDX0FXvhYWFePjhhzFgwACDXJOILAd7bonI7Nna2sLLywu+vr649957ERUVha+//lre39zcjKSkJAQEBMDe3h6hoaH48MMP5f2tvZVffvklwsLCYG9vj0mTJqG8vBx79+7F8OHDodFoMHfuXNTV1cnH7du3D7/5zW/g4uICNzc33HXXXSgsLJT3t/14vPU6aWlpGDNmDBwcHDBu3Djk5eXJx7QdltDaw/rCCy/A29sbbm5uiIuLQ0NDg1ympKQEMTExsLe3R0BAAHbt2oWBAwd2+SP/znz//fe488474eTkBI1Gg/DwcGRlZcn7Dx48iPHjx8Pe3h6+vr5YtmwZamtrdZ5rx44dCAkJAQAEBgZCkiScPXtWZy/y8uXLMXHixOuKWbveW7+vqKjAokWLIEmS3HObm5uLadOmwdHREZ6envjjH/+IixcvXtc1ichyMLklIouSm5uLw4cPQ61Wy9uSkpLw9ttv4/XXX8epU6ewYsUK/OEPf8CBAwcUx65fvx6vvvoqDh8+jPPnz2PWrFnYvHkzdu3ahT179uCrr77CK6+8Ipevra1FQkICsrKykJaWBpVKhRkzZqC5ubnTGJ9++mm8+OKLyMrKgrW1NRYtWtRp+fT0dBQWFiI9PR07d+7Ejh07FB+tx8bG4qeffkJGRgY++ugjvPnmmygvL+9GrXVs3rx5GDBgAI4dO4bs7GysXLkSNjY2AFp6Q6OjozFz5kycOHEC7733Hg4ePIj4+Hid55o9ezZSU1MBAEePHkVJSQl8fX17JM6OtA5R0Gg02Lx5M0pKSjB79mxUVlZi0qRJCAsLQ1ZWFvbt24eysjLMmjXLoPEQkelxWAIRmb3PP/8cjo6OaGxsxLVr16BSqfDqq68CAK5du4bnn38eqampiIyMBNDSa3jw4EG88cYbmDBhgnyeP//5z7j99tsBAIsXL8aqVatQWFiIwMBAAMDvf/97pKenIzExEQAwc+ZMRRzJycnw8PDA6dOnOx1n+5e//EW+7sqVKxETE4OrV6/Czs5OZ/m+ffvi1VdfhZWVFYYNG4aYmBikpaVhyZIl+OGHH5Camopjx45hzJgxAIC33noLgwcP7nY96lJcXIwnn3wSw4YNAwDFeZOSkjBv3jx57OvgwYPx8ssvY8KECdiyZUu738fe3h5ubm4AAA8Pj24P2bgerUMUJEmCs7OzfM0XX3wRYWFheP755+WyycnJ8PX1xZkzZzBkyBCDx0ZEpsHklojM3p133oktW7agtrYWL730EqytreXEs6CgAHV1dfjtb3+rOKa+vh5hYWGKbSNHjpS/9/T0hIODg5zYtm47evSo/HN+fj7Wrl2LI0eO4OLFi3KPbXFxcafJrfZ1WsedlpeXw8/PT2f5W265BVZWVopjTp48CQDIy8uDtbU1Ro8eLe8PCgpC3759O7x+dyQkJODBBx/EP//5T0RFReH+++/HoEGDALQMWThx4gTeffddubwQAs3NzSgqKsLw4cN7JAZD+P7775Genq5zfHNhYSGTW6JejMktEZm9Pn36ICgoCEBL71toaCi2bduGxYsXo6amBgCwZ88e9O/fX3Gcra2t4ufWj9sByKsvaJMkSTHk4O6774a/vz+2bt0KHx8fNDc3Izg4GPX19Z3G2/Y6ADodyqAvjuuh0Whw7ty5dtsrKythZWWFPn36AGgZqjF37lzs2bMHe/fuxbp165CSkoIZM2agpqYGDz30EJYtW9buPB0l6rqoVCoIIRTbtMcUG0JNTQ3uvvtunZMODTXRjYjMA5NbIrIoKpUKq1evRkJCAubOnYsRI0bA1tYWxcXFiiEIN6qiogJ5eXnYunUrxo8fD6BlcpWxDR06FI2NjTh+/DjCw8MBtPRW/+9//9N7XEpKCq5du6ZI8r/77jsEBAQoEuohQ4ZgyJAhWLFiBebMmYPt27djxowZGD16NE6fPi3/x+J6eXh4IDc3V7EtJyenXVLfk0aPHo2PPvoIAwcOhLU1H3VENxNOKCMii3P//ffDysoKr732GpycnPDEE09gxYoV2LlzJwoLC/Hdd9/hlVdewc6dO6/7Gn379oWbmxvefPNNFBQUYP/+/UhISOjB36Jrhg0bhqioKCxduhRHjx7F8ePHsXTpUtjb28u9wrrMmzcPkiQhNjYW2dnZKCgoQHJyMjZv3ozHH38cAHDlyhXEx8cjIyMD586dw6FDh3Ds2DF5uEFiYiIOHz6M+Ph45OTkID8/H59++mmHE8o6MmnSJGRlZeHtt99Gfn4+1q1b1y7Z1eXnn39GTk6O4qusrKxL14yLi8OlS5cwZ84cHDt2DIWFhfjyyy+xcOFCNDU1dSt+IrIsTG6JyOJYW1sjPj4ef/vb31BbW4vnnnsOa9asQVJSEoYPH47o6Gjs2bMHAQEB130NlUqFlJQUZGdnIzg4GCtWrMDGjRt78Lfourfffhuenp644447MGPGDCxZsgROTk4dTlADABcXF3zzzTdoaGjA9OnTMWrUKLz88svYtGkTHnroIQAtk7EqKioQGxuLIUOGYNasWZg2bRqeeeYZAC1jhw8cOIAzZ85g/PjxCAsLw9q1a+Hj49Ot+KdOnYo1a9bgqaeewq233orLly8jNjZW73G7du1CWFiY4mvr1q1duqaPjw8OHTqEpqYmTJkyBSEhIVi+fDlcXFygUvHRR9SbSaLtQCgiIjJrP/74I3x9fZGamorJkyebOhwiIrPC5JaIyMzt378fNTU1CAkJQUlJCZ566ilcuHABZ86cMei4VSIiS8RR9kREZq6hoQGrV6/Gf//7Xzg5OWHcuHF49913mdgSEenAnlsiIiIi6jU4qp6IiIiIeg0mt0RERETUazC5JSIiIqJeg8ktEREREfUaTG6JiIiIqNdgcktEREREvQaTWyIiIiLqNZjcEhEREVGv8f+GZOZHfkjrgQAAAABJRU5ErkJggg==;" vertex="1" parent="1">
          <mxGeometry x="60" y="160" width="520" height="352" as="geometry" />
        </mxCell>
        <mxCell id="b2coUypREnV0myxRBnu6-3" value="" style="shape=image;imageAspect=0;aspect=fixed;verticalLabelPosition=bottom;verticalAlign=top;image=data:image/png,iVBORw0KGgoAAAANSUhEUgAAArcAAAHYCAYAAABX18BlAAAAOXRFWHRTb2Z0d2FyZQBNYXRwbG90bGliIHZlcnNpb24zLjkuMCwgaHR0cHM6Ly9tYXRwbG90bGliLm9yZy80BEi2AAAACXBIWXMAAA9hAAAPYQGoP6dpAACmBklEQVR4nOzdd3hb5dk/8K+2LO+9HSdx9t4kJBAgjJQyyixQAmH0bYHSlg5Ioay2hNFSOvgBpQR4oYzCy2zZIWEkgew9nWE73lu2ZUuWdH5/nPMcHcmSLXmP7+e6fBFL50iPFRHfus/93LdOkiQJRERERETDgH6gF0BERERE1FsY3BIRERHRsMHgloiIiIiGDQa3RERERDRsMLglIiIiomGDwS0RERERDRsMbomIiIho2GBwS0RERETDBoNbIiIiIho2GNwSERER0bDB4JaIiIiIhg0Gt0Q0rLzwwgvQ6XQ4ceJEl8fef//90Ol0qKmp6fuFDSHhvi6RvNZ95dFHH8XEiRPh9XoHbA0D4emnn0ZeXh6cTudAL4Vo0GFwSzSMiGDDarWitLS0w/1Lly7F1KlT/Y4VX0ajEdnZ2bj++uuDntsf/v3vf0On0+Htt9/ucN+MGTOg0+mwbt26Dvfl5eVh0aJFIR9348aNuP/++9HQ0NCbywUA7NmzB5dddhlGjRoFq9WK7OxsnH322fjb3/7W68/Vm/ryNekvdrsdjzzyCO68807o9YPn15nT6cSdd96JrKwsREVFYcGCBfj000/DOnf9+vV+/19qv7755hv1uOuvvx4ulwvPPPNMX/0YREPW4PnXgIh6jdPpxMMPPxzWsQ8++CBeeuklPP3001i+fDlefvllnH766Whra+vjVXa0ePFiAMDXX3/td7vdbsfevXthNBqxYcMGv/tKSkpQUlKinnvttdeitbUVo0aNUo/ZuHEjHnjggV4P5DZu3Ii5c+di165duPnmm/H3v/8dN910E/R6Pf7yl7/06nP1tt54TYK91v1pzZo1cLvduOqqqwbk+UO5/vrr8fjjj+Oaa67BX/7yFxgMBnznO9/p8L7uzO23346XXnrJ76ugoEC932q14rrrrsPjjz8OSZL64scgGrKMA70AIup9M2fOxLPPPotVq1YhKyur02OXL1+OuXPnAgBuuukmpKSk4JFHHsF7772HK664oj+Wq8rKysLo0aM7BAGbNm2CJEm4/PLLO9wnvhfBrcFggMFg6Jf1/uEPf0B8fDy2bNmChIQEv/uqqqr6ZQ0DqT9f62Cef/55XHjhhbBarQO2hkCbN2/Ga6+9hsceewy//OUvAQArVqzA1KlT8etf/xobN24M63GWLFmCyy67rNNjrrjiCjz66KNYt24dzjzzzB6vnWi4YOaWaBj6zW9+A4/HE3b2VmvJkiUAgKNHj3a4r7S0FDfeeCOysrJgsVgwevRo/PjHP4bL5erxmoXFixdjx44daG1tVW/bsGEDpkyZguXLl+Obb77xq6/csGEDdDodTj31VAAd60Dvv/9+/OpXvwIAjB49Wr3Eq60TbWhowPXXX4+EhATEx8dj5cqVcDgcXa716NGjmDJlSofAFgDS0tL8vhd1rIcPH8YPfvADxMfHIzU1Fb/97W8hSRJKSkpw0UUXIS4uDhkZGfjTn/7U4TF37NiB5cuXIy4uDjExMTjrrLP8LlWHe1w4r0k4r0uwmlvxcxYWFnb5mq5fvx5z586F1WrF2LFj8cwzz6jnd+X48ePYvXs3li1bFvKY119/HbNnz0ZUVBQmTZqEzz77DJIkYcqUKfjDH/7Q5XN0x5tvvgmDwYAf/vCH6m1WqxU33ngjNm3ahJKSkrAfq6mpCW63O+T9c+bMQVJSEt59990erZlouGFwSzQMjR49GitWrMCzzz6LsrKyiM4VgUpiYqLf7WVlZZg/fz5ee+01XHnllfjrX/+Ka6+9Fl988UVYgWC4Fi9ejPb2dnz77bfqbRs2bMCiRYuwaNEiNDY2Yu/evX73TZw4EcnJyUEf75JLLlEvW//5z39WL/Gmpqaqx1xxxRVoamrC6tWrccUVV+CFF17AAw880OVaR40ahW3btvmtpytXXnklvF4vHn74YSxYsAC///3v8cQTT+Dss89GdnY2HnnkERQUFOCXv/wlvvzyS/W8ffv2YcmSJdi1axd+/etf47e//S2OHz+OpUuX+r1W4RwXzmvSk9clnHN37NiB8847D7W1tXjggQdw44034sEHH8Q777wT1uOLDOjs2bOD3n/PPffg+9//PmbMmIE//vGP8Hg8WLFiBT744AOcPHkSt912W4dz2tvbUVNTE9ZXqA1sO3bswPjx4xEXF+d3+/z58wEAO3fuDOvnW7lyJeLi4mC1WnHGGWdg69atQY+bPXt2h1IdohFPIqJh4/nnn5cASFu2bJGOHj0qGY1G6fbbb1fvP/3006UpU6b4HfvZZ59J1dXVUklJifTmm29KqampksVikUpKSvwee8WKFZJer5e2bNnS4Xm9Xm+v/Qz79u2TAEi/+93vJEmSpPb2dik6Olp68cUXJUmSpPT0dOnJJ5+UJEmS7Ha7ZDAYpJtvvrnDa3D8+HH1tscee6zDbZIkSffdd58EQLrhhhv8bv/e974nJScnd7nWTz75RDIYDJLBYJAWLlwo/frXv5Y+/vhjyeVydThWPNcPf/hD9Ta32y3l5ORIOp1Oevjhh9Xb6+vrpaioKOm6665Tb7v44osls9ksHT16VL2trKxMio2NlU477bSIjwv1mkTyugR7rcM994ILLpBsNptUWlqq3nbkyBHJaDRK4fxquueeeyQAUlNTU4f7vvzySwmAdOedd6q3vfnmmxIAaerUqX63a61bt04CENZXsNdNkiRpypQp0plnntnhdvG+fvrppzv9uTZs2CBdeuml0nPPPSe9++670urVq6Xk5GTJarVK27dv73D8D3/4QykqKqrTxyQaaVhzSzRMjRkzBtdeey3+8Y9/4K677kJmZmbQ4wIv6+bn5+Pll19GTk6OepvX68U777yDCy64QK3P1QrnMnK4Jk2ahOTkZLWWdteuXWhpaVG7ISxatAgbNmzALbfcgk2bNsHj8aj1tt31ox/9yO/7JUuW4O2334bdbu+QgdM6++yzsWnTJqxevRoff/wxNm3ahEcffRSpqan45z//iQsvvLDDOTfddJP6Z4PBgLlz5+LkyZO48cYb1dsTEhIwYcIEHDt2DADg8XjwySef4OKLL8aYMWPU4zIzM3H11Vfj2Wefhd1uR3R0dFjHdfYz9cbr0tW50dHR+Oyzz/C9733Prya8oKAAy5cvx/vvv9/l2mpra2E0GhETE9Phvr/85S9ITEzEPffco96Wn58PACgsLMTPf/7zoI85Y8aMsLsaZGRkBL29tbUVFoulw+2iLlhbbhOMuEIhXHjhhbjsssswffp0rFq1Ch999JHf8YmJiWhtbYXD4YDNZgtr7UTDHYNbomHsnnvuwUsvvYSHH3445O79J598EuPHj0djYyPWrFmDL7/8ssMv5+rqatjtdrWNWLhcLhfq6ur8bktNTe10E5JOp8OiRYvw5Zdfwuv1YsOGDUhLS1N3ii9atAh///vfAUC9HNvT4DYvL8/ve1GSUV9f32UQN2/ePLz11ltwuVzYtWsX3n77bfz5z3/GZZddhp07d2Ly5MmdPld8fDysVitSUlI63F5bWwtAfv0dDgcmTJjQ4fknTZoEr9eLkpISJCcnh3XclClTOv2ZQq01ktels3NbWlrQ2trqt/tfCHZbJMQHgQsuuCBo4Lty5Uqkp6cHPTcxMbHTGt5wREVFBe09K7qPREVFRfyYBQUFuOiii/DWW2/B4/H4/f8jKZ0SevMDJtFQx5pbomFszJgx+MEPfoB//OMfKC8vD3rM/PnzsWzZMlx66aV47733MHXqVFx99dVobm7u8fNv3LgRmZmZfl/hbKhZvHgxGhsbsWfPHrXeVli0aBGKiopQWlqKr7/+GllZWX5Zyu4IFWxLEbRYMpvNmDdvHh566CE89dRTaG9vxxtvvBHWc/XG8/eFnqyrr3+m5ORkuN1uNDU1+d1+7NgxNDU1dajFra6uBgDceuutIR/T5XKhoqIirC+PxxP0MTIzM4P+vyZu66p7SSi5ublwuVxoaWnxu72+vh42m61bQTPRcMXglmiYu+eee+B2u/HII490eazBYMDq1atRVlamZkcBOdsaFxcX0cYpwHeZV/sV6nKulrbf7YYNG9ROCIC8Q9xisWD9+vX49ttv/e4Lpb+zWqJ0I9QHikilpqbCZrPh0KFDHe47ePAg9Ho9cnNzwz4OGNhMX1paGqxWKwoLCzvcF+y2YCZOnAhA7pqgJYLYwEz46tWrg96uFezDWKivUB/SZs6cicOHD8Nut/vdLjbzzZw5M6yfL9CxY8dgtVo7ZKOPHz+OSZMmdesxiYYrliUQDXNjx47FD37wAzzzzDMYNWoUjMbO/7dfunQp5s+fjyeeeAI/+9nPYLVaodfrcfHFF+Pll1/G1q1bO9TdSpIUNFjq7mVe0R7qX//6F0pLS/0ytxaLBbNnz8aTTz6JlpaWsEoSoqOjAaDXhzisW7cOS5cu7fCzf/DBBwAQtDygOwwGA8455xy8++67OHHihFo/WllZiVdeeQWLFy9WywTCPa6vXpNwGAwGLFu2DO+88w7KysrUbGZhYSE+/PDDsB5j4cKFAICtW7di+vTp6u3x8fEA4PdB7JVXXlE7T3Q2nKQ3am4vu+wy/PGPf8Q//vEPtc+t0+nE888/jwULFqgfLgDA4XCguLgYKSkpatBdXV3doWvFrl278N5772H58uUdJrFt374d11xzTVhrJhopGNwSjQB33303XnrpJRw6dCisestf/epXuPzyy/HCCy+oG4MeeughfPLJJzj99NPxwx/+EJMmTUJ5eTneeOMNfP3110F7vXaXuMT/1VdfwWKxYM6cOX73L1q0SO0DG05wK86/++678f3vfx8mkwkXXHBBj9f5k5/8BA6HA9/73vcwceJEuFwubNy4Ea+//jry8/OxcuXKHj+H8Pvf/x6ffvopFi9ejFtuuQVGoxHPPPMMnE4nHn300YiPC/WaiKC3r91///345JNPcOqpp+LHP/4xPB4P/v73v2Pq1KlhtcsaM2YMpk6dis8++ww33HCDevukSZMwevRo/PWvf4XNZoNer8fDDz+MK664Av/+979x//3344477sC0adM6PGZv1NwuWLAAl19+OVatWoWqqioUFBTgxRdfxIkTJ/Dcc8/5Hbt582acccYZuO+++3D//fcDkFvFRUVFYdGiRUhLS8P+/fvxj3/8AzabrUPf6m3btqGurg4XXXRRj9ZMNOwMZKsGIupd2lZgga677joJQIdWYMGO9Xg80tixY6WxY8dKbrdbvb2oqEhasWKF2i5szJgx0q233io5nc5e/1lWrVolAZAWLVrU4b633npLAiDFxsb6rU/7cwW2avrd734nZWdnS3q9Xr1ftK2qrq4O6zECffjhh9INN9wgTZw4UYqJiZHMZrNUUFAg/eQnP5EqKyv9jg31XNddd50UHR3d4bG1bduE7du3S+eee64UExMj2Ww26YwzzpA2btzY4dxwjwv2mnS21sDXpbNWYOG8pmvXrpVmzZolmc1maezYsdI///lP6Re/+IVktVo7rDWYxx9/XIqJiZEcDoff7Tt27JBOOeUUyWKxSImJidLdd98teb1e6YYbbpCMRqP0wgsvhPX43dXa2ir98pe/lDIyMiSLxSLNmzdP+uijjzocJ1qP3Xfffeptf/nLX6T58+dLSUlJktFolDIzM6Uf/OAH0pEjRzqcf+edd0p5eXm92oqPaDjQSRKHUhMR0eBw8cUXY9++fThy5EiXxzY2NmLMmDF49NFH/VqpjQROpxP5+fm466678NOf/nSgl0M0qHBDGRERDYjAnq9HjhzBBx98gKVLl4Z1fnx8PH7961/jscceCzkxbLh6/vnnYTKZOvQTJiKAmVsiIhoQmZmZuP766zFmzBgUFRXhqaeegtPpxI4dOzBu3LiBXh4RDVHcUEZERAPivPPOw6uvvoqKigpYLBYsXLgQDz30EANbIuoRZm6JiIiIaNhgzS0RERERDRsMbomIiIho2BhxNbderxdlZWWIjY0d0PGTRERERBScJEloampCVlZWh8l8XRlxwW1ZWZnf+EMiIiIiGpxKSkqQk5MT0TkjLriNjY0FIL9YYsY6EREREQ0edrsdubm5atwWiREX3IpShLi4OAa3RERERINYd0pIuaGMiIiIiIYNBrdERERENGwwuCUiIiKiYYPBLRERERENGwxuiYiIiGjYYHBLRERERMMGg1siIiIiGjYY3BIRERHRsMHgloiIiIiGDQa3RERERDRsMLglIiIiomGDwS0RERERDRsMbomIiIho2GBwS0RERESDys0vbu32uQxuiYiIiGjQkCQJu07Wd/t8BrdERERENGhUNTnhcHm7fT6DWyIiIiIaNI5Vt/TofAa3RERERDRoHKtp7tH5DG6JiIiIaNBg5paIiIiIho1j1czcEhEREdEwcayGmVsiIiIiGgZcbi9K6hw9egwGt0REREQ0KBTXtcArATZz90NUYy+uh4iIiIgoYkW1Lbjz/3YjPc4KAMhPjsGhbj4Wg1siIiIiGlAf7q3AN8fq1O/zU2zdfiyWJRARERHRgKpvcfl9Pzo5ptuPxcwtEREREQ2oeocc3E7MiEW7x4tlk9O6/VgMbomIiIhoQNU72gEA1y4chWsWjILdbu/2Y7EsgYiIiIgGlChLSLSZe/xYDG6JiIiIaECJsgQGt0REREQ05ImyhMRoU48fi8EtEREREQ0Yr1dCAzO3RERERDQcNLW54ZXkPyfYmLklIiIioiGsTsnaRpsNsBgNPX48BrdERERENGDEZrKEXihJABjcEhEREdEAEvW2SdEMbomIiIhoiKtrkTsl9Ea9LcDgloiIiIgGUG92SgAY3BIRERHRAKprYVkCEREREQ0TYoADyxKIiIiIaMhjWQIRERERDRuiLCGRZQlERERENNQ1KGUJiSxLICIiIqKhro5lCUREREQ0HEiS5Ku5ZVkCEREREQ1lLS4P2j0SAJYlEBEREdEQV69sJrMY9YgyGXrlMRncEhEREdGAqGpqAyAPcNDpdL3ymAxuiYiIiGhA7ChuAABMyYrvtcdkcEtEREREA2LLiToAwNz8xF57TAa3RERERNRrJEkK+7itJ+oBAPMY3BIRERHRYPPuzlLM/t2n+Gx/ZZfHHq9pQW2LC2ajHlOzWZZARERERIPMJ/sqUe9ox6q398De1t7psSJrOzMnARZj73RKABjcEhEREVEvKW9sBQBUNznx508Pd3qsqLed04slCQCDWyIiIiLqJRWNbeqfX9x4Akerm0Meu62o9+ttAQa3RERERNQLPF4JlU1OAMDU7Dh4JeDfW0uCHtvgcOFYTQsAYHYeg1siIiIiGmRqmp3weCUY9Dr8+PQCAMA7O0pRWNWMs/60Hr/7z361k8LeUjsAIC/JhgSbuVfXYezVRyMiIiKiEalcKUlIj7Vg2eQ0JNhMqLQ7cdWz36C6yYmj1ccxKtmGFQvzsbesEYCc4e1tzNwSERERUY9VKJvJMuKtsBgNuHBGFgB5c5lBL4/WffD9/dhWVIc9pSK47b0WYAKDWyIiIiLqMZG5zYi3AgAunZ2j3vfwJdNw/vRMuL0S/v55IfYqwe20PghuWZZARERERD0mOiVkxEUBAKbnxOPny8ZDrwMum5ODOaMS8d/d5fjicDW8yhCzqVkMbomIiIhoEBKZ20wlc6vT6fDTZePU+8ekxmBWXgJ2FDcAAHISo5AY3bubyQCWJRARERFRL6gIKEsIRluq0BclCQCDWyIiIiLqBeV2eUNZZifB7QXTs2A2yuFnX2wmAxjcEhEREVEPeb0SKhvlAQ6dZW7jbSZcPT8PJoMOyyal98laWHNLRERERD1S53DB5fFCpwPSYkMHtwBw73cn4zffmaRmcHsbg1siIiIi6hFRb5sSY+kyaNXrdTArfW/7AssSiIiIiKhHAjslDCQGt0RERETUI8V1DgBAVnzUAK9kEAS3Tz75JPLz82G1WrFgwQJs3rw55LEvvPACdDqd35fVOvCfEIiIiIhGssKqZgDA2LToAV7JAAe3r7/+Ou644w7cd9992L59O2bMmIFzzz0XVVVVIc+Ji4tDeXm5+lVUVNSPKyYiIiKiQEeV4HZcWuwAr2SAg9vHH38cN998M1auXInJkyfj6aefhs1mw5o1a0Keo9PpkJGRoX6lp/dNGwkiIiIiCk9htRzcFqTFDPBKBjC4dblc2LZtG5YtW+ZbjF6PZcuWYdOmTSHPa25uxqhRo5Cbm4uLLroI+/bt6/R5nE4n7Ha73xcRERER9Y66FhfqWlwAgDGpI7gsoaamBh6Pp0PmNT09HRUVFUHPmTBhAtasWYN3330XL7/8MrxeLxYtWoSTJ0+GfJ7Vq1cjPj5e/crNze3Vn4OIiIhoJBP1ttkJUbCZB77L7IBvKIvEwoULsWLFCsycOROnn3463nrrLaSmpuKZZ54Jec6qVavQ2NiofpWUlPTjiomIiIiGNxHcDoaSBGAAhzikpKTAYDCgsrLS7/bKykpkZGSE9RgmkwmzZs1CYWFhyGMsFgssFkuP1kpERERE/tYdrMKJ2hYU1cptwAZLcDtgmVuz2Yw5c+Zg7dq16m1erxdr167FwoULw3oMj8eDPXv2IDMzs6+WSUREREQB6ltc+NHL2/DA+/vxxlb5qvhgCW4HtDDijjvuwHXXXYe5c+di/vz5eOKJJ9DS0oKVK1cCAFasWIHs7GysXr0aAPDggw/ilFNOQUFBARoaGvDYY4+hqKgIN91000D+GEREREQjymtbSuB0ewEALS4PAAa3AIArr7wS1dXVuPfee1FRUYGZM2fio48+UjeZFRcXQ6/3JZfr6+tx8803o6KiAomJiZgzZw42btyIyZMnD9SPQERERDSiuD1evPyNPGcgxmJEs9MNAChIHRzBrU6SJGmgF9Gf7HY74uPj0djYiLi4uIFeDhEREdGQ8t/d5bj1le1Iijbj2RVzcNU/vsWoZBs+veP0XnuOnsRrA9+vgYiIiIgGvXaPF3/57Aj+8eUxAMD35+VizqgkfHbH6Yi2GAZ4dT4MbomIiIioS69vKcHf18kdqpZOSMWPl44FAOQl2wZyWR0wuCUiIiKiLpU1tAIALp2dgz9ePh06nW6AVxTckBriQEREREQDo7G1HQCQnRg1aANbgMEtEREREYVBBLfxUaYBXknnGNwSERERUZcY3BIRERHRsGFXgtsEBrdERERENJQU1bbg3Z2l8Hp94xDUzK1tcAe37JZARERERH5+8e9d2FpUj5QYC04tSAHAsgQiIiIiGoJanG7sKGkAABTXOQAAXq/E4JaIiIiIhp4dxQ3wKOUINU1OAECzyw1RocDgloiIiIiGjM0n6tQ/VzfLwW2jQ87amo16WE2DZ9RuMAxuiYiIiEi1+Xit+ucaEdwOkZIEgMEtERERESlcbi92FDeo39c0uQD42oAxuCUiIiKiIWNPaSOcbq/6fWDmdrD3uAUY3BIRERGRYqtSbzs2NRqApuaWmVsiIiIiGmpE66/FSm/bpjY32to9DG6JiIiIaOhpUILYUcnRMBl0AIDaFpca3MYxuCUiIiKioaLBIW8gS4o2IyXGAkDuddvAzC0RERERDTUNSj/beJvJF9w2O1mWQERERERDjwhuE21mpMSYAcjBLVuBEREREdGQI8oSEv0yty5mbomIiIhoaHG5vWhxeQAACVFmpMTKwW11k68sIcHG4JaIiIiIhgCRtdXrgFirkTW3RERERDR0aTsi6PU6tea2qok1t0REREQ0xNS3iHpbOahNVTK3J2pa4JXkY9jnloiIiIiGBDVzq9TViprbqiZ5BK/FqIfVZBiYxUWAwS0RERERaTolyJlbUXMrDIWSBIDBLRERERHB1+NWdERIiDIhM96q3j8xM25A1hUp40AvgIiIiIgGXr0IbqPkzK1er8P7P1mMQxVNsBj1mJodP5DLCxuDWyIiIqJhxu3xorLJieyEqLDPaWz1DXAQUmIsSCmwhDplUGJZAhEREdEwc//7+3Dqw59j8/G6sM+pbxk6gxo6w+CWiIiIaJjZV2YHAOworg/7nHplQ1mCsqFsqGJwS0RERDTMiJ61J+tbwz5nKI3Y7QyDWyIiIqJhpk4Nbh1hn1Mf0ApsqGJwS0RERDSMuD1e2NvcACLL3IpWYEOln20oDG6JiIiIhhExaQwAShtaIUlSl+e0ujxwur0AgMRoZm6JiIiIaJAQ9bYA4HB51P61nWlQ2oCZDDpEmwf/iN3OMLglIiIiGkbqNMEtINfder1Spxlc0QYsPsoMnU7Xp+vrawxuiYiIiIYRsTFM2FPaiIUPr8WNL24NeU5DkAEOQxUnlBERERENI3Ut/mUIL248gUq7E5X2KlQ1tSEt1trhnIrGNgBA0hCvtwWYuSUiIiIaVgIzt4crm9U/bzpaG/Sc3ScbAQBTsuL7bmH9hMEtERER0TAiam5jrR0v0G8orAl6zs6SBgDAjFwGt0REREQ0iIhuCdNzOgaqGwprO2wsc7m92K+M652Zm9Dn6+trDG6JiIiIhpE6pSxharYvuD1ncjpMBh1KG1pRVOs/texghR0ujxcJNhPykmz9uta+wOCWiIiIaBgRmdtpmuD2/OmZmJWbCADYcNS/NGGXKEnISRjybcAABrdEREREw4rI3GbGR2HB6CRkxluxdHwaFhUkAwA+2Vfpd/zOEnkz2YxhUJIAMLglIiIiGlbEQIakaDNevfkUrPvlUsTbTLhoZjb0OuCLw9XYW9qoHr/rZAMAYOYw2EwGMLglIiIiGjacbg+anW4AQJLNDL1eB6tJHqc7OiUaF87IAgD8de0RAEBTWzuOVsutwqbnJPT/gvsAg1siIiKiYaLBIWdtDXpd0FZgt51ZAJ0O+GR/JQ6U27GvzA5JArITopASY+nv5fYJBrdEREREw4TocZtoM0Gv77g5rCAtFudNyQAAvLerTC1PmJod13+L7GMMbomIiIiGiXo1uA09RveMiWkAgC3H63zB7TCYTCYwuCUiIiIagkrqHFh3sMpvKIPolJAYHTq4nZefBEAeubutuB4AMDXIwIehisEtERER0RB0+2s7sPKFLXhvV5l6m8jcJnWSuc1PtiElxgKXx4uSulYAzNwSERER0QBqdLRjpzJ84YnPjsDt8QIAakVZQrQp5Lk6nQ7zRyeq32fEWZEaOzw2kwEMbomIiIiGnK1FdRDVCMdrWvDOTjl7W2l3AgDSYq2dnj93VJL6Z+2Y3uGAwS0RERHREPPt8ToAUNt9/XXtEXi9EirtbQCAjPjOg9v5o7XB7fDplAAwuCUiIiIackRwe9fyiTDqdSiuc6CyqQ3ljUpwG9d5cDsxIxYxFjkwHk71tgCDWyIiIqIhpcXpVlt4LZ2QhqyEKADAyfpWNXOb3kVwazToseo7E3HJrGycNj61bxfczzqOriAiIiKiQWtbUT08XgnZCVHITohCTmIUiuscOFbdrA5xyOyiLAEArlkwCtcsGNXXy+13zNwSERERDSH/3V0OAFig1M1mK5nbbUVyz1qzUY8EW+huCcMdg1siIiKiIeK9XWV4fWsJAOCS2TkAgJxEGwBfcJsRZ4VO13H07kjB4JaIiIhoCCipc+DON3cDAG5ZOhaLx6UAAHIS5czt0eoWAF1vJhvuGNwSERERDQH/2V2O1nYPZucl4BfnTFBvF8GtkB5Gve1wxuCWiIiIaAjYfLwWAHD+9CwY9L6yg5wkm99xGXHDZ9pYdzC4JSIiIhrkPF4JW0/INbULNAMYACA91gKjJtjtqg3YcMfgloiIiGiQO1BuR5PTjViLEZMy/SeKGQ16ZCb4AtquppMNdwxuiYiIiAY5MZFsbn6iX0mCINqBAdxQNuDB7ZNPPon8/HxYrVYsWLAAmzdvDuu81157DTqdDhdffHHfLpCIiIioD9U0O1Ha0NrpMaLedsGY5KD3i3ZgAMsSBjS4ff3113HHHXfgvvvuw/bt2zFjxgyce+65qKqq6vS8EydO4Je//CWWLFnSTyslIiIi6n2SJOHypzdh+RNforbZGfQYr1fCZiVzOz+g3lbQdkxgcDuAHn/8cdx8881YuXIlJk+ejKeffho2mw1r1qwJeY7H48E111yDBx54AGPGjOnH1RIRERH1rnpHO47XtMDe5sZXR2qCHnOyvhX1jnZYjHpMy44PeozI3KbEmGE2DviF+QE1YD+9y+XCtm3bsGzZMt9i9HosW7YMmzZtCnnegw8+iLS0NNx4441hPY/T6YTdbvf7IiIiIhoMSut95QhfHqkOeszJegcAOTtrMgQP3aZkyZvMJmTE9vIKhx7jQD1xTU0NPB4P0tPT/W5PT0/HwYMHg57z9ddf47nnnsPOnTvDfp7Vq1fjgQce6MlSiYiIiPpEaYND/fNXR2ogSVKH0bknlXrc7ET/frZakzLj8M6tpyIvKfQxI8WQyVs3NTXh2muvxbPPPouUlJSwz1u1ahUaGxvVr5KSkj5cJREREVH4Shva1D9XNzlxsKKp4zFKdlfbESGYmbkJSIo29+4Ch6ABy9ympKTAYDCgsrLS7/bKykpkZGR0OP7o0aM4ceIELrjgAvU2r9cLADAajTh06BDGjh3b4TyLxQKLZWRP6iAiIqLBSVuWAABfHq7u0MdWdFIIHLNLwQ1Y5tZsNmPOnDlYu3atepvX68XatWuxcOHCDsdPnDgRe/bswc6dO9WvCy+8EGeccQZ27tyJ3Nzc/lw+ERERUY+JsoTRKdEAgtfdhpu5JdmAZW4B4I477sB1112HuXPnYv78+XjiiSfQ0tKClStXAgBWrFiB7OxsrF69GlarFVOnTvU7PyEhAQA63E5EREQ0FIis7FXzc/HQBwex+XgdGlvbER9l6nBMFoPbsAxocHvllVeiuroa9957LyoqKjBz5kx89NFH6iaz4uJi6PVDpiyYiIiIKCIiK7u4IBXj00/icGUz1h6oxCWzcwDIPW7LG8WGMga34RjQ4BYAbrvtNtx2221B71u/fn2n577wwgu9vyAiIiKiCBRWNaO6yYmFY4NPDwvF4XKj3tEOQA5cz5uaicOVR/DBngo1uK1qcqLdI8Gg1yE9lnuIwsG0KBEREVEP3PjiFlz9z29woqYlovPKlHKDWIsR8VEmfGeavKH+yyPVaHa6AfhqcjPirDCG6HFL/vgqEREREXVTu8eL4joHJAn49nhtROeerPcvN5iQHovRKdFwub34/GBV0GOoawxuiYiIiLqprsUFSZL/vK2oPqJzxUYx0QVBp9PhvKly9nbtgUq/Y3K4mSxsDG6JiIiIuqnK7lT/HGlwWxakC8LCMXLd7q6SBgCaNmDM3IaNwS0RERFRN1U3+yaMHa1uQX2LK+xzgwWu03PiAQAnah1odLR3yO5S1xjcEhEREXVTdZPT7/sdJeFnb08GGc6QYDNjVLINALC7tIE1t93A4JaIiIiom7RlCUBkpQlFdXInBBHMCtNzEgAAH+2tQGFVM3Q6ebMZhYfBLREREVE3VTfLwW2a0oM23ODW4XKrWd9RSdF+981QShNe21ICAJifn4S0OGuvrHckYHBLRERE1E0iQD17sjxddffJRkiifUInimrlrG2CzYR4m8nvvhm5CQAAj1d+nAtmZPXWckcEBrdERERE3SSC2/mjk2DU6+BweVBhb+viLF9wOyrJ1uG+KVlx0OvkPxv1OnxnWmbvLXgEYHBLRERE1E1VSnCbnRCFPKV29mhV15PKiuvkY/KSozvcZzMbMV6psV08LgVJ0ebeWu6IwOCWiIiIqBskSVIzt6mxFoxJiQEAHKtp7vLcE0rmNj+5Y+YWAM5RyhyuPWVUbyx1RDEO9AKIiIiIhqIWlwet7R4AcnA7Ni0anx0AjlZ1HdwWK8FtXpCyBAD46bLxuHZhPlKVjWoUPmZuiYiIiLqhSqmtjbEYYTMbMVbN3HZdllCklCWMClKWAAAGvY6BbTcxuCUiIiLqBm1JAgCMSZUD1WPVnQe3LrdXnU4WqiyBuo/BLREREVE3iB63qTFycDs2Vc7clja0wuFyhzyvtKEVXgmIMhmYne0DDG6JiIiIukHN3MbJAWpitBmJSs/a452UJpyoVTolJNmg0+n6eJUjD4NbIiIiom4QbcBE5hYAxijZ26OdlCYcqWwC0HHsLvUOdksgIiIiitC2ojpsOloLAH6lBWNTo7GtqB7Hqv07JjQ62nGkqgk7Sxrw2MeHAADTsuP7b8EjCINbIiIiogj8Z3cZbntlh/q9qLUFgmdunW4Plv35C7WMAQDOn5aJm5aM6YfVjjwMbomIiIgicLBcLiuYlh2Pn541DmdNSlPvG50id0woqvUFt0erWlDd5IRRr8PEzFhcPDMbNy4ezXrbPtKt4Hb16tVIT0/HDTfc4Hf7mjVrUF1djTvvvLNXFkdERETUG9YdrEJ5YxuuXpDX48eqc7gAAGdNSsMyZZKYIOpoi5QhDQBwpEoOhmflJeCNHy3q8fNT57q1oeyZZ57BxIkTO9w+ZcoUPP300z1eFBEREVFvkSQJt7+2A795ew9KG1p7/Hj1LXJwmxRt7nCfmDjW2NqORkc7AOBIpVx/W5AW2+Pnpq51K7itqKhAZmZmh9tTU1NRXl7e40URERER9Za6Fhea2uS+s7XNzi6ODu/xACDR1jG4tZmN6gYzMYVMZG7Hp8d0OJ56X7eC29zcXGzYsKHD7Rs2bEBWVlaPF0VERETUW7TZWhHk9kS9I3TmFgBGJfmXJhypkjO345i57Rfdqrm9+eab8bOf/Qzt7e0488wzAQBr167Fr3/9a/ziF7/o1QUSERER9YQYdQsATW3tPX68uhb5MRKUgQ2B8pJt2FpUj+I6B5xujxrkjmPmtl90K7j91a9+hdraWtxyyy1wueRPL1arFXfeeSfuuuuuXl0gERERUU9oM7f21p5lbiVJQkOXmVtfx4QTNQ54vBJirUakcdRuv+hWcKvT6fDII4/gt7/9LQ4cOICoqCiMGzcOFgv/0oiIiGhwOanJ3Np7mLltcrrh9koAgtfcAr6OCSdqHTisTCMblxbD1l/9pEfjd2NiYjBv3jxMnTpVDWzffPPNXlkYERERUW/ozZpb0SnBZjbAajIEPSZPCW6Lax2stx0AEQe3brcbe/fuxeHDh/1uf/fddzFjxgxcc801vbY4IiIiop4q7cXMbWedEgSxoazC3oa9pY0AWG/bnyIKbvfu3YuCggLMmDEDkyZNwiWXXILKykqcfvrpuOGGG7B8+XIcPXq0r9ZKREREFLFezdx2UW8r7ou1yJWfXx+pAQCMT2fmtr9EVHN75513oqCgAH//+9/x6quv4tVXX8WBAwdw44034qOPPkJUVFRfrZOIiIgoYk1t7Whsbff7vidEp4TEToJbnU6HvGQb9pXZ4fJ4MT0nHgvHJvfoeSl8EQW3W7ZswSeffIKZM2diyZIlePXVV/Gb3/wG1157bV+tj4iIiKjbAieS9VbNbWKINmDCKCW4TbCZ8OTVs2Ey9GibE0UgouC2pqZGHdIQHx+P6OhonHLKKX2yMCIiIqKe0tbbAj2vuRVlCZ3V3ALA5XNycay6Bfd+dzJylRpc6h8RBbc6nQ5NTU2wWq2QJAk6nQ6tra2w2+1+x8XFxfXqIomIiIi6Q2Ruk6PNqNWM4Y2E1yvh4Y8Oot3jRavLA6DzmlsAOGNiGs6YmBb5gqnHIgpuJUnC+PHj/b6fNWuW3/c6nQ4ej6f3VkhERETUTSJzOykzDl8X1nQruP3n18fwjy+PAQBGp8gDGjqruaWBFVFwu27dur5aBxEREVGvO6lkbidmxOLrwhrYW9vVZFw4thfX49GPDqnfH69pAQAkdVGWQAMnouD29NNP76t1EBEREfW6arsTgK/PrNsroa3diyizAQ6XG9uLGrBobDL0+uDB7p8/PQy3V0KMxYhmpy/rmxjd+YYyGjgRbd3T6/UwGAydfhmN3ZroS0RERNTralrk4DY3yQYRv4p2YKs/OIgfPPctXt1SHPJ8Mbr3hsWj/W7vquaWBk5Ekejbb78d8r5Nmzbhr3/9K7xeb48XRURERNQbxESx1BgLYixG2NvcsLe5kRor4dP9lQCAj/ZW4JoFo4KeX9ssB8fLJqXh/60rhNsrAei6WwINnIiC24suuqjDbYcOHcJdd92F999/H9dccw0efPDBXlscERERUXe1e7xocMhZ2uQYC2KtJiW4bcexmhZU2NsAAJuP16Gt3QOrydDhfLuyAS0n0YYp2fHYVdIAAEjoos8tDZxudxQuKyvDzTffjGnTpsHtdmPnzp148cUXMWpU8E8+RERERP1J9KTV64CEKBPiouSAtKnNjQ2FNepxTrcXm4/XdTy/xf/8+fmJAIAYixEWo6HD8TQ4RBzcNjY2qmN49+3bh7Vr1+L999/H1KlT+2J9RERERN1S2ywHp0nRZuj1OsRa5QvWTW3tanBrNsqh0JeHqzue3+Ib2KDX6zAvPwkAkBzDkoTBLKLg9tFHH8WYMWPwn//8B6+++io2btyIJUuW9NXaiIiIiLpNG9wCQJwS3NY72rHpaC0A4PpF+QCAL490DG5Fva44/4yJabhmQR5+cc6EPl039UxENbd33XUXoqKiUFBQgBdffBEvvvhi0OPeeuutXlkcERERUXfVKp0SkqMtAIA4q1yW8M3RWtjb3Ii1GvE/p43Bs18dw+HKZuw52YhpOfGa8/2DW5NBjz98b1p//gjUDREFtytWrAi76TERERFRX5AkCe/sLMW8/CTkJNpCHqdmbpUyAlGWsO5QFQBg4ZhkJMdYsHR8KtYdqsYPnvsWL9+4QA1w65ROCSxDGFoiCm5feOGFPloGERERUXg+O1CFn7++C0vGpeClGxeEPE6UFaREi+BWztw6XB4AwOJxKQCAJ74/C9c/vxk7ihtw8/9uxYa7zoRBr+tQlkBDQ7e7JRARERENhMOVTQCArSfq4faE7q+vliXEKGUJUf45vUVj5eA2PsqEl25cAKtJjwp7G4pq5RG7dQ4R3Fp69wegPsXgloiIiIaUk/UOAEBruweHlEA3mMANZSJzCwAZcVaMTY1Wv4+xGDEhIw4AsK/MDkCzoYw9bYcUBrdEREQ0pJTUtap/3lHcEPI4sSEsJaDmFgAWFSR32Ec0Jcs/uPXV7DJzO5QwuCUiIqIhRWRugS6CW2VDWFJAtwQAWFyQ0uF4X3DbCMCXuU1mze2QwuCWiIiIhgyPV0JpgyZzW1If8liRuU0Okrk9NWhwK3dJ2F9mhyRJ3FA2RDG4JSIioiGjqqkN7R4JeqWi4Fh1Cxod7R2Oc7o9aGpzA/BlXsekxiDOasSC0UlIj7N2OGdiRiwMeh1qW1wob2xTx/cyczu0RNQKjIiIiGggnayXs7Y5iTbodcCJWgd2nmzA6eNT/Y6rb5EDXqNep5YjxEeZsGnVWbCaDEEf22oyYGxqNA5XNmPj0Vp4Jfn2RAa3Qwozt0RERDRklNTJ9bY5iVGYlZcIAPjiUMfRuTVKvW1itBl6vW/jWLTFCIM+9EAqUZrwlTKON85qhMnAcGko4d8WERERDRkic5ubaMMFMzIBAK9vKUaDUkIgdHczmNhU9vWRGvl8dkoYchjcEhER0ZChzdyeMSENEzNi0eLy4MWNRX7H+QY4RBbcLhybrJzPzWRDFYNbIiIiGjLUmtukKOh0OtxyRgEA4IWNx9HidKvHiR61yRFOF5uSFY/zpmSo3zO4HXoY3BIREdGQcbJBztzmJtoAAOdPy0R+sg31jnY8tf6oetzxGnmEbmZCx64IXfn1eRPUulx2Shh6GNwSERFRn/N6Jb/Mane4PV6UNbQBkLslAIBBr8NdyycBAP7x5TE1qN1bKg9imKpsEIvEmNQYXHvKKADAuPTYHq2Z+h+DWyIiIupzP3t9J+b8/lO/AQyR2lnSAI9XgsWoR1qsr9zg3CnpOH18KlweL+5/bx9cbi8OVDQBAKbnRB7cAsBvvzsZb/xooRrk0tDB4JaIiIj63LfHa9HW7sWukoZuP8ZfPy8EAFw0M8uvvZdOp8P9F06BUa/DF4er8fG+CrjcXsRZjchLsnXruQx6HeblJ8FsZKg01PBvjIiIiPqU1yupG7zKupm53VZUjy8PV8Oo1+G2M8Z1uH90SrTa6eCJzw4DAKZmx0OnC93TloYnBrdERETUpxpa2+FWxn11tyzhyXVy1vbS2TnISw6ejT1X6XJwtFquu53WzZIEGtoY3BIREVGfEtPCAKC0vnvB7ZYTdQCAFYtC18CeMzkd2kTttGwGtyMRg1siIiLqUzVNvuC2rDHy4NbhcqOpTe60MCo5OuRxaXFWzMpNUL+fnp0Q8lgavhjcEhERUZ+q1mRuRSuvSFTa5fOjzQbEWIydHnuOUpoQH2VCblJUxM9FQx+DWyIiIupT1ZrMbV2LC60uT0TnV9rlgDg9ruuBDJfMykZBWgyuWZDHzWQj1IAHt08++STy8/NhtVqxYMECbN68OeSxb731FubOnYuEhARER0dj5syZeOmll/pxtURERBQpbeYWiLw0IZLgNi3Ois/uOB2/Pm9iRM9Bw8eABrevv/467rjjDtx3333Yvn07ZsyYgXPPPRdVVVVBj09KSsLdd9+NTZs2Yffu3Vi5ciVWrlyJjz/+uJ9XTkREROGqaXL5fR9pOzBfcGvp4kiiAQ5uH3/8cdx8881YuXIlJk+ejKeffho2mw1r1qwJevzSpUvxve99D5MmTcLYsWPx05/+FNOnT8fXX3/dzysnIiKicNUEZm4jDm7l88PJ3BINWHDrcrmwbds2LFu2zLcYvR7Lli3Dpk2bujxfkiSsXbsWhw4dwmmnnRbyOKfTCbvd7vdFRERE/UfU3GYnyBu8Im0HVhFBWQLRgAW3NTU18Hg8SE9P97s9PT0dFRUVIc9rbGxETEwMzGYzzj//fPztb3/D2WefHfL41atXIz4+Xv3Kzc3ttZ+BiIhoqHpz20m1d2xfE5nb6cpQhdIIOyZUMbilCAz4hrJIxcbGYufOndiyZQv+8Ic/4I477sD69etDHr9q1So0NjaqXyUlJf23WCIiokHoWHUzfvnGLtz+6o4+fy6vV0Jti1xzO0PpQdtZWYIkSXh1c7Ff4F3BmluKQOfN4vpQSkoKDAYDKisr/W6vrKxERkZGyPP0ej0KCgoAADNnzsSBAwewevVqLF26NOjxFosFFgv/ZyAiIhJKlLKA8sY2tLV7YDUZev05mtra8Yf/HsDSCWnwKKN3pysTwzrrlrC1qB6r3tqDjDgrNq06EwBrbikyA5a5NZvNmDNnDtauXave5vV6sXbtWixcuDDsx/F6vXA6nV0fSERERAB8l/kBoKIx8qEK4Xhtcwle21KCX/x7JwAg0WZCXrINAFDe0AavEvAG2nS0Vl6XvQ2VdicaW9vhcnsBAGnM3FIYBixzCwB33HEHrrvuOsydOxfz58/HE088gZaWFqxcuRIAsGLFCmRnZ2P16tUA5PrZuXPnYuzYsXA6nfjggw/w0ksv4amnnhrIH4OIiGhI8ZsY1tiK/JTQI22769vjcllBizKwISXGgrRYOfPq8njR1OZGvM3U4TxtOcLe0kbkKFPGkqLNsBh7P8NMw8+ABrdXXnklqqurce+996KiogIzZ87ERx99pG4yKy4uhl7vSy63tLTglltuwcmTJxEVFYWJEyfi5ZdfxpVXXjlQPwIREdGQU2X3Bbfl3RiH2xWvV8LWIv/NaikxFpiNekSbDWhxeVDncHUIbt0eL7YV1avf7y1rhMkoxwFpsczaUngGNLgFgNtuuw233XZb0PsCN4r9/ve/x+9///t+WBUREdHwpR2HWx7htLBwHKlqRoOj3e+2VCU4TbCZ0eJqRb3DhdHwzxjvK7PDoRnNu7e0EVlK+zDW21K4hly3BCIiIuqZqiZftrasD2puNyulBfPyExFnlfNoKTFycJsUbQYANDh8U8saHC5sKKzBpmO1fsfuLbWjUllfBoNbCtOAZ26JiIiof/llbiOcFhaOLUq97akFKZiaHY/nN5zAxMxYAECCUopQ3+LL7P7k1R346kgNDHodAODqBXn42+dHUGFvw96yRgBsA0bhY3BLREQ0wlT5lSX0buZWkiRsVoLb+flJmDc6CedNycDc/CQAQKJNztzWK5nb8sZWfHWkBgDUlmFnTEjFB3vKUVjVjI/3yS1Dx6bF9Oo6afhicEtERDSCNDvdfnWtnQ1U6I6yxjZU2Ntg1OswMy8BJoMeC8Ykq/eLsgQR3P53dzkAYEpWHPJTouH2eDE9JwFTs+JQWNUMADhtfCrOn5bZq+uk4YvBLRER0QgietyaDDq0eyTY29xocboRbemdkOCoEpDmp0TDZu74mGpZgrLh7H0luL1ibi6uW5SvHjdnVCLe2VmGMSnR+NtVs2A0cJsQhYfBLRER0Qgi6m1zEm2oaXKiyelGeWMrCtJie+XxT9S2AADyk4P3zhVlCQ0OF0rqHNhV0gC9Dlg+zX866RXzcmEy6HHmxDTER3Xsh0sUCj8GERERjSCi3jY11oLMBLkDQVkv9ro9UeMAAOQr08gCicxtXYsLH++rAAAsHJusDngQLEYDvj8/D2nskkARYnBLREQ0gvgFt/FyD9nyxla0e7y98vhq5jbE1DNfK7B2HKpoAgAsGJ0c9Fii7mBwS0RENIKIsoS0WAuylMztYx8fwpR7P8bGwpoeP364ZQn1DhdK6uUsb15S8CwvUXcwuCUiIhpBxACHtFgrMuLkzG1NswsujxffHK/r7NQuuT1elNQpZQkpnZcl1DvaUVInd2rITYrq0fMSaXFDGRER0QiizdymKCNxReeE2mZnZ6d2qayhDe0eCWajHlnxwQNWUZbgcntRqrQhy01k5pZ6DzO3REREI0iV3Vdze/r4VGy460ysWj4JAFDb7Ors1C6JkoS8JBv0yrSxQFEmA8xGX/hhMeqRGsvpY9R7GNwSERGNAG3tHjy5rhDHauQ+tGnKONvshChkxMu1t7UtPcvcdlVvCwA6nQ6JNl9rr9wkG3S64IEwUXewLIGIiGgEePA/+/HKt8UAgNl5CRib6htnm6yUCvQ4c6u0ARsdot5WSLSZUalkkHMTWW9LvYvBLRER0TDn8UrqmNv7L5iMFQvz/coGkmPkLG5ND2tuReZ2VCeZW8DXMQGQM7dEvYnBLRER0TC3r6wRja3tiLEY8YNTRnWoh02JkYNNe5sbLrcX9rZ26HU6dfNXuE7UyMHt6BA9boXEaF9ZAtuAUW9jzS0REdEw97XSv/aUMckwGjr+6o+zmmBUAt6T9Q6c98SXuPjJDRENdqhrceG4krkdlx7T6bEJmsxtDjslUC9j5paIiGgIKKlz4Lmvj+NQRRMSo0144spZfl0HOrOxsBYAsLgg+CQwvV7O0lY1OfHNsTrUNLsAuLCzpAHz8pPCeo6vC2sgScDEjNgOo3QD+W8oY80t9S5mbomIiMJQWNWEn762A4VVzQPy/I99fAgvbDyBTcdq8cGeCnxzrDas89raPdh8Qh7OsHhcSsjjUpS6221F9eptXxyq7vSxm9ra8edPD6OkzoEvD8vHnjY+tcs1seaW+hKDWyIiojC8trkE7+4sw0ubTgzI84sWXvFRctZz98mGsM7bVlQPl9uLjDirX4eEQMlK3e32Yk1we7jz4Pb/rT+Kv6w9gh+9vA1fHVGC23HhB7cJNhPirKYujiaKDINbIiKiMDS0tgMAjla3DMjzi1G150xOBwDsPtkY1nnblUzsKWOSOu0nKzK3x2t8P9+e0saQHRQkydeBYV+ZHZV2J6wmPebmJ3a5pqwEuRShoJNgm6i7GNwSERGFwa4Gt/1flmBva0ej8vzfmZ4JIPzgVgSnXW3cSg7RGeHrIzVBb99XZkdxncPvtgWjk2E1Gbpc04LRSXjk0mlYfcm0Lo8lihSDWyIiojDY2+TgsryxDQ6Xu1+fu0QJIpOizZifnwS9Dqiwt6HK3tblubUtLvXczohet8ISpT53/aGqoMf/d4+ctV02KR1jlNZfSyd0XZIAyBvYrpyXh3HpsWEdTxQJBrdERERhaGrzBbTH+rk0QZQk5CZGIdpiREGafDk/nOxtnRLcipraUFIC7l95aj4A4LMDVWh1efzukyQJHyrB7UUzs7Dm+nm487yJuHpBXtc/DFEfY3BLREQUBpG5BfqnNKHZ6caZf1qP37y9Byfr5cxtjtJZYHpOAgBgd2n4wW1XmdsUTeY20WbC0vFpyE2KQrPTjU/2V/gde6SqGSdqHbAY9ThzYhryU6Lx46VjYTF2XZJA1NcY3BIREYXB3tq/mdu9pY04Vt2Cf28pwaGKJgBAbqIIbuMBhNcxQZQlaNtvBaPN7I5KjoZer8Mls3IAAG9uO+l37OFKeT1Ts+MRbWHLfBpcGNwSERF1QZIkNPVz5lZkXN1eCR/tkzOnYuDBtGwR3DZCkqSQjyFJEurDLEvQ1tzmJ8tB9CWzswEAGwprUNHoq+8VG8lGsUctDUIMbomIiLrQ4vLAq4kh+yNzW6tpwSXqfUXmdnJWHMxGPepaXDhR6wh6PgDY29xwKwvvckNZtH/mVvx3Xn4ivBLwn91l6v1qDTCDWxqEGNwSERF1QbQBE47XtMDrDZ0x7Q2inEBLBJMWowEzlNKELcr0sWBE9jfGYuyyHtZqMiBGKTHIT/EFracWyF0Tjmn634ruDXkMbmkQYnBLRETUBbGZLD7KBJNBh9Z2D8rDaMPVE3UBwa1OB2QlWNXv5+YnAQC2dhrcytnfrrK2wiilHGFiRpx6W2qsXK5Q3eTLJIuyBGZuaTBicEtERNQFURaQFG1Ws5XH+rjuNjBzmxFn9cu+zlMmgW09UY9QapuVzWRhBrd/u2oWnrtuLiZl+oJb0UVBBLdujxelDXJZAjO3NBgxuCUiIuqCKEuIsxqRr9SjBk7n6m11SmBqNcm/qnMDJozNyZMzt8dqWkKOyFV73IYZ3I5JjcFZk9L9bhOZW/Ec5Y1t8HglmI16pMVaOjwG0UBjcEtERNQFUZYQazWpl+L7PLhVAtNLZsvtuOYqmVoh3mbCBGXC18vfFOGva4/4bUIDgDpHeD1uO5OqydxKkuQrSUiMgl6v6/bjEvUVNqcjIiLqgihLiIsyIidRbsd1UukY0FdEWcI1C/Jww6n5Qetb5+Yn4lBlE5747AgAwOX24pfnTlDvF9nfcDO3wYiyBKfbi2anWw1uWZJAgxUzt0RERF3wlSX4Mrcl9X2XufV6JdQrWdeUGAsK0mKDdjtYMi7V7/t9Zf4Ty0T2N9ya22CizAbEKl0UqpucDG5p0GNwS0RE1AW7krmNtRrV2teSMMoSPt1fiR3FoTd8hdLY2g6P0mqss8li505Jxz9XzMUjl04DAHWSmVAb5ujdrqRoOiaUsFMCDXIMbomIiLogppPJmVu5LKHe0Y5mpzvkOQcr7Lj5f7fif17aFvHziaA01mqE2Rj6V7VOp8OyyelYPi0TAFDW2IZGh68nb6QbykIRdbc1zS72uKVBj8EtERFRF+ytoubWhFirCQk2E4DOs7ef7a8EAFQ1OdUNaeGKNCiNs5qQnSAH3Ycqfdnbul7L3MrnVze1+coSkhnc0uDE4JaIiKgLIjiNi5JrT0XWsrPgdu3BKvXP5Q2RDXyIdPgCAEzMkDsnHKywax5HBMk9a9klMrcHK5pQ72iHTsfMLQ1eDG6JiIi6oNbcWuSMrVp3Wx+8Y0JNsxM7SxrU78saI+us4KuVDT8onZgpgls5c9vq8qC13QMASIw2RfT8gUSv23WH5IB9TEo0bGY2XKLBicEtERENWq98W4y/rj0y0MtAk+iWECUHiTlK3W2ozO36Q9WQJN/3ZQ2dB7cnalrwi3/vQmGVHJh2p4XXBGVk7sFyOXNbq2R/zQY9Yiw9C0RFO7BKu/yY07Lje/R4RH2JwS0REQ1KXq+E+9/bh8c/PRw0ODxU0YRPlbrWvhZYltBZxwSX24v/7C4DABiUIQddlSW8/E0R/m/7Sbyw8QQATeY2JvzgdpJSlnC4shler4TyRvk5k6LN0Ol6NmwhNWAS2VQGtzSIMbglIqJByd7WDpfHCwCoVTKZWrf8axtu/t+tKKxq7oe1iFZgSllCiF63XxyuxuJHPsf6Q9UA5FZdQNeZ22M1LQCAUqXMobYbXQ5Gp0TDbNCj2enGE58dxo9flrs0jEuPCfsxQhGZW4GZWxrMGNwSEdGgVK9paSUGGgiSJKn1rkcq/Xu79ra2dg9cbjnIjrOKzK0oS2iFpNQf2NvaccfrO1HV5ERarAW/v3gqzp2SAaDrmtvjSnArsq1iQ1lyBJlbo0GPyVlyacJfPy9ETbMLkzLj8ND3poX9GKEEZm7F8xANRqwGJyKiQUns9Ac6BrcOly/gLA5jmEJPiJIEvQ6IVjZRZSdGQacDWts9qG52Ii3Wir9/XojaFhfGpEbjg9uXwGoyYPPxOgBAWUMbXG4v9pQ2YnZegl+ZgNvjVcsbRIZXZKoj2VAGAH+8fAb+b/tJHK1qxuiUaPxs2XhEmTtONouUNsgekxKtZrCJBiMGt0RE1GsKq5px99t7cPtZ43BqQUqPHqtBE9DWt/gHt9rAt6iPg9smpSQhxmKEXqmhtRgNyE20objOgaNVLXA4PXh+w3EAwG/PnwyrSQ4osxKsAICKxjb86ZNDeObLY1h9yTRcNT9PffyT9a1we0X2140Wp7vbwxcK0mJw53kTe/DTBmcxGhAfZUJjazvrbWnQY1kCERH1mg/3lOPb43V4ZXNxh/uOVjfjtEfX4aVNJ8J6LG1ZQp3DfwiCNrgNZwxuT9gDOiUI49LkWtbCqia8vaMU7R4JiwtScMbENPWY9DgrdDrA5fHitS0lAID1h6r8Hud4bYvf9yX1Dl9wG0FZQl8TpQmst6XBjsEtERH1GhGQVjZ27A7w9ZEaFNc58PI3HQPfoI+lCWAbAsoS6jTf931ZgjKdLOBSfIEa3DZjb2kjAODsyel+x5gMeqTHytnbRiVI3l7coNbpAsDxav/gdmNhLdxeCTazQT13MJg7KhFGvQ6njU8d6KUQdYrBLRER9RoRhFbYOwa3VU3ybYermtAUxjhabZ1tfWDmVtM9obS+FW6lq0JfEEF2fFTw4PZIVTP2lsnB7dTsjhutMhP8A9TqJidOaoY/nAjI3H5xWO60MC49Vi2DGAwe+t40bPvt2ZigtBwjGqwY3BIRUa9pULKTVXanX3YSkIM6AJAkYFdJY5ePVd9Jza32Premp2tfEIF6Zrx/kCqC250lDai0O6HTAZMyOwa3WQlRHW7bXlyv/ll0SrCa5F/J3xyrBQCMT+t5C6/epNfrOgT4RIMRg1siIuo1InPr8ng7ZFurlOAWAHZogrtQ6ltCtwKrCwh2+7I0oUIJnNNDBLcOlzzidmxqTNCRtFma85aMkzfZ7ShuUG8Twe28/CQAgFPpAsEMKVH3MLglIhqhjlU344UNx3v1kn6DJqCtCMimVmuD25KGLh8r3MwtABTV9n1wmxHnH9zGWk1+2dypIXq/isxtblIULpuTA8AX3DvdHrX916Kx/t0lxqUzuCXqDga3I1hhVTN++cYulHYxOYeIhqeHPjiI+9/fj39vPdlrjynKEgCg0t5JcFtc71e2UNPsxLl//hJPritUb+us5lb0gbUY9erj3fnmbnx9pKYXfgp/oiwhI77j5q4CTelAqBZZ50zJwMSMWPzkjHGYnZcIANhXZkdbuwcldQ54JbnN2PQc//PH98JkMaKRiMHtCPbCxuN4c9tJ/PnTwwO9FCIaACeV0bFfHK7q4sjweL2SX1cD7aYyj1dCTbMvuK13tOOEJtu6obAGhyqb8MLGE2rQqw1oW9s9aGv3aM6Xn0e0pXpj20m8vrUEf/r0UMj1ebwStp6oQ3uEmepQmVvAP7idkhU8uM1OiMJHPzsNV8zLRU5iFFJjLXB7JewtbcSRSnl08OiUaL8scKzVGPT5iKhrDG5HsIpG+RfNZwcqI/7HnoiGPhFsbiys7ZXShCanG17NHjJtWUJdiwteCdDpgBm5CQCALcr0LgBq94DqJicq7G2QJKlD+y9tJlfU3IrHEgormztsZBP+b9tJXPb0JjwewQd6j1dCtfI6dZW5DWckrU6nwyxlzduL67HzZAMAOeubGe/beDY+PdZvihkRhY/B7QgmfrE1ONrVEZFENHQ0Otrx2f7ufTj1eCU1QGxyurFLCbJ6IjAY1ZYliDZgydFmnDFB7pP6l7VH0OyUe8hqBzHsKmlEs9ONdo8cpMZa5E1a2k1k4s8zA4LbJqfbb+Oa1j6lXdf7u8pCBsCBapqd8HglGPQ6pMR0HIU7PVt+/gnpsWF3Epg9Si5N2F7UgJ3KxrJZuQmIMhuQpEwkG896W6JuY3A7gmkvEX64t3wAV0JE3fHoxwdx0/9uxQd7Iv//t97h8suyfnm457WqDQF1sdrgVtTbpsZa8cPTxiA3KQqlDa145MODAODX93X3yQb1sSxGvdonVtzm8Upqbe+C0Um4fE4Oblo8GvnJNgDyfoJgRAb2ZH0rjoQ4JpBoMZYWa4EhSM/ZaTnxeO66uXjymtlhPR4Ate52W3E99ijDH2bmJQDwtRtjvS1R9zG4HaEkSfLb3PHxvkp4veFlMohocBDtr4q70SlA++EWAL4u7IXgttU/uK2w+57DF9xaYDMb8cgl0wEAL31ThCOVTWr9LwDsPtmoZmYTbWYk2uRspihLaGxth0i8Jkab8djlM3DPdyer3QVCBreaf/M+PxhenbHaBqyT+tezJqX7lSd0ZVp2PIx6HaqbnHC4PIi1GFGQKp9/4YwsZMVbcdbE9C4ehYhCYXA7QjU73WovxWizAdVNTuwu7bqpOhENHmKca2Nr19O+AtU0yYFigk2+lL6zpAH2MKaGdUaUJYhL6/5lCUpwq1zaX1SQglMLkgEA3xyv8+vasvtkgzpeNzFaE9wqAW9di/xY8VEmmAy+X2O+iWFNQdenLVf4/EDnwe2qt/ZgyaOfq6UMvbm5K8ps8Bv2MD03Xp1E9j+nj8XGVWchT8lCE1HkGNyOUDVKG51os0FtX1PSx/PZiah3aTOZkRKZ28mZcUiKNsPjlVDe0LMpX6JsYIKSQa1rccHpljsciKxpWpyvbnWaUq+67mAV2j0SjHodzEY97G1utRY10WZCYrQcgIvuCXXKcAcRRAsi+xlO5nZbcX2HGmHB45Xw1vaTKKlrxUvfFAEIvpmsJ2YrZQhAx7phIuoZBrcjlPhHPiXWguQY+RdEbXPwTRhE1HMf76vAM18cDXsjUzhEMNmT4DYlxqJuhOrO42iJYDs/JRpmpf9slVKaUB2QuQWAKUp3AdGbNishCpOVjOYXh6sB+Gdu69TMrShZ8N/AJTK3hVXyxC/ta93sdKuTxHKTouDxSvh0f2XQn+NEbYt6ZUu8xr0e3CqbygBgZm5iJ0cSUaQY3I5Q2l9sydHyL5valuBZDCLqud+8tQerPzyI9Yeqe+Xx3B4vmtrkTgPdKSeo1vwbEGeVuxHYexjcikAw0WZCupKhFb1utTW3gmid5VK6PeQkRqlZTNG9IdFmUoNbkWkVwW1StH/3grFKcFvT7MRPXt2BRQ9/rnZpEM8fbTbgyrm5AIB/fVsc9Oc4WN6xrKG3e86KTWUAM7dEvY3B7QjlC27NauZWlCpQz5XUOfDf3eW9mqWjoavd41U/PL6xraRXHtOuBLYA0Njq7uTI4ETNbUqsGXG9lLkVwWeizawGg2JDlgim0zTB7ejkaNjMBvX73EQbLpuTA50Ovg1jNjMSlfKDOiV4rldre/0ztzEWI7KUDOv7u8pQ3tiGb4/JbQ61wfWV8/JgMuiws6QB24rq8JfPjuCjvRXq4xyssHf42Xo7c5ubZMNdyyfi3u9O9gv4iajnGNyOUDWaf+iTlcuEYpMG9dyqt/bg1le2Y+PR2oFeCg0C2uEDn+6v9OvX2l3aetHuZFy1V29EcKvNAH+0twJn/ml90EAv5JqUdcTbTMhJlDdEiY4OVUoGVxvI6fU6v41VOYlRmJodj8tm56i3yd0S5PUFZm4TA2puAV/2VihvlDeqiQxuWqwVqbEWLJ+aCQC4+tlv8efPDuNXb+yCR+kYc0DJ3GrLHvpiWtiPTh+LGxaP7vXHJRrpGNyOUNV+ZQmi5paZ295ysEL+5XikMviubercuoNV+PJw71y+Hwy0wWy7R8K7O0t7/Jjatls9qblNDVFz+/qWYhyrbsEbW08CAN7cdhIfddEP21eWYFbrXw9XNqHF6UaLUu+aFhAkTtFM9cpNkgPiX503AdFKRjc5xqx+AN9XZseqt/aoWdYkW8fgVlzut5rkX29lDcHLIlYsHAUAam1tk9ONQ8r/twfK5YD+Rk3g2VkrMCIaXIwDvQAaGNXikqQ2uGXNba9odXnUwEHbmH4o+s/uMuQk2vq1JrDZ6cb/vLQNXknC5ruXddgRPxQFZmrf2HoSK0/tWcauUTMwodnphtvjhdEQfr7CL3NrVTK3mvKGE0rv3D2ljSiudeCXb+yCyaDDjntTEWMJ/qtDZFYTbCZ1wtaRyma17jbKZFCDVkEb3OYkyuNn02Kt+POVM/H+7nKcNSkdFqMe352eif/sLserm+U62fgoE04bn9phDT9eOhYLRifhYEUTHvzPfrUsoioguJ0zKhFnT07H0epmmA16HKxowrbieuQowyUA4JoFo1Bc50BitBlRAesmosGLwe0IpWZtNGUJ7JbQO0o0zehFcFtU24KEKDPibeGN5xwMjlU347ZXdiA7IQob7jqz3563rtmlbjD66kg1LpqZ3W/P3VdEcDshPRbHa1qwv9yOvaWNahu+7mho9Q+Y7W3usD8IeL2SeqUmJdbcIXPr9njV1oD7y+z45rhcXtPukbD7ZAMWjU0JsSbfhjLRFeFodbPa1mtiZix0Ov8pX1OyfK+BKGUAgHOmZOCcKRnq93+/eja+N6sSazYcxymjk3HdqflqUK5lNRmwqCBFHesryhICM7c6nQ7PrpgLAPjzp4fl4PZEHSZmyEF5dkIUEqPNePSyGUF/ViIavFiWMEKprcA0mVt7mxsud+Qz6smfdlrUyQYHjte04OzHv8Str2wfwFVF7niN3E6ptKG1X98X2kvjvdVZYKCJ4QOjU6JxzhR58tQbW3u2sSxw1G0kpQmNre1wK/WlydEWxEUp3RKUmtuT9a3q/c1ON95UShMAYIcSqAbyeCV1DfFRZuQm2WAx6uF0e/HurjIAwKwgLa/Gp8ciP9mGCemxfpvNgjlrUjr+ddMp+MlZ44IGtlpZCXIWuKwxdLcGYc4o3zjcg0pJgghyiWjoGfDg9sknn0R+fj6sVisWLFiAzZs3hzz22WefxZIlS5CYmIjExEQsW7as0+MpOEmSOtTbiZnpvbHRZaQLzNxuOV4Hl8eLb4/Xot0zdD48lGkmRonNOP1Bu6npy8PVfToW+ptjtZj3h8/wvhJ89ZVazQaoy5U2VO/sLENbu6fbj9mT4Fb8/x8fZYLZqO+QuT1e2+J3/OYTdeqfdxTXB33MpjbfSFzxb4qou/3qiPwhZZZmcIFgNurx6R2n4z+3L1andPWGTKW7QU2zEy63Vy1LCBZAz8xLgE4HlNS14p2d8nthAoNboiFrQIPb119/HXfccQfuu+8+bN++HTNmzMC5556LqqrgYxHXr1+Pq666CuvWrcOmTZuQm5uLc845B6WlPd+cMZJoR++mxJqh1+vUy5mB8+YpcsWaSW8NjnZsK5KDgXaPhBM1LaFO6zNFtS1YtHotnvniaETnlWqmVWnHqPY1bZBW2+LC3rK+Gwv9xeFqVDc58UqIfqddaXa68ermYvUSeCjiQ2NytBmLC1KQGW9FY2s7PjsQfIhAOAKD2UiC22pNK0AAmppb+TE6e59uL24I2uJOTA+LsRjVAQ7jlOBWHK4dXKBlMuj9xuj2hqRoM8xGPSRJfv92lrmNs5rUqWrbiuph1Ovw3elZvboeIuo/AxrcPv7447j55puxcuVKTJ48GU8//TRsNhvWrFkT9Ph//etfuOWWWzBz5kxMnDgR//znP+H1erF27dp+XvnQph29azPLlyNFaQIztz0XOMZ47UHfh7XDlcHHgvalb47VoqyxDW9tj+xDoDZzW9HYfx96AoO0LwJKE4prHRG1p+pMnfL/wrbi+m5lUe/8v91Y9dYePP7J4c6fRx06YIZBr8Nlc+RWVw/990DIUbFdCRwdG1nm1rehFICauQ0MbrVZzvxkG8wGPepaXH4f4ATRSlA8FgCMS/dlP9NiLWoP2v6g0+nU7G1JvQO1LSJzG3wN2sD7zvMmqgMmiGjoGbDg1uVyYdu2bVi2bJlvMXo9li1bhk2bNoX1GA6HA+3t7UhKSgp5jNPphN1u9/sa6bSjdwV1BC973fZYSZ1/hwRtNvzQALQGExm1YzXNcEdQFiE24gC+KVP9QQRYIvv3VWGNep8kSbj8mY246O8beuWDWJ0SILrcXmwvCn65PZQdxfX47265NdYHe8o7LZ/QBrcAcP2ifIxJjUZZYxsuf3pjtzL6DWFmbgurmvDuzlK/bGtNwL8Bvj63cgb6mLKe86dnqucsHJuCKdlywLc9SGnC7pNyhr1A02d2vCa4nZWX0GEzWV8Twe2+UjskCdDrEHLT3dmT5FroZZPS/VqAEdHQM2DBbU1NDTweD9LT0/1uT09PR0VFRYiz/N15553IysryC5ADrV69GvHx8epXbm5uj9Y9HGhbAAnqCN5B0uvW6fZgW1G92lR9qJAkSc1qBduQMhB9b8UAgXaPpLZ3CkdZmGUJFY1tEQXNXRFB2nSlk0CRpv6z3tGOSrsTTrc3ZO1nJOo1AXIkAzckScLqDw+q31fY29RxscEEBrfJMRa8+aNFmJQZh3pHO97eEXlplXbULRB6kMPPX9+Fn762E2sP+K4giKy8GEwgsq2ipdgJ5TU/W2nDBQDz8hPVDWHbizr+rJuPy3W580f7kg3jNIGudtxsf8mKlzeVib+blBiLur8g0BkT07Dul0vxzLVzerX2l4j634BvKOuuhx9+GK+99hrefvttWK2hL3WtWrUKjY2N6ldJSe+MvhzK6jUjMoXBNoL3758X4tKnNuL/tp3s+uBBpKbZhdZ2D3Q6YMHojlcUBiJz29DiC3oKq8J7frfH65etFb1CA+052YhTVq/Fr97c3bNFaojgVlwWloNZuWRAm03eVdLQ4+eq8wtua4IeU2Vvw8vfFPnV1X57vA6bj9fBYtSrf88f7Qv9oTwwuBV/Pmey/OFebHaKhChLyEuOBhA8c9vsdKs1yx9r1ndEKYUQWdZYq68rZF2LC6VKC7uCtBhcOS8XY1KjccaENMwfLQeo/7f9JPac9NVCS5KkBrfa931ukk0dpjBrAIJbMTL3C2UgiBgSEcrolOiQwS8RDR0DFtympKTAYDCgstJ/Q0VlZSUyMjJCnCX74x//iIcffhiffPIJpk+f3umxFosFcXFxfl8jna9dj682LmWQjeAVE4IO9zAYlCQpouxvu8eLDYU1aHV1bxe76JSQFR+F0SnR6u1il/iJmpYe7ZDvDu3o1yNh1vxWNTn9XrdQZQkblIBwa1Fd0Pu7Q1waH5UcDZvSOF9kkcs12eRdJ3u+0axO89rsOtkYdGPYQx8cwD3v7MUNz29R/+5EIHfulAysWJgPQB5XG2yjlSRJ6t9B4CVxsbmpOxs5RVnCKCVga3R0DG53lTSom7k+P1il/p2KOl+RWTUZ9Opwhb1ljfBKck1+aqwFD140FZ//YikSo804a1I6loxLgcPlwcoXtuCk8n4/VtOC2hYXzEY9puX4+tYa9Drcf8EU3LR4NOaG2EzWlzKVdmBNynvqwhncJEY0EgxYcGs2mzFnzhy/zWBic9jChQtDnvfoo4/id7/7HT766CPMnTu3P5Y67IjgNkEzUCBpkI3gFcFMT7s33P7aTix6eG2HzTehvLalBNf881s8ua6wW88nNpPlJEb5NaRfMi4V8VEmeCXgWHX/dkzQtow63MnmJW0vW+1mMiB0WYL4EFJa33u9cLUfvsTEKhFEaTO3u08G37UfLrfH6/dcHq+ELcf9g3RJkvC1UvO7+UQdbv3Xdni98iADAJiZm4ClE1JhMepRVOtQxy5rNTndaPfI6wwMbsWHSlEH/82xWmw90fUHBa+mp+yoZCW4DZK51ZZu1La4sLOkAc1OtzqBS1sfK+pud5Y0Ko8b3aFG1mTQ4/9dMxuTM+NQ0+zEP748Jr82yus2KzcBFqP/JK/vz8/DPd+dPCCX+rUb2CxGPS4eBgNBiKhrA1qWcMcdd+DZZ5/Fiy++iAMHDuDHP/4xWlpasHLlSgDAihUrsGrVKvX4Rx55BL/97W+xZs0a5Ofno6KiAhUVFWhu7v8d6EOZyPBoM7eiW0LNIOmWIDKFPR0JvKGwBpV2J745Fl5msbDSf7Z8pMQAh7wkG3KSotTbJ2XEYny6HEj0NBsdKf/MbfDnXnewClPv+xivb5FbYongJ1vJfFU0tgUNJPeXya+TV/Kd01MiSIuzGtUPCGLSW5mmPKLe0d5h816kzyNJgE4HnK2UBwSWJhRWNaOmWc5IWox6rD1YhS+PVKubp2bkxiPaYlTrSYO9b0Rdr81sgNXkH/hpM7fNTjdWrNmMFWs2q2UYoTS1udWMbF5SZ8FtAwDArLTZWnugEkeVDzipsRYkaEqTxL8HIiAenRqNYGKtJvz87PEAgK+OyK/XliAlCYNBZrzv/8HvTMscUhMCiaj7BjS4vfLKK/HHP/4R9957L2bOnImdO3fio48+UjeZFRcXo7y8XD3+qaeegsvlwmWXXYbMzEz1649//ONA/QhDUrDMbfIgKktoa/eoNYrV3ahF1GpRLjPvC7NXqqh9FMFUpERQnpngn7mdkBGr7hzv/+DWF/Qcq2kJuvnrW2XQxKf75U1HInM+UymncLq9HYYGtLV71F31gP/Gr56wd5a5DQigO9vEFco/vjyKp784qr7H4qNMWDJOHicbuKls0zH5+3n5ibhUad/1yrfFqGpywqDXYXKmfAk+W1mnyHh/vK8CL31ThI/2Vqj1q9oadyFVk7ktrnXA5fbC4fKo54QiRu/azAa140FgcCtJEnYodclXL8gDAKw9UKXW22o3ewG+Xreia8SE9NBDDBaMSYJBr8PxmhaU1DnwrbqZLLnTdfe3rARf5vb787iZmGikMHZ9SN+67bbbcNtttwW9b/369X7fnzhxou8XNAIEq7lNHkRlCdpL4D3J3Lo9XnVYxZ7S8IJbEUyXNrRCkqSIWxeJgCklxowYixE3LR6NpjY3RqdEq5eA+7MsQZIkv5IMl9uL4joHxqT6BzbiPXGsWg58RJA2OjkaiTYT6h3tqLC3IVFzWf1IZbNfXW5RBJ0YOqMGtzZtcOufuU2ONqO2xYVdJQ24III6yqa2djz0gdzlQNSqJtnMWDhWDsr2l9tR3+JSf85vlOD2lNHJmJwVh1e+LcYn++V9AuPSYhCl1KmKUa+lDW3YW9qI/3lpm/qcuUoGX2za1EqJlW9zur04otnsd7K+tcPfkZb4oJEQZfL1qG3zD26L6xyoa3HBbNDjljPG4uVvinCosgkf7ilX168lyhJalHrzziZ0xVlNmJmbgG1F9Xj040MobWhFlMkQdALZQEqwmfHjpWPR1u7x6+JARMPbkO2WQN0nfjHGaYNb5Revw+WBw9X5tKW+Vq659FzX4gp7/Gpdi8vvcm6LZlPY3tLGsOozRea22emGvTXy10F8OBC1lfd8dzIeuWw6dDodcpVMrnY8b286We/oMN63yemGW3n9RHB9JEjdbaOSCSyqk7OHIrjNSohCutIuKnBTWeAl+N4IbiVJ0pQlmDqUJYia23OmyFd3dke4qUzblWCnktVMijYjLdaKcWkxkCTg2+NyQOv1Smo5y8KxyTi1IEXd+Q8AM3IS1D+L2s7yxla17jbWIucOROlEsP6qNrNR3ci1U9P9oav3SIP6AcDcYXSuIEoSpmTHIS3WijMmpgHwDRUpCMjMxkX55zo6y9wCwOICOdstRhdfMTcH0ZYBz5d0cOd5E3HfBVP6vccuEQ0cBrcjkFqWoAlutSMzBzp7q2075fFKHZrVB1Npb8PC1Wux8vkt6m0tmp3vNc2uLtstSZLkVwZxsiHyYE0MwQgWyIg2RIETzHrDB3vKsfiRdfjr2iN+t4s2YBajXu0bezjIpifxnvB4JRTXtaj1s1kJVrWdUmVAO7D9SnAr2kgV1/U8I+1wedRgXFuWUFrfCq9XUt8bokY20kllVXbf36+4ZC+ytIuU7O3Go7Vwe7z47EAl6lpciDIZMD0nAVaTAaeOTVHPn57r6wogMrdlDa0oVsozvjsjU62HBeQMcTCi7lYbqHdVFiOy8drMbVOb2y+TLlp/id60V8z1vyxfEJAZ1l7JiTIZ/NYejCjlAOThCDctGdPp8URE/YXB7QhkD1KWoNPpkDJIRvCWBwRRoTomPLX+KBauXoui2hbsKG6A0+3FzhLfDvrADPTeLkoTmp1utGradHWn7tZXltBxfr0I1Oxt7ohGpYbjhQ0nAABfHvYfVavtaTxVCW53BukPq13P4cpmteYzKyFKbfQfmLkVwe0yZbJTqAERxbUOXPPPb0L2kdUSl9aNeh1sZoO6oa2yqQ3l9ja0eyTodcDc/CTleHfQFlihVDX5fgbRp1UEnQvH+jKRCx5aix8qpQVz8xPVD35nTkpTz/fL3CrrLG9oQ5Hy4SU/OVodswuEnowl3iva92dXH4DEJrUEm8nv/+Mm5fXbXlyPD/dWQKeDuoalE1L93pfj0oPX3ALA+PSYLrsbzMhNQIySqV0+LbPLHrJERP2Fwe0I4/Z40aRkNLW/FAEgaZCM4K1o9A8qQwW37+woRXljGz4/WIVjNfKldofLo/YqbXb67zjvqu42cPNaV5t6Ark9XnXzVrBAJtpiVGubezN7W1zrwGalfdThyma/Mg4R3CbYTJij9BndVlzfodRDG9y+t7MMTU43Yi1GjE6JVssStLXQkiSpZQnnTpH7UhfXOYKWkDz1RSE2FNbi6me/7bLERC1JiDJBp9MhKdqMKJMBkgS1RVZarBVxVpMaqEVS5qH9OxYfZETm9pQxSdDp5A14tS0uxEeZ8J1pGbj7/EnqOcsmpcNs1CPBZvIbLSs2LjU53er7bFSyDZfM9rWeSgwR3IrMrVPTSq2rD1bHlY18uUk2mAx6tR+w3AFCwkP/PQAAuGx2jjoMw2TQ41JlPYk2k/peFLT/HnRWbyuYDHpcPjcHsRYjbjujoMvjiYj6y+ArkKI+JRrkAx2DWzGCd6CnlHXM3HZcj3bM7eHKZr9a00q7E7FWExzOwMxt55ewA8sWIm1tJQJbnS74zngAyEmyobbFhZI6h5pJ7am3dvimuLW2e1Bc50C+MkCiQRNsT86Kg9WkR4OjHcdqWvx6nGqzn5/sly9nnzI2GSaDXs04F2pqdauanGhqc8Og1+H08akw6nVwub2obGrza78EwG/i01eFNTh9fGrInyWwTZ1Op0NOYhSOVDVjixLcijKJvKQo1DQ7URzBaxms+0ZStPxcCTYzfr5sPHaVNOCyOTk4e3I6jAb/z//pcVb8348WwWLSq9lcQK6dTbCZ5NdW2TCYlxSNnEQbloxLwVdHatR+tIGCZflPdhGwH67073iQFG2Gw9WK8sY2FNc5sLWoHlaTHr84Z4LfeT84ZRTe3lGK5VMzOtSgamvwx3dRbyvcd8EU3HP+ZE71IqJBhZnbEUZkxmIsxg6/uMWmskjLEo5WN+Oz/ZVdHxgmcfk7SukJWhskc1vd7FQzb4crm9Rd/oA8LhWAmsE1GeRfvF2VJXSVuS2qbcHN/7sV6w9VBT1fZLwTbeaQv+xFHWNvbSqTJAlvbS8FINc9AvAbJKAtSzAZ9JiuXEoX7Z4AeeNUk+aDgEiuippKkfHdVdKoTugSgX96rAVRZoMaAJ+o6fznemHD8U7vFx++tIGWeOwtx+U1iyypeC2LI8iCB6u7Tor2BZe3nzUOz10/D8unZXb4/0OYlhMfNPgLDOpFMPvnK2fi8StmYPnUzKCPJzK3WjXNrk43dorOCmIdU5Ts7K6SBmwolDfEXTA9S/0gIOQm2fDtb87CAxdN7fCY2g+7EzPCn+TIwJaIBhsGtyNMsDZggq8dWGRlCbe8vB03/e9WtaF/T4nMrbicGqwsoVhT33m4ssmv36oIjh0BLY0q7G2djr4VgY/Yva7dUOZ0e3DLv7bj0/2VePjDg0HPrwvolBBMrhKo9WT4gNbBiiYU1zlgMxtw3lS5POCQX3Dr39NYjEDVjsvVDgTQErvhR6dEIzXWApfHi11Kva4YgyvGm+Yly5niYJvKmjVXC9Ydqvb7IBIo2PtTdEw4pPQHFkFkd4LbzjK3PZWt6amaEmNROwekxFhwyeyckEGgNnNrNujVLguhymLqWlzq1QyRfZ+lDJHYWdKAbcrf7bwQra9CdQ2ItCyBiGiwYnA7wohd1kGDW+WXbCTdElpdHhxWskh7wxyU0BmX26sGs1OV4DbYerRtp5ra3H4DBirtvnZeAJAVH6XWJAaWPGiJwEdkN7XBxZ8+OYx9SvB+sKIpaIAmprsF1jJq5fZy5lbUZhakxai74g9V+j5kNGgyt4AvC7tNk7kVAaXZqFcDsOyEKIxWSht0Op3aI1Q06xctuTKVzKDoGXs8SOa2OaA8JHBQgpZ2Oplw7pQMaOMx8Zzd6T6h3VAmhCohiZQ2cxuqBCEYbeY2M8Ha5XtEDAHJSYxSA+iZuQkAgK1F9dilbJQTf9fhEhsHM+OtQbPJRERDBYPbIUSSJNzx751Y9daeLnu2utxefLS33K+BPxBe5jaSEbyFVc1q1u9okP6pQrPTHVb/3KqmNkiSnMEap1xyDZa5LeokoKlUM7fy88VYjGpAFDjhKvC5AaiN6Osd7Wh2uvH4J4fwjy+PAfD1M/1wr1yX6vFK+NUbu7D6gwOoU9YZrFm/oPa67aUNZeJnTY+zYrySbTvYSeZWZPiOVreoO+7FeyLJZlazoUvGpfhl+MRY1c1KcCsmmIkuAZ2NFm5SMrciIxn4ntQK9v5cPC4FL66cr/4M4lJ8T8oSojRjcDvLtEdCvBaAL9gPR4rm/ZKdEOVX4/zR3gq/lnaAb4SytjRiek489Dr5A5rL7UWizYQxKcHH54aSl2zDU9fMxj+unRvReUREgw2DWwD7y+y49929auP6waq62Ym3tpfi1c3FnWYgAeC9XWX40cvb8djHh/xutwcZvSukdGMErzaYOarJZra1e/DZ/kq0tXvQ2NqOsx//AksfW+83ZCEY0cc0Pd6iZo+CbSgr7mTUqwhSRbcEm8Xg60MaRuZ2TGqM2rv1mn9+i79+XggA+MmZBbj9rHEAgA/3ylOetpyowxvbTuKZL4+ppRGdliUk+SZuhTNUQqvB4cKar4/7BftVanBrwUQluD1R06KWXwRmbpOizWrQs1upQdYGlCKI/c40//rQBcpY1W1F9Wj3eDtkbidmyln2g0oHhbUHKvGe0txfZG7FiNr6Tlp3BWtTBwCnjU/FJz87DS+snKfWAucp2dHS+la//q6hON0eNcMvMp1Abwa3vrKEUcnhB5basoSshCg1c/voR4fwo5e34YnPDgMA/vDf/fjJqzvUKwjaVl42sxETNHWyc0YldmtowfJpmZiW0zsbHYmIBsqI75awt7QRVz/7DextbiREmXBHwO7iwUR7eX73yQa/TFEgEfwdDbh83uAInblN6sYIXm1wq91N//fPC/H3dYU4fXwqcpOi1GC8yu7stB+mOC4jzqr+0u8sczsuLUaduJUWa0FVk1MNkEW3hGiLEVnxvib7oYjgNjXWgpxEGw6U27GrpAFmgx4PXTINl83JQV2LC3e/sxd7S+0ornWojfIBYJNyuT05OvQl3ayEKOh1ctun6iYn0uKsIY8NtGbDCfx17RFUNTlx1/KJAHz1xemxVqTFWtQd+4VVzZiaHe/bUKapKx2TGo1jNS1qxlMb3N57wWTcsHh0hw1T49Ji1MfeU9qo/j2JS/GiRrOssQ0n6x340cvb4PFKOH1cqhrc5ibZcLCiya+EJJBd0wosUFqc1e/1So+1wmzQw6UE26I2NxTxIclk0GF6bjw2HauFyaBTe7X2lF/mtptlCVkJUUhUPniKYRYf7KnAVfPz8OxX8mY8o1I6Mj7N/+9oVl6C2p5tdoQlCUREw8mIztyWNbTiB899q+7Q7mqC1UDTBp27uhg7KrJjlXb/n6nTsoQYX3AbblZRG9wW1znUjKFoJ/XF4Wq8/E2xekxngY12fUnRZvVybbBgW2woW6ZMqgLkEamA72duUcoSos1GZCb4xqOGIoLbtFgLZirTp04bn4r/3r5YbYSfFG3GKWPk7Oa/Nhfhk32+LhEiyO6sLMFk0KsBYaR1tyIrqu03K37W9HgrdDqdOjJV1NTWt4hMvW9NvpG2/sFtXJQJNrMxaCcAvV6H+crghC3H69TXUWQr46wmdeDCS98Uod0jwSsBNS1OdUOZuNwuRv0G09n7M9iacpRMeDilCeqHlxgLRiXJmdVEm7nXxrJmajoT5EUQ3FpNBrVkIzvBirHK5LAokwEWox6lDa344ye+KzAi6A38e9Jmo+eOCr6ZjIhoJBjRwe1Heyv8gq3aAZ7M1RXtcIXdJxs6PbZOydhVNLb5Bapq8BCkLEFkHF2aQQ9dEf02AbmFVFGtA2UNrThc2YxgMUNDJ4EN4BuZG202qpnb1naPX91hs9Ot/l2J6VgAsHCMHNzKdbsSWpSyBP/MbfCyhHaPV33MtFgLHrxoKj7/xel4ceU8tfZXWLloNADg2S+PBe2F29Vl7pxudkwQZQ/amlVtzS3gG0v7xGeHUdvs7FCWoH1+sRkt3IBS1OtuL65XPwhqN1FNypRfp9c2l6i3NTja1feSCKo7LUtoCz+4BTSt1cIIbkUJR2qcFROVtfbmVK30OCuizQaYDLqI613Fh6/cJBsWF6TgwYum4I0fLcRpSk/gD/bIHxYtSm9dnQ5+fYoB3wYys1GP6SwtIKIRbEQHt6J2TWyG0fZ3bXS043v/bwP+tvbIgKwtGP+yhMZOpz2JzUKt7R6/wQ0NnQQyUWaD2garLozShBanWw3uxM76wqpmfHVEHgE7MzcB918wGYsLUtRf9l1lbltcvoDUZjbAapLfor99Zy9e3SxngEXWNtFmwvSceESZDNDpgFOV1lXtHgl1LS5NoGxQg4dQZQnitTXqdWpP2DGpMUGzemdNSsOisclqP1jRiUHorCwB6N4uf7fHiyKl1KRBM02sUlNzCwDXLcrHxIxY1Dvacef/7VZfz0Rbx9ZaJ4OUJXRmhhIwfXm4Rt30p+0MIUoTtNPOqpva4FImb4k2aJ1tKBPZ1UiDW5G53VZUj9c2F8OtGeohVGkyt7NyE/DUNbPxx8tnhPU84TAZ9Hjxhvl4/vr5fpnycNx/4RT8bNk4LBidDL1ehxUL8zE1O179sALIr/ffrpoFvQ6YmhWPqID33djUGDx22XQ8dc1sWE2GwKcgIhoxRnhwK1/aP22cnB3RBrdrD1ZiR3ED/rauUJ3XPtC0mdumNjdOdLKpqt7RMQACug5kIhnBKy7Dp8RY1P6phVXN+OKwHNyePj4V1586Gi/ftEC9hKoNzIIRAanNYoBOp1Ozt2/tKMXdb+9Bs9Ot9lLNS46GyaDHM9fOwV++Pwu5STY12Kq0O31lCRajWg8ZaiOe2ISWEmOBvoum9DqdDnefP0nNTK9YmO93f2dlCYCmY0IEZQkn61vR7pGjaTHFy+n2qH/Poo2TyaDHI5dOh14HfHZAHjah18llA+rzJ3UvcztVCW7F8IyMeKvfaxWs8b92jGy2Gtz6vwc8XgmSJKGqqQ0nah3Q6YDJmeENERDB7cHyJrg9Xvzwf7firrf24Jp/ftuh7ZdadhJngU6nw/JpmeqHst4yNz8Ji5UNb5FYNDYFP1s2vkMv3LMmpqnDOU4bn4JzpmTgv7cvwXPXBe9ocPncXJyluZpBRDQSjdjgtq3dowZn4tKfdniBmA/vcnvxaS9O3+qJwNrT1R8exKkPf+63qUmo1wTqFZqATu2WEBU8AItkBO9htSVRDMam+VpBfXWkBgD8xqyK7gwNXZR+qO27zHIN4rWnjML49BhYjHql7KFF7XEr2i2dNj4VF87IAgB1w1FlU5umLMGgliU0O91obG1Hca3Dr1xDDKAQgV9XpmTF457zJ+OCGVm45Yyx6iYfoPM+t9rniKQsQbsxUHxAqFLqbc1GvV9gOiM3AU98fxZOGZOEgrQY3HzaGL8gVGRua1vkKVi+DgWdb6yKs5owJtUXDGYGTL8SZQlaIri1mQ3qB5WG1nb1td9b2oiJv/0Qf/rksLohb3JmHBLD7GAgsvVfF9bgi8PVamnJt8frcP2aLX7HVmlqqoeK5BiLWkt+8axsAMCkzLiINiISEY00Iza4/fZ4LTxeCcnRZnV0pb3NjXblcua+Ul8jfNHSaKCJgFPs7v50fyVKG1rx2MeH/AI1SZLUmlvAt6Me6LxbAuDruRnOCN79allHLAqUTTCf7q9EU5sbCTaTOgwB8NX4dpW59bXvkn/G/zl9LD75+emYpGTyimsdOK7UnuYH2bSToVyer7K3+W0oizIb1AD73nf34rTH1uGNrSfV89YfkrPNiwtSEa4bF4/G366ahTirSd0EpNOhy0vSud3oz3qs2pelb3C44PVKfiUJgeUTF87Iwms/XIjP7jgdq5ZP8rsvPsqkDkk4Wd/aaR12oBmav9PAbh35ydEwG/3/SRHBbYzFqL7nPJpxv5/ur0S7R8JzXx9XN+eJgDUcEzNikZdkg9PtxYP/2Q/AN1ltf7ndrwSiWsnkDrUBBX++Yiaeu24uzg9oz0ZERMGN2OD2EWWE6pTseCTYzOol5nolcNinmbb19ZGasIK9viZKBU4b7/vlb9DrlDrXGvU2h8uj1jkCQGVjBGUJYY7gPVLZhFeUGtj5o5PUnpsu5cPBDaeO9rvEKjLFXdXcivZdMRb/mkHRWqmozqFmMccGbKgBfBurKhqdvppbJVAW2dt3d8ofVt7fLf+33ePFhkIl2zwh/OBWS9SbJtrMIcesCuJSenljq/phqivHavw37jW73GqnhIxuZPG0HRMi6VCg3agUmLk1GvRqOYH44CE6MsRYjbCafDXUorRiv9IBorXdg//ukXsHL1IyleHQ6XQ4d4p8GV5k9K9blK9mZ49rxjKLQDstdmhlPdPirDhrUnqvdXUgIhruRmxwW6xcEp6aFQeDsokIkDOWx2tb0OLywGrSY2JGLNxeSW3aH0yVvQ3/u+mE2garr4iyhKvnj8Ils7PxyKXTcO0powAAz284rh5XH7BhR2RunW6PWi8ZKksnRvD+d08FFjz0GT7Y0/Hnbvd48fN/74TL7cXSCalYPjUDeUk23H5mAa6an4f3b1usDjsQRNa0szZQgK/hv83sf4lclCAU1TpwVMliimyplrhcW2Fvg0PTLQHwb7IPyNO22to92FHcgCanG0nRZkzP7t4ucxHcdlWSAMgbmsxKmUV5iO4NgY5W+9dXNzra1cxtdy5RazsmRBbcJqh/zgzSZ/mh703D/RdMxtUL8gD4RhiLVlfi/zPxIUdk/wWTwTfqN1znTslQ/2wzG7BkXArylVpaUZde1tCKgxVN0OmAGbnsJEBENJyN+CEOU5VgJinajLoWF+qaXahWspaTM+Nw+vg0HKxowtYT9bhmwaigj3H/+/vwwZ4KlDW0qc31+4LIpuYkRuHxK2YCkKdRvbjpBNYdqsZZf1qPWXmJWLHQf50iCBJBjE7nCzYCieBMNIN/dXNxh2lVH+wpx95SOxJsJjx66XQ1o9TZAIwEJXDqMnOr7O4PbKwvLuXvKmlQs+ja+k9BHbPb2KopSzAo9/kHY063F9uK6tWs7ZJxKV1uJgtFBGSB7ZmC0et1yEmMwrHqFpTUO7C7tAGpMRYsGOOfsZQkCX/47wG4vRKOBRnGUakZ4BApbceGSILbKVlxMOp1cHsldRSx1uSsOEzOisMbW+V2YKL8IEYpg4iPMqG8sQ31DhcaHe1qtw2TQYd2j4RZuYkdPth0ZVZeIlJizKhpduH08amwmgwYkxKNzcfrcLxGzuZ+otSlz8lLHHKZWyIiisyIzdwKU7N8wS0gb7LZq2wmm5odrwZQJ0PsbG9r92DdQble8/UtxX2WvW11edS2Ttrd+Pkp0fjOVDn4PFrdgje3ncTWE/V+54rL1yIoTLSZQwZx2lGgALCjuKHDaNMTSsBw3pSMsLOG4dbcqt0SzIFlCfLfg7iMnZ0QFTQIEhnJwqpmX6suJVDO1GRuxeX1r47UqPW2S7tZkgAA8/KT8O6tp+LRy6aHdbzomPDJvgrc9soOXPf85g4tso5WN+OfXx/HCxtPqPXW4udraHWpwW1GfOQ1pOJxiuscam/ZYFPBAllNcmbUatKrHwyDCaw7jgnM3La2q3+XuUlRWK68h7tTFmLQ63DVfDlT/H3lv2rmVilL+Fip5z1vakaQRyAiouFkxAa3VpMeuUlR6s51kbGsa3GpnRKmZsd32XD/6yM16qX+ekc73u/G5rNP9lXgqn98E3QggCDqbc1GfYes5p+vnIn3bjtVzRruKGkA4MvEibIEUdaQ0kmrKpH5tJkNiDIZ0Ox041BFk98xosVSJJfDAy9Hh6Jt36UVOM40WNYW0NaS+l5Lm9LzU2x6m5ETj5Wn5gMAXtp0AvvL7TDodVgyrvvBLSB3KYi1dh0gAr6OCW9ukze1tbV7/Ta4AcA3x+r8vk+Ps6hTwOTMrTKdrAc1twcrmiD2IobbW/af183D5ruXdfq8CQFlL+LvU+2a4XCpwe3kzDj8/ntT8dhl03HTktER/RzCz5eNx47fnq126MhP9pUl1LW48O1xuRODtoSBiIiGpxEb3L51yyK8+aNF6iV17UYq0Slhala8evm2sqkNTnfHrKxoEyYCg//dVARJkvt2rjtYpU5F6sz/birCpmO1+E8ngbHIuqZEdxwXKk8kSlDrPrcro1cnKt/XNDvR7vGiRilrCMzOas3LT8JvvjMRL904H3Pz5d6124r8gywRVEXSUkkb1HQ22rcloE5WSIu1qJuRgOD1tkDHulqb2aBmqZdNSsejl03Hk9fMxqlj5U15Ihv+i3PGd/q69DaRuRXPD8hja49VN+Plb4rQ1u7Bt8fl133B6CRYjHqcPj7VL/Op1tx2qyxBDpLFJiyrSQ+LMbzG/wa9zq9vbjAJAYFybIfgtl2tt52cGY84qwmXz80New2B9HqdX/sw0b/2eE0LPttfCa8kB9G9OZGMiIgGpxEb3OYlRftlnkTmdkeJvLnIbNRjXHoMkqPNiDIZIEkdR7d6vBLWHpSD299dPBVmox57Shvx1ZEa/OvbYqx8YQuuevaboEGxlsjYHg2oq9xWVK9usBJZ16ROsq5ih7p4vIK0GJgMOkiS3MBeNLFP7iSI0+t1+OFpYzFnVJI6znNrkX+Zg2ipFFFwq3RLcHslv4BOS5IkTebWP8jR6XRqlwEgeKcEALAYDeq0LvlxfEGyXq/DFXNzkZNoQ1qcVd3Zv2LhKPz49LFh/yy9ITDIijYbUFznwNl//hL3vLMXD394EN8ek7ONP1s2HjvuPRuPXDrdr19wRcB0skjkJNqgrUwJN2sbrsANi6LmVpQr1Gszt1nhDWyIhMj0N7W58eKmEwBYkkBENFKM2OA2kMjcimzZpIxYmAx66HQ6zc5y/7rbHcX1qGl2IdZqxPKpGbhG2SF+zzt78djHhwDIdbBPrT8a8nm9XkkT3Pp2xK89UIlLn9qIu/5vNwCoWdfORruKS7FCcrRZzepV2NvUus3OyhK05o6SN0kF1vCqzfAjuBxuNenVHqihxq+2tnvUS+TRQepp85J8P9/YEGUJANRL9/LjhM4E/v3qWfjL92fivgum9HubJZG5BeQMu+guIOqb//VtEaqanDAb9JiVlwCb2QidTqcGjYXVzXC4PNDpfJO/IhFjMeKBC6eoGdXe7v0aGCzHWOTvRUa3usmJwiq53KUvgluryaBueBNjti+emd3rz0NERIMPg1uFuKQp+sNqN8v4dpb718TuVGpbF41Nhsmgxx1nj0darAXFyg50ETD/v3VHUVjln5UValtc6nMWVjWrl+y/Vnbwf7K/Es1Otzp5qbPRrvkBo0QTo81qVq+ysS2ssgStmXkJ0OvkTHB5o/yze72SmgGOJGOo0+m67JggShJ0OiDK1DEo1WZuC0KUJQC+elKgY3mD1pjUGFw0M7vLvrR9QTsJ7cyJabj1DLmN2mOXTcekzDh11O6M3HhYNa+FyIBvL5Y/cOQkRnX7Uv61C/Pxxa/PwK/Pm4AHLpzS3R8lKIvR4LcpUGRuRVnFN8dq0e6RkGAzBe260Bu0/z/Mz09CXpChH0RENPwwuFUEZkS1wa26qSwgc1uuDEcQQVes1YT7LvAFCf+4dg7OmJAKl8eLv39+JOjzajeRNba2q0HsnpO+8b/rD1WpbcA6C0wDM7eJNrPa/qpME9ymhhncxliM6mSwb5XNTXUOF9xeCTpd+EGy4Ot1Kwe3R6ub8de1R9QOE2qnBJMhaDcHcak51mrsNNOYk6jN3A7ObnfxUSa1FOasSWlIsJmx+pJpuHxuLn54mm9T1YLR/u3BxGsoPmiNSem69VhnkqLNuGVpAeaMiqy3bDi02VuRIRaZZ3EVYeGY5D7Lmo/WBLeXzmHWlohopGBwq0gKaL4/TZu51ezA31BYg3d3lgKAms3U9k/9zrQM3PvdyXj0sumYm5+Eny4bDwD4YG+F3+X4BocLbe0elAV0SDha1QyPV1IvpQJyGyNRc9vZkICUGLPfZfjEaDNykkS3B4evW0JseGUJANTd52KIRZWymSzJZobJENnbRzulTJIk/PS1HXj808Nqx4BQnRIEcfl6WnZ8pwGRf+a2e1nNvqbT6fDE92fioe9N6xBYfnd6lprNXDzOfxRt4Eat0SmhyzMGmja4FR0+Atcf+PP1JvHaWIx6LOfoWiKiEWNwprUGgPZyv8mgU8fJAr5M4L6yRtzwQgWcbi9m5SaqmVvtDn2dTocbFvsybzNy4jEpMw4Hyu14a3spblg8GmUNrVj2+BdYNDa5Q2ausLoZidFmtb0YAHx+oFLNJHe2GUyn0yE/JVoNjJNsZjWrXFLnCKtuN9B3p2fh/60/inWHqtHsdKttwLpTo6luhmp1YWdJA/YqXSlEljpUpwRh7qhEvLByHiZmdF6jqc3c2jopSxhooVqPmQx6/O+NC3C4sgmnBAx2CNyo1Vnt8UDTtgNTyxICPpyd1sP2a505bXwqTB8dxA9OGdVldwciIho+mLlVJGqazk/IiPWrYxQ1t8eqW+AU9bHVTero1Iz40Bt6dDqdulno1c3FkCQJW4vq4XB5sO5QNY7V+NfiHq1qwW4l2Js7KhEZcVa0uHxtoboa76qtM0ywmdTgtsgvcxt+YDopMxZjUqLhcnux9kBltzaTadcDyJnbl74pUm8Xu+ZDdUoQdDodlk5IQ0YXNZra4DZmkJYldKUgLabDZDjAl/0WRvewLKEvadcaLHM7KtnWp625xqfHYv+D5+Hu70zqs+cgIqLBh8GtwmzUI1bJLk0LmLyk3dkuHKtuUbOYXW2IuWhmFqJMBhypasbOkgZ1lKrHK+HT/VUAoLalOlrdjD0nGwDIQwEunuWrFRyTEo1ZeQmdPle+ZtNMUrQvc3usuhkujxyYdxUga+l0Onx3uhxkvb+r3LeZrFuZW/l5j9e04D+7y9XbD1U2od3jhUPJ3EY6fjVQVoI2czs4yxK6K3A4wughkrkV/29pM8+LC/quJEEwGfTdHqlMRERD09BMa/WR5GgzmtrcmJLlH9zGRRkRazGiSdnwBACbj9fBKwFGva7TUgEAiLOasHhcCj7dX4ntxQ04XuNr+SVKBU4bn4r95XYUVjWjSRmHOj0nHsunZuKcKenITohCWqyly803YlOZ2aiHzWxAVkIU9Dqoo2hjrUa/3ffhOH96Fv76eSG+PFyNOCVISetGb1VRgylqbKdkxaG41oEmpxtHq5vVDWWdte8Kh9VkQGqsBdVNzg7T3IY6bcBoNemR2Y0Men/RBrLi70F0UXC4PFjSh/W2REQ0cjFzq3H6+FTEWo1YGjDfXqfTIUfJgIperaJMID3OGlYrKZGZPVBuxzFNP1vhNOUXfWlDK/YqNbPTsuNhNuoxOy8R6XHWsHaVj1FaZKXGyIGwyaD3y2R2ZwrX+PQYjE2NhsvjxYd7KwB0bypWYNbxx0vHqt0Y9pfZu9xQFglRmtDTLPBgE2UywKxs5MtPjh7UWUm/sgSr7+/hoplZmJod1+Nxx0RERMEwuNV44KKp2PHbs/122wuLxibDqNfhR8okK9HOKnDcayiTMuVRuAfK7X6ZW2FqTjwylfIGl9uLpGhzh9Ze4Zidl4DbzyzAfRdMVm/T9ocNd4CDlk6nwzlT5OlOYqNbJNPJBG2wMy8/EedPy1Q7IOwvs2sytz0PSMWms3D/foYKnU6nfkgINYJ4sBDrNBv8R/uuvmQ6/vOTJb3yIYaIiCgQf7sEMIZob/Wb70zCbWcUoLXdg7+u9fWs7WwzmdYkTebWKwF6HSABkCS5B2ic1YRnV8zFF4erIUkSFo9L7VZWTqfT4Y5zJvjdlpdkw8aj8ijX7mRuAeCcyel+k9Z6UpYAAPd+V54KJjLa+8vtmJGbAKB3Mrd3nTcRZ09O69Pd+AMlwWZCVZNzULcBA3ybxwZrOzYiIhqeGNyGyaDXITHajHivBLNRr04VC3e6Um6iDdFmA1pccuYzN8kGs0GPI1XN6vjUqdnxfsMjekuuX+a2e8HtjJwEpMVafN0SulGWMG90Is6enI75+UmYliP/nGrmttyOgjQ5E9kbwVC8zYQzJ6b3+HEGI7mVWzPGpg3u4Fa0/YqLYhsuIiLqPwxuI6TX6zAqyYYjyjjdrtpSac+bkBGL7cUNAOQG86kxFhypavarie0Leb0Q3Or1OiybnI5Xvi0G0L0+txajAc+umOt327j0GBj1OjQ42nGkUn5Nebm6cz8/ezwm7CnHeVMG92CC2XmJuGRWNhb1Q1cEIiIigTW33TBKUwubGWZZAuArTQDksamijvWUMb0/+lRLG9wmd6PmVjhnspwJTYo2R9xxIRSL0aDWju5SWqD1tFvCcDd/dBLuv3AKogb562Q26vH4lTNx2ZycgV4KERGNIEyRdYO2l2xmmJlbwD+4HZ0ajbMnp2PXfef41aL2hd7I3ALyNKnbzyzAuPTY3liWanxGLA5VNsHh6nxCGREREVFXGEV0wyjNRp7MCHbji44JADBWeYy+DmwBeQOS6NObGtv9zK1e33GzWm8Yn+a/63+4te8iIiKi/sMoohtE5tZk0CElOvxM6ISMOHWgwph+bOOk0+lwyxkF2FZUj2nZCf32vOEan+GfCR5ugxeIiIio/zCK6IZp2fGIsxoxLSc+onZdMRYjHr5kOpqc7rA3ovWWHy8d26/PF4kJAWUOw21kLhEREfUfBrfdkGAzY9Oqs2AxRr4f74p5uX2woqEtN8kGi1EPp9JejZlbIiIi6i52S+imaIsx5MAHioxBr8O4dF+Zhm2QdwEgIiKiwYvRGQ0K4zWlCczcEhERUXcxuKVBQRvcslsCERERdReDWxoUxKYys0EPczdqmYmIiIgAbiijQWJ6TjyiTAaM0gzIICIiIooUg1saFJJjLPj0jtMQa+n7oRZEREQ0fDG4pUEjJ5FZWyIiIuoZFjcSERER0bDB4JaIiIiIhg0Gt0REREQ0bDC4JSIiIqJhg8EtEREREQ0bDG6JiIiIaNhgcEtEREREwwaDWyIiIiIaNhjcEhEREdGwweCWiIiIiIYNBrdERERENGwwuCUiIiKiYYPBLRERERENGwxuiYiIiGjYMA70AvqbJEkAALvdPsArISIiIqJgRJwm4rZIjLjgtra2FgCQm5s7wCshIiIios7U1tYiPj4+onNGXHCblJQEACguLo74xRoIdrsdubm5KCkpQVxc3EAvJyxDbc1cb98bamvmevvWUFsvMPTWzPX2vaG25qG23sbGRuTl5alxWyRGXHCr18tlxvHx8UPiL1eIi4sbUusFht6aud6+N9TWzPX2raG2XmDorZnr7XtDbc1Dbb0ibovonD5YBxERERHRgGBwS0RERETDxogLbi0WC+677z5YLJaBXkpYhtp6gaG3Zq637w21NXO9fWuorRcYemvmevveUFvzSFqvTupOjwUiIiIiokFoxGVuiYiIiGj4YnBLRERERMMGg1siIiIiGjYY3BIRERHRsDEsgtunnnoK06dPVxsTL1y4EB9++KF6/9KlS6HT6fy+fvSjH/k9RnFxMc4//3zYbDakpaXhV7/6Fdxud7+vt66uDj/5yU8wYcIEREVFIS8vD7fffjsaGxv9HiPw59HpdHjttdf6ZL1drRkA2tracOuttyI5ORkxMTG49NJLUVlZ6fcY/fkar169GvPmzUNsbCzS0tJw8cUX49ChQ+r9J06cCPoa6nQ6vPHGG+px/fU6d7VeYHC9j7ta72B8H4fzGg+29/GXX36JCy64AFlZWdDpdHjnnXf87g/1Hn7sscfUY/Lz8zvc//DDDw/Ieq+//voOaznvvPP8jqmrq8M111yDuLg4JCQk4MYbb0Rzc3O/r7e9vR133nknpk2bhujoaGRlZWHFihUoKyvze4zB9PpKkoR7770XmZmZiIqKwrJly3DkyBG/Y/rz9Q0m2Oul0+lw6623Agjv37n+dP/993dYz8SJE9X7w/k3oz/11u+SweDJJ59Efn4+rFYrFixYgM2bN4d/sjQMvPfee9J///tf6fDhw9KhQ4ek3/zmN5LJZJL27t0rSZIknX766dLNN98slZeXq1+NjY3q+W63W5o6daq0bNkyaceOHdIHH3wgpaSkSKtWrer39e7Zs0e65JJLpPfee08qLCyU1q5dK40bN0669NJL/R4DgPT888/7/Uytra19st6u1ixJkvSjH/1Iys3NldauXStt3bpVOuWUU6RFixap5/f3a3zuuedKzz//vLR3715p586d0ne+8x0pLy9Pam5uVtejfe3Ky8ulBx54QIqJiZGamprUx+mv17mr9UrS4Hofd7Xewfg+Duc1Hmzv4w8++EC6++67pbfeeksCIL399tt+9we+h9esWSPpdDrp6NGj6jGjRo2SHnzwQb/jtD9zf673uuuuk8477zy/tdTV1fkdc95550kzZsyQvvnmG+mrr76SCgoKpKuuuqrf19vQ0CAtW7ZMev3116WDBw9KmzZtkubPny/NmTPH7zEG0+v78MMPS/Hx8dI777wj7dq1S7rwwgul0aNH+/0/1Z+vbzBVVVV+r9Wnn34qAZDWrVsnSVLX/871t/vuu0+aMmWK33qqq6vV+7v6N6O/9cbvksHgtddek8xms7RmzRpp37590s033ywlJCRIlZWVYZ0/LILbYBITE6V//vOfkiTJf5E//elPQx77wQcfSHq9XqqoqFBve+qpp6S4uDjJ6XT29VIlSfJfb6B///vfktlsltrb29Xbgv3D1t/EmhsaGiSTySS98cYb6n0HDhyQAEibNm2SJGngX+OqqioJgPTFF1+EPGbmzJnSDTfc4HfbQL3OwdY7mN/H4by+g+19HLjmwf4+Due1uuiii6QzzzzT77ZRo0ZJf/7zn/tuYSGECm4vuuiikOfs379fAiBt2bJFve3DDz+UdDqdVFpa2kcrlYXz+m7evFkCIBUVFam3DZbX1+v1ShkZGdJjjz2m3tbQ0CBZLBbp1VdflSRpYF/fUH76059KY8eOlbxeryRJXf8719/uu+8+acaMGUHvC+ffjIHWnd8lg8H8+fOlW2+9Vf3e4/FIWVlZ0urVq8M6f1iUJWh5PB689tpraGlpwcKFC9Xb//WvfyElJQVTp07FqlWr4HA41Ps2bdqEadOmIT09Xb3t3HPPhd1ux759+wZkvVqNjY2Ii4uD0Wj0u/3WW29FSkoK5s+fjzVr1kDqp5bFgWvetm0b2tvbsWzZMvWYiRMnIi8vD5s2bQIwsK8xAPVyeFJSUtD7t23bhp07d+LGG2/scN9AvM6h1jtY38ddvb7imMH0Pg5c81B4H3emsrIS//3vf4O+hx9++GEkJydj1qxZeOyxx/qsjCIc69evR1paGiZMmIAf//jHqK2tVe/btGkTEhISMHfuXPW2ZcuWQa/X49tvvx2I5fppbGyETqdDQkKC3+2D4fU9fvw4Kioq/N6/8fHxWLBggd/7dzC9vi6XCy+//DJuuOEG6HQ69fbO/p0bCEeOHEFWVhbGjBmDa665BsXFxQDC+zdjoHXnd8lAc7lc2LZtm9/rqtfrsWzZsrBfV2PXhwwNe/bswcKFC9HW1oaYmBi8/fbbmDx5MgDg6quvxqhRo5CVlYXdu3fjzjvvxKFDh/DWW28BACoqKvx+WQFQv6+oqOj39WrV1NTgd7/7HX74wx/63f7ggw/izDPPhM1mwyeffIJbbrkFzc3NuP322/tkvZ2teefOnTCbzR3+wU9PT1dfv4F4jQWv14uf/exnOPXUUzF16tSgxzz33HOYNGkSFi1a5Hf7QLzOodY7GN/Hna1XazC9j0OtuaKiYlC/j7vy4osvIjY2Fpdcconf7bfffjtmz56NpKQkbNy4EatWrUJ5eTkef/zxfl/jeeedh0suuQSjR4/G0aNH8Zvf/AbLly/Hpk2bYDAYUFFRgbS0NL9zjEYjkpKSBvz1bWtrw5133omrrroKcXFx6u2D5fUVr0+w96f2/TuYXt933nkHDQ0NuP7669Xbuvp3rr8tWLAAL7zwAiZMmIDy8nI88MADWLJkCfbu3RvWvxkDqbu/SwZaTU0NPB5P0PfywYMHw3qMYRPcTpgwATt37kRjYyPefPNNXHfddfjiiy8wefJkv1+o06ZNQ2ZmJs466ywcPXoUY8eOHXTrFex2O84//3xMnjwZ999/v9/5v/3tb9U/z5o1Cy0tLXjsscf6NCgItebB7tZbb8XevXvx9ddfB72/tbUVr7zyit9rKgzE6xxqvYPxfQx0/foOtvcx0PWah6I1a9bgmmuugdVq9bv9jjvuUP88ffp0mM1m/M///A9Wr17d72M4v//976t/njZtGqZPn46xY8di/fr1OOuss/p1LZFob2/HFVdcAUmS8NRTT/ndN5he36Hmueeew/Lly5GVlaXeNtj+nVu+fLn65+nTp2PBggUYNWoU/v3vfyMqKqrf1xOJofa7pDcNm7IEs9mMgoICzJkzB6tXr8aMGTPwl7/8JeixCxYsAAAUFhYCADIyMjrsbhTfZ2RkDMh6m5qacN555yE2NhZvv/02TCZTp4+3YMECnDx5Ek6ns0/W29maMzIy4HK50NDQ4Hd8ZWWl+voNxGsMALfddhv+85//YN26dcjJyQl6zJtvvgmHw4EVK1Z0+Xh9/TqHs17tWoCBfR93td7B+D4OtebB/D7uyldffYVDhw7hpptu6vLYBQsWwO1248SJE32/sC6MGTMGKSkpfu/hqqoqv2Pcbjfq6uoG7PUVgW1RURE+/fRTv6xtMAP1+orXJ9j7U/v+HSyvb1FRET777LMu37OB/84NtISEBIwfPx6FhYVh/ZsxUHryu2SgpaSkwGAwdPpe7sqwCW4Deb3ekL8gd+7cCQDIzMwEACxcuBB79uzx+59e/CMWrFSgL2jXa7fbcc4558BsNuO9997rkIkJZufOnUhMTOzXTIFY85w5c2AymbB27Vr1vkOH/n97dx4T1fX2Afx7h81BQChOEWXQoUKhlcKArdEWF6AUQrUSKwRtcavYVmIEFNAGtZuki0rU1oUiaKuhSU1jUoJaNlOgVQYZ0ZoiTEeplkilRVmU9Xn/IEwcGWDglWGc3/NJJoF7z7nn4eTk3scz5x6rUVdXp1lHbOg+JiLExcXhxx9/RGFhIWQy2YBlMzMzsWjRIkgkkiGvO1r9PJx4H44FGJtxrE+8xjaOh4rZGMexvjIzM+Hv7w8fH58hyyqVSohEon5fT4+FmzdvorGxUWsMNzU1oaKiQlOmsLAQPT09mgewIfUltjU1NcjPz4ejo+OQdcaqf2UyGSZNmqQ1fu/du4fz589rjV9j6d+srCw8/fTTCA8PH7Tco/e5sdbS0gKVSgVnZ2e97hmG9jieJWPN0tIS/v7+Wv3a09ODgoIC/fv1Mb/gNiZSUlLo3LlzpFarqaqqilJSUkgQBDp79izV1tbSRx99RAqFgtRqNZ06dYrc3Nxo7ty5mvp92/uEhISQUqmk06dPk0QiGbXtfQaL9+7duzRr1izy9vam2tpara06urq6iKh3W66MjAy6fPky1dTU0Ndff03W1ta0bdu2UYl3qJiJerdDcXV1pcLCQlIoFDR79myaPXu2pr6h+/i9996jCRMmUHFxsVYftrW1aZWrqakhQRAoLy+v3zUM2c9DxWts43ioeI1xHOszJoxtHDc3N1NlZSVVVlYSANq9ezdVVlZqva1/9+5dsra2pgMHDvSrX1ZWRnv27CGlUkkqlYq+++47kkgkFBMTY/B4m5ubadOmTfTrr7+SWq2m/Px88vPzI3d3d3rw4IHmGqGhoSSXy+n8+fNUUlJC7u7uo7ZV1WDxdnR00KJFi8jFxYWUSqXWmOnbGcOY+peodyswe3t7OnXqFFVVVdEbb7yhcyswQ/XvQLq7u8nV1ZWSk5O1jutznzO0xMREKi4uJrVaTaWlpRQcHEwTJ06khoYGIhr6nmFoj+NZYgxycnLIysqKsrOz6erVqxQbG0v29vZaO9UMxiSS29WrV9PUqVPJ0tKSJBIJBQUFaZKuuro6mjt3Lj311FNkZWVF06dPp82bN/fb0+369esUFhZGYrGYJk6cSImJiVpbFhkq3qKiIgKg86NWq4mod+sWX19fsrGxofHjx5OPjw8dPHiQuru7RyXeoWImIrp//z69//775ODgQNbW1hQREUH19fVa1zBkHw/Uh1lZWVrltmzZQlKpVGffGbKfh4rX2MbxUPEa4zjWZ0wY2zgeqB9XrFihKXPo0CESi8XU1NTUr35FRQXNmjWLJkyYQOPGjSMvLy/auXOnVjJpqHjb2tooJCSEJBIJWVhY0NSpU2nt2rX9HlaNjY0UHR1NNjY2ZGdnR6tWrdLae9pQ8arV6gHHTN+erMbUv0S924GlpqaSk5MTWVlZUVBQEFVXV2tdw5D9O5AzZ84QgH6x6XufM6SoqChydnYmS0tLmjJlCkVFRVFtba3mvD73DEN6XM8SY7Bv3z5ydXUlS0tLeumll+i3337Tu65AZKB9dxhjjDHGGBtlJrvmljHGGGOM/e/h5JYxxhhjjJkMTm4ZY4wxxpjJ4OSWMcYYY4yZDE5uGWOMMcaYyeDkljHGGGOMmQxObhljjDHGmMng5JYxxhhjjJkMTm4ZY2yErl+/DkEQNP83uz527NgBX1/fUYvJGBw+fBhSqRQikQjp6el61Zk/fz42btyoV1ld/V5aWgpvb29YWFhg8eLFw46ZMWY6OLlljBm1lStXQhAECIIACwsLyGQyJCUl4cGDB2MdGqRSKerr6zFjxgy962zatAkFBQWjGFWvlStX6kzyiouLIQgCmpqaRqXde/fuIS4uDsnJybh16xZiY2NHdJ3Bkl1d/Z6QkABfX1+o1WpkZ2ePqE3GmGkwH+sAGGNsKKGhocjKykJnZycqKiqwYsUKCIKAzz77bEzjMjMzw6RJk4ZVx8bGBjY2NqMU0dirq6tDZ2cnwsPD4ezsPCpt6Op3lUqFd999Fy4uLqPSJmPsycEzt4wxo2dlZYVJkyZBKpVi8eLFCA4Oxs8//6w539PTg7S0NMhkMojFYvj4+OCHH37QnO+brTxz5gzkcjnEYjECAwPR0NCAvLw8eHl5wc7ODsuWLUNbW5um3unTp/HKK6/A3t4ejo6OeP3116FSqTTnH/16vK+dgoICzJw5E9bW1pgzZw6qq6s1dR5dltA3w/rll1/C2dkZjo6OWL9+PTo7OzVl6uvrER4eDrFYDJlMhhMnTmDatGl6f+U/mEuXLmHBggWwtbWFnZ0d/P39oVAoNOdLSkoQEBAAsVgMqVSKDRs2oLW1Vee1srOz4e3tDQBwc3ODIAi4fv26zlnkjRs3Yv78+SOK+eF+7/u5sbERq1evhiAImpnbK1euICwsDDY2NnBycsLbb7+NO3fujKhNxtiTg5NbxtgT5cqVKygrK4OlpaXmWFpaGo4dO4aDBw/i999/R3x8PN566y2cO3dOq+6OHTuwf/9+lJWV4a+//kJkZCTS09Nx4sQJ5Obm4uzZs9i3b5+mfGtrKxISEqBQKFBQUACRSISIiAj09PQMGuMHH3yAXbt2QaFQwNzcHKtXrx60fFFREVQqFYqKinD06FFkZ2drfbUeExODv//+G8XFxTh58iQOHz6MhoaGYfTawJYvXw4XFxeUl5ejoqICKSkpsLCwANA7GxoaGoolS5agqqoK33//PUpKShAXF6fzWlFRUcjPzwcAXLhwAfX19ZBKpY8lzoH0LVGws7NDeno66uvrERUVhaamJgQGBkIul0OhUOD06dO4ffs2IiMjRzUextjY42UJjDGj99NPP8HGxgZdXV1ob2+HSCTC/v37AQDt7e3YuXMn8vPzMXv2bAC9s4YlJSU4dOgQ5s2bp7nOJ598gpdffhkAsGbNGmzZsgUqlQpubm4AgDfffBNFRUVITk4GACxZskQrjiNHjkAikeDq1auDrrP99NNPNe2mpKQgPDwcDx48wLhx43SWd3BwwP79+2FmZgZPT0+Eh4ejoKAAa9euxR9//IH8/HyUl5dj5syZAIBvvvkG7u7uw+5HXerq6rB582Z4enoCgNZ109LSsHz5cs3aV3d3d+zduxfz5s3DgQMH+v09YrEYjo6OAACJRDLsJRsj0bdEQRAETJgwQdPmrl27IJfLsXPnTk3ZI0eOQCqV4tq1a/Dw8Bj12BhjY4OTW8aY0VuwYAEOHDiA1tZW7NmzB+bm5prEs7a2Fm1tbXj11Ve16nR0dEAul2sde+GFFzQ/Ozk5wdraWpPY9h27cOGC5veamhps27YN58+fx507dzQztnV1dYMmtw+307futKGhAa6urjrLP//88zAzM9Oqc/nyZQBAdXU1zM3N4efnpzk/ffp0ODg4DNj+cCQkJOCdd97Bt99+i+DgYCxduhTPPPMMgN4lC1VVVTh+/LimPBGhp6cHarUaXl5ejyWG0XDp0iUUFRXpXN+sUqk4uWXMhHFyyxgzeuPHj8f06dMB9M6++fj4IDMzE2vWrEFLSwsAIDc3F1OmTNGqZ2VlpfV739ftADS7LzxMEAStJQcLFy7E1KlTkZGRgcmTJ6OnpwczZsxAR0fHoPE+2g6AQZcyDBXHSNjZ2eHGjRv9jjc1NcHMzAzjx48H0LtUY9myZcjNzUVeXh62b9+OnJwcREREoKWlBevWrcOGDRv6XWegRF0XkUgEItI69vCa4tHQ0tKChQsX6nzpcLRedGOMGQdObhljTxSRSIStW7ciISEBy5Ytw3PPPQcrKyvU1dVpLUH4/2psbER1dTUyMjIQEBAAoPflKkN79tln0dXVhcrKSvj7+wPona3+77//hqyXk5OD9vZ2rST/4sWLkMlkWgm1h4cHPDw8EB8fj+joaGRlZSEiIgJ+fn64evWq5h8WIyWRSHDlyhWtY0qlsl9S/zj5+fnh5MmTmDZtGszN+VHH2P8SfqGMMfbEWbp0KczMzPDVV1/B1tYWmzZtQnx8PI4ePQqVSoWLFy9i3759OHr06IjbcHBwgKOjIw4fPoza2loUFhYiISHhMf4V+vH09ERwcDBiY2Nx4cIFVFZWIjY2FmKxWDMrrMvy5cshCAJiYmJQUVGB2tpaHDlyBOnp6UhMTAQA3L9/H3FxcSguLsaNGzdQWlqK8vJyzXKD5ORklJWVIS4uDkqlEjU1NTh16tSAL5QNJDAwEAqFAseOHUNNTQ22b9/eL9nV5Z9//oFSqdT63L59W682169fj3///RfR0dEoLy+HSqXCmTNnsGrVKnR3dw8rfsbYk4WTW8bYE8fc3BxxcXH4/PPP0draio8//hipqalIS0uDl5cXQkNDkZubC5lMNuI2RCIRcnJyUFFRgRkzZiA+Ph5ffPHFY/wr9Hfs2DE4OTlh7ty5iIiIwNq1a2FrazvgC2oAYG9vj19++QWdnZ1YtGgRfH19sXfvXuzevRvr1q0D0PsyVmNjI2JiYuDh4YHIyEiEhYXhww8/BNC7dvjcuXO4du0aAgICIJfLsW3bNkyePHlY8b/22mtITU1FUlISXnzxRTQ3NyMmJmbIeidOnIBcLtf6ZGRk6NXm5MmTUVpaiu7uboSEhMDb2xsbN26Evb09RCJ+9DFmygR6dCEUY4wxo3bz5k1IpVLk5+cjKChorMNhjDGjwsktY4wZucLCQrS0tMDb2xv19fVISkrCrVu3cO3atVFdt8oYY08iXmXPGGNGrrOzE1u3bsWff/4JW1tbzJkzB8ePH+fEljHGdOCZW8YYY4wxZjJ4VT1jjDHGGDMZnNwyxhhjjDGTwcktY4wxxhgzGZzcMsYYY4wxk8HJLWOMMcYYMxmc3DLGGGOMMZPByS1jjDHGGDMZnNwyxhhjjDGT8X8t9QxC6Lxo6gAAAABJRU5ErkJggg==;" vertex="1" parent="1">
          <mxGeometry x="580" y="160" width="520" height="353" as="geometry" />
        </mxCell>
      </root>
    </mxGraphModel>
  </diagram>
</mxfile>
